<mxfile host="65bd71144e" scale="3" border="10">
    <diagram id="oQLZKqH3elSh2w0Gxdzr" name="Page-1">
        <mxGraphModel dx="1059" dy="836" grid="1" gridSize="10" guides="1" tooltips="1" connect="1" arrows="1" fold="1" page="1" pageScale="1" pageWidth="827" pageHeight="583" background="#ffffff" math="1" shadow="0">
            <root>
                <mxCell id="0"/>
                <mxCell id="1" parent="0"/>
                <mxCell id="19" value="" style="group" vertex="1" connectable="0" parent="1">
                    <mxGeometry x="320" y="130" width="450" height="260" as="geometry"/>
                </mxCell>
                <mxCell id="2" value="" style="shape=image;imageAspect=0;aspect=fixed;verticalLabelPosition=bottom;verticalAlign=top;image=data:image/png,iVBORw0KGgoAAAANSUhEUgAAAggAAAEnCAYAAADM7rsdAAAAAXNSR0IArs4c6QAAIABJREFUeF7sXQd0VEUbvdvSewiE3iGA0pSmgh2QZkOKgDSRpiCoNMWCggVRVEBFxIICCgrIb8FCBxFp0nsnhFRSt+/+5367GzYhIaEnYZ6HAyavzLszb7479yujsdgtTqhDIaAQUAgoBBQCCgGFgBcCGkUQ1HhQCCgEFAIKAYWAQiA3AoogqDGhEFAIKAQUAgoBhcB5CCiCoAaFQkAhoBBQCCgEFALnEwSrw6piENTAUAgoBBQCCgGFgEIgBwIaRRDUiFAIKAQUAgoBhYBC4LwYBEUQ1KBQCCgEFAIKAYWAQkARBDUGFAIKAYWAQkAhoBAoEAHlYigQInWCQkAhoBBQCCgEbjwEFEG48fpcvbFCQCGgEFAIKAQKREARhAIhUicoBBQCCgGFgELgxkNAEYQS3ucOhwP8w0On1UKj0QD8U8DhdDpht9vhdDqg0+mh1WoLukT9vpgh4OTYcLqynNm/MjYu8/Aeb55b8b7efy7zEepyhYBC4BohoAjCNQL6ejyGRj4lJQWxp07BarOhYsWKiIiIKJSxt9ls2LtnD4wmI8pGl0XZcuWg0+mux2uoZxaEgNMJmvmLMfAcGwnx8Th58iQCg4JQvnx5BAUFFfSkC/+e90xIwKnYWFitVoDkQ6ORcePr64vQ0FD5ExAQoMbS5SGtrlYIXBMEFEG4JjBfv4f89NNPmP355zgdF4eePXrgsS5dUKZMmQKNSVpaGvr17YsjR4+iS5cuGDJ4MIJDQq7fi6gn54kAV+zpaWlCBMPCw8UAF4YoUB2aN3cepk6digYN6mPQ4MFo0qTJZaFM0jFv7lx8/fXXiE+IB1kL26LVaREQEIiqVargjpYt0aplS1StWhUGH5/Lep66WCGgELi6CCiCcHXxva5310CDzz77DG+/8zaOHjkqq8QxY8eIwY8ID8/b1eBe9SUnJ+POlndi77696Nu3L9566y1EREZc1/dRDz8fARKDpUuXYvlff6HVnXeiV8+ehTK8dpsdH0z9AKNHj0bzFs3xyquv4L777rssiOmgmPzuu3LfuDNxCAwMhL+fn6gbZqMZRnMWAvwD0KFjB3luTEwdpSRcFuLqYoXA1UVAEYSri+91vTsJwsyZM/HOO+/g6NGjgAaoVasWXnrxRXTo0AFBwcH5rjZTkpPRqtWd2Lt3L/r174dJkyYhMjLyur6Pevj5CLB/hgwZgn82bMDd99wjq3e6kTwHV/U8cqsKV4Mg8DnvTp6MDz74EHFxcXjooYdQv0F9OOx2cWVs2LABhw4dht1hx6BBg/DqK68iPCJcdatCQCFQRBFQBKGIdsyVaFZugqDRuoLQmtx6K8a9+CLuuusu8QfnZUAUQbi4HsjPEF/cXS7+7NhTsfho2kdYtWoV7rzzTowfPz67T9mm1NRUZKSno2zZstDp9dkPyEkQmuGVV1+9bAUhN0H48osv0LFTR/j4+MBitWLZsmUYO2Ysjh8/LmrUmtVrUKNGdWhUAOzFd7y6QiFwDRBQBOEagHy9HpGbIJQtVxaZmZnISM/Avffei7Fjx6Bp06bw8fU9b4UpLoZCKAhcHdIQMRqekfDMlMgrS8KTSeGJZvfGhNfzD+mLt7Hw/NybwPA+jL7X6nR5BlvmuMZ1YZ4qiec8ea77HHkPd8aHd1R/Xj59V4bH+RkAhfH/e2ORFznLbkM+GSfn8NJIGxIS4kUhqlipkhABtoE/Zx/+8ssvOHXqFIYOHSqSv+d5bP+HUz/M4WLgmPDgK8GFzGy4COPNZ7777rv48IMPceZMnKgZnR58EP7+/vJcBr62a9cO69atg91mw9q169D4lsb5uhkkI8Julz709MeF8PX0n3cf5s7OyDHW8sA3rzHHtnsTQA++xJAHgzA97cpvzHpwzz3+5fxc2SRa9l+uScPzfP6Y7yRZRjab/M1voaAAYg82nuexX73bndf3yPfztPdKZblcr7lQPffSEFAE4dJwKxZX5SYITz89FMdPnMDyP5fDbDHj0c6P4rnnnkPdunVlled9eMcgnOdicBOCsykpOH36tKxSOSnTZVE2OhpRpUvnMN4mkwmHDx+WCYmZFB7VwmM0GE1PXzoNWKXKlWVSMpvNIlOT0ISEhEhgJc+hsWOEfFRUlBhDPz8/aTafbzGbpS1p6elyDp/He4aHhcE/ICBHmzj5xZ0+jbNnzyI8IkLO4/3j4+PFkPGZ5cqVQ1hoqEzAnoPP4XszUp/BgTxCQkNRqlQpccEYDIYLjg2+D1fQNAoVKlSQwE9vo8dJn4GhbF+F8uUlw8BzcHInLidOnJA2sm2RpUoh/swZMKiU9+I9Pdkr//vf//DB1KmSgfLKK69kZw9ERkSIG4KGfPSoMWjWohnGvTgOjRs1QtyZM8jMyBCjHl22rLxX7rGR3wt6EwT23Zw5X+PBBx+En5sgsE/4/6tWroLdbsO6tevR6JZG5xk3Ysz3iY2NlT7hwTHDMVA6Kgr6XBiLsbTbhRCdOXNGxgAzKNjn7BOOlcCAACGxnvsyNoL96+seP3yG2WSSLAyeExYWJu/PvmGfcVxYLBbBg2ODY5bto6H1jHkSXOLHcVEqKkr6h+OLY5YKCtvOe3LM8r7EIzExUe6dkZEBEgMGmfIc/p2dWux04nTcaZxNOSvvXrlSJSQlJ8vz+W2xr/hdsW2505GJDcdKUlKS63vKyJDxERAYKLiULl1aMky8xzfxO03sz56Vc5ndQux5/4LGd7GYGFUjC42AIgiFhqr4nZibIMya9ZmsMqdMmYK1a9fC4bCjX79+GDJkKKpXrw69W4LmpEAj2ModpJibIHDCOXDgAH795ResWbNGSAIndU7GzZs3x0MPP4ybbrpJJn7e69ChQxg9apQQiJdeegk1a9bMBpPP+ebbb7FyxUrUjqmNN954QyZPGsFPP/0U+/ftx6233oJHHn0UixcvFpnaaDSi/s03o0vXrrjjjjvkXmfi4rB12zZs3rQJhw4fRlZmphi28hUqyPVNbm2CChUrys/YJk6UX3z5JVasWIFbbrlFAjg3b96MHTt2yP35/21at0b7Du1Rrlz57In34MGD+OXnn0XS5wRtdzhQpnRpucfjjz8uOHpL+blHzeFDhzBm7FhYLRZpf9euXbPvzXbRwL344otijHi/Bx54IPsWxH337t2Y/M5krmlx9933yIqchviffzbKe74wahToHhJy8MGH2LVzJ0pHl8HNN98shonvz2u6d+uGjz6ahjGjx0icAMkin/nPP/+IoaURbN6smcQR3HTzzTmMSGEJwhdffoFOHTvKtTSQO3fuxFNPPYX9+/YhPCwCK1etRK3atXK8PzE4duwYfvvtN/z11184dfIUbHYbgoODZWx16tQJt956a46xSiO5Y/t2GRubNm3Cmfh4GY98hzoxMWjfoQNat24tmK9bvx7Tp09HzRo1MHjIEFSuXDn7dajCzJs3D1s2b8b997fGgKcGiKq1ZetWzJkzR4wmFRHec+HChVi/fj00Gi2aNW+Kbl27ibGd88032PD3BnTu3Bn1bqqHP/74A3/+8YcQAPZBt+7dJVuEY/y/bdvw62+/4d9//xXMeZQrWw533X0X2rdvL22TVT6A6TOmY/Wq1UK2GIi6fPly/LNxo4sYBgWJe4n3ZoxRNuF0OpGVlYVNmzcLNlu2bBFCQiISHh4u3yi/Vc83RMJy5MgROXf16tUSN0LiRWLQtElTtG/fDvUbNCjUWCh+s6VqcV4IKIJQgsdFboLw+eefo2vXLjJpvTN5skyEXJE8O3w4nnzyyexaBwURhIMHDmDC66/jpyU/CXpRUaVkJcVJjob5vvvvF6mZkxUnagbQkWxwUvpx8Y/ZE5LLsJ/ByJEjsGDBQnF3rFm7RiY4MSYDnpJJjTJ0mzZt8OUXX4rx5qRH+bvXE72EUHDVN3/+fHz3/fdiXLiK8jEYYLXaYLVaZPXTsVMnPNGrl0yKfOfkpCQ8//wL+Oabb4QMGHxcK39fHx9RILjiYntfeOEF9OzZU8gPFYpXX30VX371FVLPpqJ06Sjo9QakpaXKSo7vTKPuverPPbzY1ttuu02ySho0bCAEhcaPByfo77//Hv379RMDeO999+H7775zrXJJ2s6eFdI0fvzLqFC+Al57/TW0aN5C8Fv22+9o80AbfDd/vpC/SZPexD8b/4HVYhVSwFUg0w2JS+8+ffDiuHGYNm26EISIUhEICwuF0+FaWfI9mRZLeZ8khipTTExMgV9KbgXh+eefR4sWzWVsEM8F3y+Q/iXRefSRR/He+++J8fGW57nKnThxIubOnQur2YKo0lGSlcF3T09PF5Lw3nvvoUGDBmI4STw4vhhES7JKdwTxNOgNMlZILu6//365n8loFHwHDRyEW29tghmfzEDDhg2z34sE8aUXXxLjy+9h2vRp0jamCo8bNw4kd1RAQsPC8Ouvv8r9qS4wM+PlV17G3XffLYGXSxYtQZ9+fWRMrVy5UlQQnkd16Jlhw8Tdc+jgQUyePBlr162TMUfFgN9KYmIS9Hod+vXvjxEjRiA6OlrGM1OUFy9eIoXL6tSti6TERLmGbaAhJ/Zdu3XDhx9+eG48WSz4a/lyTHhtArZu2ypkIzQkRAisMStLrnm0c2cZU2wbVb6pH3wgY4h1U6gy8Zq01DQZm/feew9GjR6dTXAKHBDqhGKPgCIIxb4L83+BvAhCt+7dZGKdN3++5MDv2b1HJoJRo0ehe/fu2RN2fgoCV5njxo3FzE8/k8mTKWutWrWCj48BW7duE0NNiZKT8HvvTRHj8M+Gf9CqZSsxuD8s+gEtW7bMbjRX/s+OGIEfFv5wjiAA2LlrFwYMGCAEISQ4BDVq1kCdOnVkwty/f78Qi27dusqK7ssvv8SM6dNhtlgQU7s26tarJ89iO/bs2SPvyJUQ352Tbo0aNWTSfv655/HNt99IKl6Tpk1ltU75lhPl/O/mSwZHvbr1MH3GDGkbV/ePdX5MVtnVqleT9E/KtCwoReNCctCtW7cLEgROylQIprz7rrguFi9ahDZt2woeXPmzTsWqFavAgFJK4At/WCgrZhrrffv3oUePHtizZ69gyNUu32PEiGfx+7I/0PaBtrLSZbbAT0uWYNWq1fIOtWvXkncj0aBE3KxZM9xzzz346MOPhCDoDXpZyXfs2FF+l3r2LOZ/9524AoKDgyTFtWfPXkIwCjpIkiTNMS7OJceHhojhEwOfliarT66g35g4UVQXb8ma502Z8i7eeH2ikIg2bVpL4CRdBexHji0SrIcfegifz54thjX29GkMHjwYy35bJm0lgSBedLfQcHKsUH7n+DCaTPj+u+8x8KmBaNLkVsz4eAYaNmp0jiBs2oyXXnoRy5evwJP9+2PajOnnCMLYcaB6VCqqlKhE9erVQ1BgoChONKbDhw1D7dq1MW7si1iyZImMj8hSkTIe6TKg4sZxNXz4cGnfKy+/jN+WLRPV4YG2bWVlTiO9ctUq/Pnnn0LW2D4SEroQOLZIVPj98Tt45OGH5Rp+p1/PmYN1a9cJseA9+T0SS5JlXrd502aEhYfJmGlQv76oEFToDuzfL98KCRfJ/axZs4Rws48YwMz78N98R8aynD2bgu7duguBI0lSR8lHQBGEEtzHeRGE7o93l9UpVzRUFD6eMQNHjx5DhYoVxHBRUubKhEYirzTHw4cP4b777sfJ4ydx73334MOPPhJDxoMr++dGjsS8efPFOGzfsV3Ix8aNG9HqjnwIwpkzYrQp2VLGXLvWtQqkgjBgwJPY9O9mWb336NkDI0eOFN8wffjHjx+TPHrKtJTsTxw/jpatWmHo0CFigPz8/MWnTLcDJ77fl/0uKysaAK6g+f5c4VJBoKrAd2/bti0C/P1FDXj5lVfw1VdfwWK2YO68ufI7Gr2uj3XFxn83olnzZpgwYYJkhNDNQEPMVTqlawZ95neQINBYUNalT5kuDBo+g14vhp2GPMtodFUf9PFF/yf7Y/I778BkNuPHH37AwIEDBQNi9vwLL4j75tlnn8Ufv7sIwqJFi8S4cvKfPPldfPvtt3jkkYcxY8YMMQwkdXoJqtNKDMKYMWMQXS4aTz/9tBAy3ptk6rvvvsNbb76F/fv34bXXJmD48GGiLhR0eAgCyRQNtq+vH4zGLHknxl3QWL///vu4v3Xr7OBFzz1Jdlq0aIHDhw6LukL8q7hdALz+7bffxtT3pwr5W7V6FapVqyZuru7dH5cxzfdnFgddWFx1c3XNsUJSwdU9x6eHINxKgjBjOho1buxFEDbhxZdeworlKwR3uiKyFYSx47Bv3z6R/Z9+5mkhaiSWJC68LwnD2dRUjBk1Bkt+WiLEaOiQoejbz0UiSVZ4faOGDYUAvPnmmzh58hSeHfEsBjz5JMpER8uK/uiRIxg4aBC2btki5IhpytHRZcHvdulPP8lYY20TfqckDryGrge6JEgwxr44Dq+99pq4U3geyTcVJJL/MaNHo1x5l7uMbaY7gS4KuifouiK55XiiwsV01ZpudwUrsX7yySeYNn06br3lFrz19tu44/bbC1WyvaDxon5ftBFQBKFo989ltS4vgvA4CYLBIBMLV3UffvAB6Cs+fTpOViZc2XDy5krFUygpOwYhIkKM2dAhT8vEMnzEcNx9113ZQXw0AFxJT3jtdVkZLl+5XIz1BQlC3BmMGOkiCDyXMjEnMBIEyrxc/fDnXE1RVvY+RHL/5BOR/WvUqInRY0bLREhj4Yn65t+/L1uGCRNeF/80/co0igx6EwVhzjeiLIwdN1be3yN3c3Jl/Yjjx45j/rz56NipA6w2K55++hn8+OOPYkQf7NQJjzzyCG5t0kTcGLIaZlbEBSL/PQF1fXr3xvffLxBDQoPB1efzzz2Hzz6bhaCgQFSrXh07tu+QlT3jCdgu1g5YsXy5GM85c74RQ8hVrTdBWLJ4sUzcRw4fFjcD3TKPdemMWZ9/nm2QPW1gFgOxaNqsiRAixlzwYAT9tm3b8PL4l/Hbr78JNuwjGuYLHVSmSBCmuhWEhx5+SPz1jFGhv/7IkaMSFzDyuZHo06ePGE5v98K/GzeiTZu2yEjLQNfuXfB4jx7ZEft8Lo3XiGEj4B/gj2kzpgn2Lzz/PGbN+lyUpXnz551nuCQrg5H+DDbMyhLiM+ipQciLIGz6918hCIyHyYsgUI14rMtjMt6y42jcZa49sTZjR48VBaFp86Z4c9KbaNmqpesd3RkyPG/o0KelrQSaY5areu8x88EHH2D9unVCaNesWSuKV7fuXbH0p6XiHiDBFOzcfZWZkYkKFcojMzMLXbp2EVJoNpnxwANtxYXBIMo//vxTXH4eLDxZEpJB4XBg9Zo1EptCUnp/6/tFHSNmHEsc63///bcojgy0HDFyJJ555pnLmpvUxcUDAUUQikc/XVIr8yMINGScIDg5cPKe/O5kWfVTZrz99ttlFVanTgxa39dGKil6CALVgNcnTMCUKe/JCoTBbazI6J2SxWAsSpt6nV4Cq1iQiZJ8vgoCCcKIZ7Hwhx+yCQIn1F27dglB2Lp5K1q3bY0FCxZkZyyIEeNq6+hRMUgzP50pwWuTJ78jq8ocaZZOJ+LjE/Daa69i5szP0LZtG7z88stigD0EgeoEjSCNtOegr5oKwf69+0XK7/RgR5mcGZxIUrVm7VrBoFrVqhLoRdm73k03iSRbUKoj284Jt23rtrDarRj41FMYMnSoyLqUjCn/P/poZzw9dCgCggLF/80YAMq7VBZ6935C3psuCsaDcJUoCkLbNmKcaGzoL8+PIPAdPXUQSBCat2gmWQ6MefBs17Rv/36Mf3G8KBKsvkmC4F2AKa8BmaOSYlycEM8O7dsL2WSA6YwZH8sqmsWRGDPw2GOPSXaB9BfLNM+fL66prMws1I6pJTEx3gcVoQMHDooRGzb8GfTr118UmH83/isuqK1btsLXL6d64yGKvA9VoxwE4eMZaOTlYhCC8OJLEjeQF0EgGSMOJAjekf+e8UgCIwrCkiXyzdD4y3j0HMwosNrRs1dPOUen00o8AVUbttPTVq7YGQfDeJFlv/+OWjVrofvj3YQgkNwzfoHZK/Jcyd6xSPBxSnIKOnTqIG4ro9Ek5JJKDlWL9X//ne8eLFTM/rf0f0KuqTZUrFQRFZkNwyxh97fG9jAbgzEMffv2w6hRo+DaAUQdJRkBRRBKcO/m52LIkarklrzffOstCTrMyMwQOZ3R5iOfHYlDhw+dIwjh4XhtwgS8/977IhszkIo+VI9RyZ5Q3Lnh9J/Wr18/B0FY+ONC8W16DsYSPPvscPzw44/iYmAQGw8PQdi2ZRvadWgnBCFHrrfTKavnt99+R2IQGDXOoDemPnofnHRZKOjVV1+TAK5WrVpKUSBKwhciCD/88IMYgn179slqr1OnjjI5U77f+M8/EvS2avXq7KBIBlGyfDBXg7nT8PIaYjSaNJ68B7Mgej3xBN55+x2ZgGfN/hyNGzfGQw8+iD1798rKjxHwJC21atYUNYCxAiQiJAgjRozE77//noMg0FhxBSsKwmOd5Z5UTTxGyFUHgaWWSRDcpZbvvTd7yqeLYvxL4/Hjj4suSkHILrUcFyfxHYxroBTO9MzZs2djyuQpIrfXrVsHMz75WFw0xItj6Nu5czF44GBkGbNE1SH5EiPoBSDPI1Gji6Zxo8a49757RWkhod28eYvEU+R3CEGYPx8DJUjxfBdDQQRBsnFGjxKC6Z36eh5BWLwEo8aMwvBnh8v34X0waJRBr4wnCAkJFmKbmwjxfL4ngzOfGjAApUuXySYINOAHSBDcVU3ZnwwqrVy5igSCMiZo8aLF4l6pUrWKuLGaNm0ixNZDnHMTWBIElut+vPvjomhxrwyON6khkgtMjqFmzZpLpoU6Sj4CiiCU4D4uDEEQg+F0YuvWrZg4aRL++vMvmcxbt2mN9evWixsiW0EID8dXX38tsQCUged8O0dkyewiKu59HAgpDRANAyejTRv/xR13tJRAqTnfzBEC4jno1x82bJisMD0xCDQI2QRh6zbxry5YuCDHCojtZpohfdL80+rOVnhj4hsSpOY9AfI8xgcwkptujAcfelAUEtYLkBiEr7+R+AYWjRIFwb3lsTdBmE+C8GAnMUyeIjxsN10XS376SVLCsrIy0b9ff3FlMDitoIPt4kqPMjoDEFlLgW6bhg0aiBxMTOkDpzHi+5DU8W+mDTKmggGH2QRh5EiJschWEDQakeMZXPjF7C8lhXHW57MkqM5jbNk/DCZkkGKOvRjcxZ/2HzggCgLdKWPGjZE+L4yLIT+CQDyYhUAX1ldffS1pf737PIHXJ7wu/nfK2ZS5O3XsJL+jqsUU3PMKALlX2ozzYCR+79698fPPv6BSpYr4/Y8/ZBOo3MWIPH3hikH4DgMGPIVGDRth6odTxd/uOejioIJAY5qXgsAgQ5LA8S+Pz7PeQLaCsHgJxr44FsOGD5NYHO+D44euIrrqWCeBGQRU7eQ9c223zcwBpjAyU8bjYmC/08XgUXOoIDA4twoJQnKSKHZLFi1GlskoJIhpwqxWSVWE9UmEfOR6DknvyhUrhKyEhYVj8OBBokrlV2SKYzG3glLQeFe/L54IKIJQPPutUK0uDEHwrH5osDiJTHpjIjb884+khznsLv+tt4uBQVkMpDsde1rIwcRJE0VGZZAdD0Z0k1TQwDN2gIF7zFFv2rSZFCN6+eXxGDZ8uEw+NFLMieeEuWHDP5IpwBQ9Spe8nkFzlI3zIgh8Fif8OV/PET86/dK9n3hCArzKsaywTudOG0sUF8HHH38ihIJqBX2onCSFIMxxE4Qx+RMEXk9iwXRGRn8z3iAiMlKwoa9+8KBBEuTF4jhrVq9GVW9Z+QI9xaj+2++4Q7IsuFRj0NtL48dLaiUNCTHguzPTgwdrOrCGxcMPPwxZ22ngUhDyIAh0v7zzzmRxvzzQ7gEpx0xSRGNA9YLX0zi5CILLxcD0VM8WzTRCTPn78YcfL9nF4K0geGBgxseAp56S2BI/P19RdTo/9piQycSEBDRv0UICC29p3FiyR5gFILUrxC1iQ2pamgRgVqlaVVbRMz/9FKNGjZa4jaefeUaUL/rnPf3PdyXhZeAtDe6iH39E7959ZMy+NP4lkdU5Fvk7xoKwTseunbvOJwiS5ngYY8aQILhIm/fhiUEQF4ObIFBByGv/kmnTpomLKP5MvLjX+vTtK5K+1A1h6qbFIq4BCWa9/XYEB4cIQfjpp6Xw8/XDgYP5EAQqCB3aSzqk2WwSUvfpzJnyDVINY0aDpwCTh1gQGxI/1stgP5w4fgK33X6bBIQyJscTV8PvmqnBJMYk+oz5UUfJR0ARhBLcx+cVSvp8lkwS+VVDo/FgkBtl+527dsqkyRnLRRAmIjKylExejLpetHixK3WwWzfJMxcplf7+hASZbFasXOmKQq9SRSYdrmZo0Fvc1kImK06cjHngKpyGgKvL3ApCQQSBkzLjG1579VVJ6aPvlCvQ225rIVsfsxgSi9xQnaABv/mmm8QAc5XFFEgGBbKwTc8ePUVBqOUVg/DDwoV49bXXsG/vPleQ4oMdsX37dnw2c6ZEgpP8kCiQDI164QUx5vQLXwxB4CT93vvvY9zYcUI2GGjG4kCVq1QRA0R8SH6++vJLWUUy4I0SOd/Nc9BYjnzuuWwFYfGSJWLwWJ2PhujNiW+iVu2aEs/BNvOe9Cezeiaj9UePGi0ZGa++5t6LQRQEDfYfcLsYSBDGjMaI50ZedAyChyB4V86kWsLI/IkTJ4kRbNy4kRgxZpLwnUmO+HuOswcf7CT9SbyJD9u+Z/du8aeT3DFmY/euXWLkDx46JIGKlO/pfqGrhmmNjLHhvZh14OfrKzVA+G+u1klwhw4ZIsGATJdcuHABvpv/vWSx5FYQWDeCG00ViiAsWSKVKakg5EUQqGix/Vy1c0+KLo91QYvbbhNFgd8giSzHLceYOQcuAAAgAElEQVQs97Og+6BrNxKEnyQOJ7eCYLFYJbtCXAxugkCCzzgXYkMiwm+DigxdYCTq/Bb5zjarFU8+OQDJKclCPqdPmy7EjfEo/E7osuM4ZYElBg6zEivTMql8qaPkI6AIQgnuY9d2z+d2c2S0N9Ol8iMInIS5ovhmzhy8P3WqyNRUEZiq5dnNkefQV0tDu+Hvv0UxqFSpkvjR+bu4uDNSh5950sxI4MooPSMDw555Bj8uWiRGgBM4ixNx0uEELxsKZWSKAcuZ5uhWEDq0lxiE3GVk2XVchf/y66/46KOPxIAzg6FSxYoID49Aeka6rPg5GTISnAWIWEyGK0waG0bAkyDQYIwdcz5BYLrY3n1ugtCxoxSbYZEbZghUr1FDUvY4KdM9Q8PHFdg7b78tSkJhDk68J06elJgMlksmeeOqnkGGnlK8dF881rmzpAu++NKLErjoHfHuTRAYtU4yRONHI8d/j3phFBKTEgVvrppZYIc1AmgYjx8/IQavWfPmeNWtIHiC5WiEJAZBFITRLheD1y6Reb2fK0hxMj6Y6trNkQSBLhHWMfAcYuiTkqTiI904JqNJ0gYp3VOOp4wvxnPlSphMRlSoUDE7jZbjhQY/JDhY4hUYh8D4ki+++AIfTZuGkydOiNpAUkqFhy4IEqWKFStJPQkaaxpdBn2SiHFlzVoMLD1No8x3ppvHmGVEP680R6YX8hpW6CRho4vqggpCAQSBxHr+vHniQtqxc2f2mOXqnmSG5ZpJPLmCX/D996hUqXKhCEJKSrIoTgwsZVlpxiEwE4ckg2QsIDAAVatUlf7nfizxCfHikln222/iPiMBoEuLLhaqNazfQIJANYvjnPhzDLGvHn300cIMcXVOMUdAEYRi3oEFNZ+TBVP2Tp08idffeENWTZ6SynldywmcwVw0VJzA6Q9mOWAaJhp9MSAOhygEc7/9ViY4TmYMlKIBZxVBGk7GAtCocLVC47l9xw5Zofz3339yT5IUTj6SP+52STAwioV+OPmSnLAq3Y6dOySqX6L280kf5PU0KJSPd+/ZI8WDuDLipMdJl4F97dq3lzS+0mXKyP1pCDh5clXGYEqqItwHwnMs/+svMTrMFX938ruyWo07E4ePP/4Y69auFaWEEzDvxUJOTD1kLAXf4WL2LqCxGDt2rKQysp/oj/YcvDcNLbGntM66FSQ/3r5qyvHExrObIyV7HuwnGlsGcFI6p6HkRM/+YN8wXoJpeyxmxWqCJD4kbp4YhePHjoHpdr///ofI9r379JYUxYKOr7/6Cl9++RUSExOkWifTYL33O/C0jSWx6dYgSWHMBiVtGmv2MdNRafRJvNiXJDus3cA6DHQfsZ1Dn35aFByORe4ZwOwElggmeWPf0kAyCyAkJFQwZXwK20+ySDcWxzfdHexDGk6SCBILunMOHzkiBpDuBvYBSRprN7DWBlWtpwYOPD9TxemU1fV7U94TvAcNHoRevXrJ+MvroLrFTIafli6VfkhLTRVFTqfTi4TPAE0qcyS0oSGhkhHBQFRmfXCseAoVsZ+p9LVt00YMOEtKM8uIbjr+jj/jGKBaweyijMxM+bmP3sdVPKlVS4lV4ffILBGWZabyx8BPqgqypwm/68BAKVV+Z6tWUn2RxaLUUfIRUAShhPcxfdFcWdMot2jeXOTr/AytNxRcMdAQUvqnEWfFNW/Dx8mMxokGn0aMJZZJPLhyY9R9TExt8Z16csCpNHDyZv14+poZZFajenWRurkq5OqNbgr6wXkNn8sa9Vz5UD6lUbtQu2lEaNQo9XMjJU52fEZ0mTKIqVNHVj6Uuj0rP67UaKRoDJjTXq9u3RwVENkmGihO3FypUubmwXel6kFlgoVx2CYaKhaQIbYXu5kNJ2vGYbAkLiVgz+ZTnr6gokPFhu1hOmVuckcyx2JR3OCJSo53lUr2EfFjNUoW4OFkz/5hfzJtkituStnEndKzJ4iNz+Z42bZ1K44eOyaZKNn+6At8L3wXxkSwD2iI72jZUpSLvHYa5AqVGRzEkwdJCoNEpY+dTulD4s/35lhgjAsD8xjfwTFDw+u9iqehp6GlQkA1xma3S38zb5/9z/Z72sG2Md2S8SMkIHQxEA+qXexXqjocwyQsHpLGtlCt4r4UdevUybNIEDEj1hyHrNlROybmgmSRY5ZtpsuBmz+xbDSD/zhmeW3VKlWy1ReOAWbtsNiV1CtwF+PyEPb//fyztI9KGRUhb8WGY4S4kBAlJiW5iCI3v4qOFlz4rp5vS1wcp05J9USmNRIrz3fNe/NbYcxCQam8JXxavWFeTxGEEt7VnEDy2sK4MK+dvbVyPtv+eiYnGn+ey0mGk4lnk6a8ZFjZddFikXM56fMcT00G/jv3zol8hvy8gG2HPel7vD8nORpHzzPkWndQmadNHlz4N3+f1/2zi+y4JX8PZvw57+/Z7pfvfCFVpiCsJZfdbRzyOle2lnY4RBHJa2KWbZHd+Oe1m58HE/5NAuMxlB53gifqP3f2B+v+Oxz545O7rZ4+8Ny3oC2CPed5+sBDJuW+Go28k6cvPZkcFxoHdHGw0iCJEO/J92S/5M5q8LST9+YfrpA9qZYyLtzX5h4rbFZB7+TZBrywW2V7xiHbwfeVNrPSpdeYyx7buba+9qgxfG+2WYp0ebY39wqi9HxDfIY3NvL9ubeO9ryrfI/uTJFs7N2ppR4sCxrP6vclBwFFEEpOX6o3UQiUeAQ8xjL3i16JFa3n3lfiXsWpIwp6bw/BKE7vpNp6ZRBQBOHK4KjuohBQCCgEij4C7joXuWsuFP2GqxZeDwQUQbgeqKtnKgQUAgoBhYBCoIgjoAhCEe8g1TyFgEJAIaAQUAhcDwQUQbgeqKtnKgQUAgoBhYBCoIgjoAhCEe8g1TyFgEJAIaAQUAhcDwQUQbgeqKtnKgQUAgoBhYBCoIgjoAhCEe8g1TyFgEJAIaAQUAhcDwQUQbgeqKtnKgQUAgoBhYBCoIgjoAhCEe8g1TyFgEJAIaAQUAhcDwQUQbgeqKtnKgQUAgoBhYBCoIgjoAhCEe8g1TyFgEJAIaAQUAhcDwQUQbgeqKtnKgQUAgoBhYBCoIgjoAhCEe+gEtc8VQu+xHWpeiGFgEKgZCKgCELJ7Nci+1aeLaK9t3Uuso1VDVMIKAQUAjcwAoog3MCdf61fneQgISEB69atw/3334+goKBr3QT1PIWAQkAhoBAoJAKKIBQSKHXa5SNgs9mwZcsWjHphFL748gtUrVr18m+q7qAQUAgoBBQCVwUBRRCuCqzqpnkhYLVasX7devTq2QvL/liGOnXqKKAUAgoBhYBCoIgioAhCEe2YktgsKggkCD179MTvf/6OmJiYkvia6p0UAgoBhUCJQEARhBLRjcXjJbIJwuM9sexPpSAUj15TrVQIKARuVAQUQbhRe/46vDcJwt/r1qOHIgjXAX31SIWAQkAhcHEIKIJwcXipsy8DAUUQLgM8dalCQCGgELjGCCiCcI0Bv5EfpwjCjdz76t0VAgqB4oaAIgjFrceKcXu9CcLvf6kgxWLclarpCgGFwA2AgCIIN0AnF5VXVAShqPSEaodCQCGgECgYAUUQCsZInXGFEFAE4QoBqW6jEFAIKASuAQKKIFwDkNUjXAgogqBGgkJAIaAQKD4IKIJQfPqq2LfUZrXh7/VeaY4slKTRFPv3Ui+gEFAIKARKIgKKIJTEXi2i78RSyxvW/32uDoIiCEW0p1SzFAIKAYUAoAiCGgXXDAFFEK4Z1OpBCgGFgELgshFQBOGyIVQ3KCwCiiAUFil1nkJAIaAQuP4IKIJw/fvghmmBIgg3TFerF1UIKARKAAKKIJSATiwur6AIQnHpKdVOhYBCQCGgYhDUGLiGCCiCcA3BVo9SCCgEFAKXiYBSEC4TQHV54RFQBKHwWKkzFQIKAYXA9UZAEYQr2ANOr3up7P7zgb3RCYIaH1fwY1O3UghcYwQ0TsB5g03siiBcsUHmhJMjCFrAqYVGRpIDTjhyPEFzAxcGupEIgoZjAFr3hOKAw8nx4RoLGvlPHSUOAadTFf4qAZ2qzWbynMs1gNMOJ/jH9U17Diec0Gj4jfMC7y+a48B7OVB8QVEE4Ur0HccD7yNjgsNIC9i1cNg1cNhdxsHhdMg5Wo0WOp0OOj3g0LmNhoZDreQfJZIguPveRQjZi1xmsO9d/e+0O+F0OoUSOLWcUDTQ6zWAnnOPLee8UvKHQIl4Q8798r07XIsBhx2wW51wOrggcP9Oo4FWD2gNgEbHvnaPjRKBQMl8Cc8X7CEITqcGJPpazuM2wGRywmy2wW63w253QKvVQu+jh4+vFgYDoPfRutaHnM89/V3MiYIiCJc51mnaOaA0Tj2cNg0cJiDzrBMZSSZkpZtht0AMhMNJcuAiCBxUvgF6BJUywD9CC0OAE9A53CvMkru2LEkEQQwB+1SMhRYahxZOC5CVBqQnW5GVZoLF5ITN5oTGTmIAOHWAXq+Hn58OgRG+8CulhU+gAzqDZ0K5zMGoLr/qCGgcGmhsGtiyNMhKcSAzxQpjpg0Wk00Igkch0nIR4KeFb6gOQZG+CAjTQufrgEaXU1G86g1WDygUAh7S5+DyjkoQSYFJC9NZJ9Lircg4a4HdDFitdohQJBTRKeRPb3DA4KtFYJgPQsr4wSdMA40P5/RzRKG4zuqKIBRq+OQ8Set0yUxcL2hIEKxaWDI1SI234ewZM8ypdmhMLvYpVsFLlsq+k8YOp48V+jAHgksbEBLtD99gDTQ61yrTdZQcqYpvk71ZU4+eWPbHMsTExHi96yV0xHW4JHsi0ZAgaKAjMTBrkBZvQ9IJE4ypTjjMGtfq0kEt6fypQRxPehs0AWYEl9YionwAAiJ8oDE4Sow0eR265oo/kj2noTWQQwenVQtzqgOpcVlIi7fAlqGD06KX71wUJC8HtfxTo4Fdb4fDzwzfcCfCy/ogtLQfDL4aaDk18L9ivsK84qBfpxu6Fnlul4JZg4wEO+KPZ8KcrIPTrIPG7nYtiDrARnpcDRwf/G4dgNYO+NngF6lBRAV/BEYZoDFw6LjsRHE8FEG4hF4TgkAlmWPCokXmGSfiDmfAmOYAbJwsdG6Xw4V4o8sT7dDYYdNbYAgDSlXyR1g5H+h8XROH8IQSNIGUBIJwTn4EtFYdLCkaxB/JRHqCFXazHlqHPoc/Mpdn8hw/5LSiccKhtcHpm4Xgsj4oVyMMPsHkFcr1cAmf5RW/RFyCMvdrYTdqkXragvgjWbCma6Bz+sDpcPUuJ/88v3SnRoyJHQ44dDbA1wa/CA3KVAtCUCk9tHqhCIokXPGeu7gburwBWujsWtjTnYjbl4GUOBtg9aUfWMgf1V+3DxkOdyxR3k9xfdOaABtCy/vJnG4IccIpA8lFEopTHJoiCBc3lmSMcF3opM/ArEX8XjuSj2YBNnY+Hctklh5vVv43F9vvHnJcUdo1ZJ8OhFbSoXQNAwwBetdAKkG+yxJDENjVFi1ST9qRcMgMcxr9zxwVVIskNPGcApRjCJwLcPL82GUg7HDorNCH21Hx5gj4hzsBvZKiL/bTvNLniwvJpoU1VYukoxakxJrhMOlEGfKe5F0EIecK0RVx4KYOEmPEWBQHnDobdCEWlK7ph/ByAdAZSCIUSbjSfXcx96NLQWMzwJToxPHdGbCedcBp41yug040wJx9mz9BcM3qLr7hAAxWBEZpULpmAHwj+SuShHMxKhfTxut1riIIF4u8ME0NnEYNTu21Ivm4EQabXoYFwxMv5vByJMigEunZxwL/CnZE1w5CQLCPS77yHMVcTSj2BEFiDjTQWLRIOeZA3IFM2I06l5vBq+PzHQVu11TuMeKacJxw6OzQhJlQvk4YgqMZ4UYlobh6Ly/mSyha54obif3s0MKcAiTsNyH1tBlwGEQdzB1Zmh9BcK05SQDofvAsCByway1wBJgRXTMYkRX9oPeld4IxSMVThi5avVfI1riDirVwQGs1wBQPHNuZBUuaA1qvPva4k73vemEFwftMl4vJpzTncz8ERfCbdgcuFbKZ1/s0RRAuogcYbEh7rcsy4MwBCxKOmKC1GWTdeDmHd3wz0yIdvmYEVHSiTK1g+AdRsnZNNcXd3VDsCQL73qpDxkkHYvdlwZrpCk4kIfBe718aQXD3st4KR5ARlRtEIjBKK8Gr6rh2CLhiCehO1sKaBsQfsCDlpEX6WQLTsuMMzmmA+boY5LN1qYAkCpLHJLIhSYINzgATomsFIaKib7Zb8dq96Q3+JElDdkJn1cB6VoPDWzJhy2BwIr/ec1/w5REEl1PCobciMNqJMjGB8AtnpkPx+aYVQSjsdyI97YTWpkPyQQdi92RAZ/eV7/1y13jnJ0A54PCzILiaFmVrBbtSpVzLmsK2tkieV9wJAo1G1mkgdlcmLGlcYbpiTQrd/67ItfP6JseKROIbrdBGWlClcSR8QzmZ8E+hn1Ik+764NMqlHGjgzNQi6bAZ8Ucs0FgYaeY5PN/gub7MTnvM/ZK53IPnIhVcLgcqCQgxo1K9MASX0cPJIFXVz9dmqDB9kV2ZpcGpbUacPW1zKQeiHpybZy+XILhexgH4WBBUSYcyMUHQBxaflFdFEAozHCUf1uWPpOR4YGMqNFm+0EtlLc+qwilBZ3kdUuVAaqi4kmM8oU05op69VAL+XmISQq2IrOmDqEoBkt3gKbRTmCYXxXOKK0EQowEN7OnAqR1ZyDhNd6IrSyW/4DSw/zjVOB0u867hqsQV8KTJFeTkzHY9nEuLsvuYEVAZqHRzGLQGm2vUeFavxZwoFr2x6TLYjB7RUimwapB+0oq4vSZYM5il4NEILxQr4HTzd/ZvXm94bp6QmAMxQ07Y9Sb4lwEq3hQMnxDWyih66JSkFhF3IQYkCDYtUg/YELs3C7DSncsjZ+flrJzIdHVXLImWc/l5Hc05IXfnuxZ2XARogm2IqKlHqSp+rnTXYuA+VAShMKNf0tk0gFGLI9vTkB6rgcFmcK3qvb7o831TDtgcVqRnpMFsMiE4OASBfsFSCyHHhJ+jDa4Bxf+segv8ywPl6wTDL5iTR/GRpvKCtTgTBE4miQfNSDxkgTOLRuN8K3BuXSCOIpgsWUhLS4VeZ0BYSDj0Oh9XKhUnC2+A8hhDjIS2B5lQoWEowqK5gvUKfFQEoTBf7UWc484acmihc+hgOwsk7DUj+ZQVWifjDly9dV7GgbgLnLA7bMjMSofZbEJgQBAC/AKhZYJ8juMcwXMRBNdokSwmn0yUvykU4RUMAPPn6YkoBsbjIgAuMqd6CALVP2casP/vVNgzfKCT7KPzF3ieOd0BO8zWLMTGncTZs8koF10RpSMrQKc9pzjIMiIPgsD+ZnyZTWdFYHmgbJ0A+IZoIGagiB+KIBSmg1jzwqaD5Qyw+9+z0Fv9JDAtt4nwJghUE8yOLBw+tRMLl3yLuDNnUD+mIbq0743IkGhZUYqxOO8450qwaxxwBJkQWUuPMlWDJJ+2OB/FkiC486MdaRoc/y8NpgTmRLvTWL06w7MipKJk01iQZkrAr38swtoNq+FnCMTAvk+jRvmbYND6i+SYo+fzIAgs7Wr3scKnnB3VG5WC1uCmHxdMsSrOo+P6tl0UBBIEqxapxy04vdsEp9ngVTY9J0FwhSo4YLEZsf/YTvz612IcPnYAt93aEq1vfxBlIitAz1KK2UdeBMElCtk0VviUsqFKg2D4hJ6ruHl9ESmJT3fRMhpxvU2HpP12nNqdAZ0EnzLQPOfhChy3w66xIcOSjC071+HLb2bCaMxEtcox6NfjaVSrUBcGKXbgLqGe38LBrSI4A82IrKVD6aqBogoXdY+SIgiF+Q6YdWbS49RWM5JPWCQHOi8V0UMQOHEYbRnYeXgLvl74CeLiTyK6TDQS4hLQvOGd6N7pSZSOKA+txrUSzSVqZccacKxZ9WYEVrKjfN1gGAKKAeW8AJ7FlSAw7uTsUSvO7DPDmUlykEccgQSh2WHX2pGUEYsFP32FP9f+DxUqV0RcbCwCfcIxvN9Y1K/RAgadvkCCQJXBpnXAEWxE1VvCERTpXuEoglCYL/aSzqHbyJGuReJeM5KOmUU9YMDa+QqCS3EwWjPx3751+OHXr3Em+RR8fP2RnmJGy8b34qH7u6JCmarQZZMEL4LgaZ3b1cDFhMU3C5UbBiK0nM5VXKeoW45LQvj6XyTajcMJg9EHh9anwZzinoPzWKyxX2ywIjUrAWv+WYYfls5DqdIRqFG9FjZt2ojw0LLo03ko6tZoCL3WNS/krSyec02x5k1wFaBcnUDouVYo4qFFiiAUYsxKoYw0HfasSIXGzPxY75XBuRt40tWsThP2HduGmV9NQ2BIGB7t1BVlo8tiw79r8Ptfv6Be9Ybo13kIQoIi89ge7JyCQK+oTWuDPtKC6Lo+CC3j5xLBivigyg/S4kgQpO+NWpz4Lw1psRpoJaX1/A6wS9ErG7Jsqfj8m2nYsfs/tLm/I26//W4kJZ3Gt/NmIykuCWOGTUD1SnXBDOu8jnMqlCumhRktYTV1qBAT4kqDUwShEF/sxZ0icUECrQZZLHq20wTzWf7MndKYh4vBDis27VyPJT/Pg8HXB+3aPoRy5Stj7T8rsGbNcjSq3VRIQpmosu7G5Ky06GmhyM8kCDorQirbUaFuEPQBxfQDvzjYr/3ZsmEaS7o64UwyYN/6s9BafSV1OXfwh+h1GidM9kxs3LEac+d/gRbN70C71g/Bzy8AB4/uxqKlCyV2YUjfZxEdWc5Vcj1PBeEcQaAaQbWoTB0Dgsv4uurvF+GjSBIEh7umOTfDuNSD95CgwCvgy9M6NLDF67B3bQoMdp/8CQJXfHAg05SGzTtW4+jxw2jfpgvCgqPEV5llTcXOA1uwb88BPHBbR5SPrlIAQXBX2/M3IaK2BmVrBLsGeNEeU/l2WXElCEjV4tjmNBiTGPmcNzlkSCI//tjk41i4aC7uaXUv6lSrD63OBw5YkZgeh//9vBi1KtbGnS3aQg/vyPjcJNNVVIUE0a6zQF/WglpNSkEjRRqLdxzKpX7PV/O6bILAoLXjVsRuNwEWg5sInu8aYLCwyZqJVX//iZTUFNze/C6ULV1RavQbbenYuW8zjhw4iub170DNqjHnCGUeH6+HENo5d4SnokaTSPiF6It9xtLV7K9Lvrco+k5o7TqcPezAyR1Z0NoN2UGL3vdlv9iddqQaE7Hn8HZkZmagVZO74aMNAr/1NHMSTiUcQezJWNxSpxmiwsq53FGiIuRsoXfsioQsBxpRqrYOUdWD86zCf8nvdxUuLHIEgbUGTsfGygZHZcuVkx2zLvbgtYcOHkRUVBRCQkMvmyQw3iDlgBMnt2fAIMEsXm3ykqZsGjuyrOnYd3gX9hzYgpDgILRq3h7BvuGw2qw4euYgdh7cBH+fADSveyciQ8sU/GqUubiKrA5UqB0s4oVkTuRX3rXgO163M4ojQeDqwhSnxcn/MqSinqvqwfkHs06SsxKxZddGHD1+EDfVbIhGdZrAR+8Pu9OGdTtWIz7hOEIN4biv5YPQibUvOKbEprcCEWbUbREOra82u8xrMeWI123sFfRgqgdaiwYph62I22WCxuGJaj93pSfOxGI34ljcIfy3Z5NEtd9y822oFF0dGq0GsfHHsfvwf8hIy0DjOk1QpVxNCUou6It1aB0wB55FzeaRCAozyM6f6rjCCFANlMJIepzaYUbSYSt0ktqogXc6I5UDu9OK5MwErN38Jzbv2IBSYVHo3qkvyoRWRKY5A5t2/411W1agVGgEOt79GKIjquQoiJVfyyVzxdeI8BpalKsTUuTjyq46QaCxtttssDvc22PqXSWEucLn77j1MQ/P/zvsdkyfPl3Y+MCBA+Hr6/pQZctkh8O1VbLOlQUgKgHNtfse3IaT9+bzhgwegi5du+DOu+6Cj8/5H/vFDD0ShJNbjTh7xAm9XZ7oNWuc27jJ4jBi39GtIjEnpJ2E0WTEoCfG4t7m7WG0mLDi39/w6RdTULZUBTw/4FXUrnZzgc3gasVqMCOsKlChTjC0PpSyC5puCrztdTmhuBKE9OMOnN5phD1dL+lNuQ9+9BanET/89i02/rcWu/dvQ1hQJKa8OhPREZVhdVjw+cIP8NPPc1Elqh6mvf0tDDrvzIT8u8Oms8EZbkJM8zAYAnSKIFylkUuCAJMGSQctksGgdeZNELht++GT+7F0xQJs+G8lUtNS8EibnujSri8CAwOxbf9GzP5uGo4ePIbhfUfjvpbtodPRz31hSk83g8k/BdWbRyAk0sedi3eVXvYGvi3LKpMgHNiQAtMZj3vhfIJgshmxYftqfLtoFuz6DJw4dQx9HxyO7h37weQwYcPuFZg4eRyqlK+Kl4a8jcrlYtwLtwuLPyQfVp8shNXQonxMqOzHUZSPq0oQaMBTUlJw6NAhpKQkIygoGNWqVUPp0qURFxeHzMxM+X8a/ZMnT8JkNEKj1eKtN98S8jBm7Bj5XXp6OkwmE1JTU0UVqF69GgIDg3Dw4EEEBQUhOjpaztu3dy8Cg4LkvCf7PYlOD3ZCn759UKZMmUtSIjwdR4JwZGMaMk7oYZANWvIgCJQdLZn4Z8saJGclwKpPw4zP38edjTpg/HNvSS789sMb8NpboxFTpQFefXYyAv1C8nAx5BwuQhD0JoRUBSrVJUHgKlIRhGv1UVFBSDpkQuJeGxyZhjx3ZyRBMNqyMGfBl6jf9CbM+/FTbNq+Hm+PmYlbY1rJds7LtyzFpPfHod9Dw/D4Q89AXwjXF3vZqrPCHmZCTNNQ+AYZwJUmD6UgXNkRIAGKWUDiATOSDzC9MX+CsHn7RpxIOgSTJgU/L1+E6NCKGPDoCNSoVgeJplN4b/YExB6Jw7AnxuHWm253uToLQRCyfJNRvVk4QqN8ZRthdVx5BIQg2PTYsyYRtqQAd/yBO6rIXe+ERtxsM84ys9AAACAASURBVGL3wV1wGKxIs8TilTefx20334dJYz6CFXZsO/Q3Jrw5Fs1uvh2jBr8mrgfXFp10DOb/dQpBMGQKQahQN8yVyVCEj6tKEBITE/HjDz/g559/FnZttdlwU7166NOnD1atXo0dO3Zg7NgxCAsLxxezZ+PYsWOoWbMmPvn0U5hNZjz/wvNCLpYvXy5GnvutU4no2aMH7r77HkyaNAnVa1RHly5dEBQYiOeeew516tYVovHRR9NQrVpVjH/5ZTRp0gS+vr6X3A0kCIf/SUXmCQMM4kc8nyCIdKSxyTvadQ4cjt+FZ8f1QfUKdfD+a5/KNeu3/4VPP5uG7h3746HW3aCDXogQ1RGtBKvktToFrAYjQqo6UYkKgsjMiiBccmde5IUkCIkHjJISlR9BcNU6dCLLYoLeX4+fVnyBj79+B706PIOu7frDEODAh7PfxLr1q/DRxK9QNqK6yM5WqxVUzHQ6DfR6X3cxpXMxBjkIQpMQ+AZ7CIKrqI86rhwCQhAynUjcb0byIVbVy9/FYLVbYXNakWg8hc++m4J9u/Zh8ONjcEfzu7Hr8CZ8Nv8D1Kl8M7o+0B+lQqOlkZy3ZCMvuhvyIIdUEIw+yajWPMxNEBQFvHK9e+5OQhDsBuxeFQ97cmA2QRDS7SYIjD+QvTEkUNGOo/G7MHRMT5QrVRkzJs0VgrBi48+Y9/03GNzrOdzWuBUcNgfMFhOsFpukr/v5+cPPz8/d167y3RIBwYBUN0GoeCMTBBq+lStXYuIbb+De++5Dt27dsH7dOsydOxft2rcXwDZv2oS333kbEZGReP+990QRGD58OD7/fLb06LhxYzF16lQsX7FCft6gQQO8++674jIYOngoprw/BTExMejfvz9CgoPRs2cvNG7cCI88+igG9B+Avv364uFHHkZgQIAoE5d6kCAc25SOtGO6fBUEmQS0dnGN2LVOHE8+hFcmD4bTqsGUlz+ROuwL//c1jh85iTFDJyAiNFrSbVLTk5GWmoby0RVgMJxPYjiuSBBCqzpRsW6IcjFcaide4nUkCMmHLUjca4U9g+mJeaU4uoQg2WxL68T+05sw4pU+aFz1DowdPgkmTQaeea4/7mx2N558/FlodAYkn03A4cMHYDYb4e/rj+qVY1Aqooz77q6x6iEIDlEQwuATpHMrCIogXGJ35nuZlFemgrDfjKSD+SsIrkx6Bg8DRmcaZs6fjGV//IxBPZ9Hm3vbYcHSb7Bx0zo81rE3bmt8jxidTGMaTp+OhZ9vAMqWLg9fH+a35TyEIPieFYIQVsqHRTfVcRUQ8BCE/euSYI73uwBBcLkKWJwu9uxhvDb1BWSkn8W747+AxWbBV/PoBtdg5JCX4bQ5cfDQLhw9zu/ZAovZhjKlyuGW+s1QulT5HCqxS0HIQlhNLSrUCb1xFQTGAyxetBizPp+F96ZMQUydOjhy5Ag+/OADWSlx5b9502a8400QDh3CmNGjMWvWLPHbjRkzBhMnvgGj0YgRI0agfIUKmDZtmigKQwcPwfzvvkPtmNp48sknERwcjCd69kKjxo3Qq9cTeKLnE3hm+DN4oN0D0Ovzjjwv7PgjQTiz24IzeyzwkSBFLyORR5EbEoT4rFjMnD8J/23fgvHDJsFqcWL215+g3T0Pot09j8Kh0SI1Kwmr1v+Ovbt2o0/3gSgVVg6+Bu7v4Lq/SycALD4mCVKkguDUu/aYz70FaWHf5XqeVxxjEDjBG7n/wvYsWFNdm7/mPqSginSWiyCcdZxG32EPwl8TiPffnI31/67Fj4vm480Xp6BcmRrItKfgi2+m4/jR46hStTJ279qFejH1MaDHcPgbgrNTrjwEgTEI9W4rBa0fn+Mq4XwhGfN69nFxfbasHk0aJB+yIm6PCbp8gxRdb8hv0K4349sln2Duj7PR47F+aH7L7Zg7/2tEl6mAR9r2QFBgCGLPHMG2nRuwfPXvaBjTFI+064FSEYx4PzeOhFxS1vZLRY0W4QiWXf+KK5JFu92ymaJNj9M7jEg8xJ0b6RZwf1GedFavTCEa9KSsM/jmfx9jxdpf8NzA12ExW/DDwrno/fhTaNTgNhw9dgizvpwOH1+gYeNGOHz8ILZu/hcd7uqMno8OkhLrnoBk1six+xkRXkuHcrVDi/zGTVfNxZBNEGbNwuR3J6Nu3bo4fOgQPvzwIwkyrF69BjZu/AdvvvkmIkuVEhJBF8PYceMw+/PPZQJkDMLEiZNgNGbh2REjULZsWQlgXL16NYYMGoJ58+dJDMOApwZILAIJQpOmTfHEE72EIAx95mm0a98OBkPeKWWFHcpMc8w6qcHBf87C4AhAjs198yqTq3Ei3Z6CX/+ehy/nfoou7XrAmG5F/OkEPDtoDEICSiHdlIb1O5bj+yVfUX9E57a9UKlMDGKq3wQfvSuATWwOiyX5GaX6VvmaIWKAiuumTcWVIDhStDi+JR2mJCoInLlz+g29t16Rid4nA0NGd8HxU0cwcfxUfDr9M9zf6n480qEHtAYDNu5agfGvjcSEMZNR96aG+OmP7zFn7iy89+IsNKzdQjrdRQA1sOos0EUZUadFGdnMhxOW53eFHb/qvIIRkDoIrKJ4zJ3maHO5GHI7/jw9T4eBXW/F738vxBfffYTmTVsi1C8Sxw+dQsfWndHwpiY4kxiLv9b+D8dO78O23RvR8pbW6NFxkJTo9RAE3p/kUqqmhqSjetNwBIbq1J4MBXfZJZ0h06ddj8wTDhzZlCkVFKWf86lqS4OeZU/H8m1LMXXmRLRt2R5ZaVaEB5TBU32GQa/1wZmEOPy75W/UqFENVWvWwuY9f2PGJ2/ipsqNMWboW9Dr/LL3e2WtFISYUKq2D6KqBBX5ufyqEQS6GFatXIUp703BfffdhwceeACbNm3Cd/Pn455770VQYBCWLF6MpwY+JQRh5qefQq834KXxL2H257OREB+PF0aPwsyZM7FlyxYMGjgQ1atXx4wZM+Dn74/Bgwbhk48/QWZWFnr07CEf8ksvvoT2HTpIjEOf3n3Q5oE2ePzxx1GqVKnLClIkQXCe1WH36mRozbkIgtcmOtmVFBmRrMnEpgPL8dLEZ1G9fA0E6qLQ45F+uLXB7dBqDDiVeBxzlnyMP1YvQc0KMWhc5w5UKVMLd91xv0iR7nUKHFo7NGEWRNU2oFTFIPee8UU7sCW/L7e4EgQNCyVtSUfWaS3gyKfAkfulXVXxjHjnk9H4fcVS3H7r3TAlO/DSyDcQEVoWrKQ2+ePxWL7iN/z8zRpo9UE4dnYn+gzujP4dh6N/l+HZ8EkZXh+zFNCpfHM4nLJh17k9AS9phlQX5YmAbMZm1yAz1oHTO0ywZLrS3/KODKJBB2xaK3YcWY/P5r0Hs8mIQF047rilDdrd/QgC/YOQnJos9S+0ARbM+OJtVI6sjZ6dBiMqgrKzqxkegmDT2hFQ1oLy9YPgF6T1FhhUj11BBFwFsXRwpGqwZ1UKYGHsj2vjtbwPB8yaLPx3fD2eGz8QUaHhqBgVg2f6v4Qq5Wpw+zWXW9npgEbrhMmRjrXb/sScb2ahZeP78dTjz8l873JAQuqa+EbbUaaOP4IjuE3vFXy5q3Crq0YQ2FZmKsz99lusW79ejHv8mTMSb8D0Rf77008/FdDCQkNx4OBBNG/eHIMGDcL/li7F0qVL0bVbN4lT+G3ZMrRo0UICHRMSEtC9e3e0ad0aixcvxoKFC4UAULHYv28fevfug4cffhhvvPEGjh47iuHDhqF5ixaXFaRIxUln0uPwhkxkJjJ1VYbFue5wS1PndnN0wqI3Y0/sRgwb3Q+BhkA8dG8v9H5sMAx6X/FdkZX+uXER5sybhe4d+6JNqwfhA3/4+QRmuzDo76RBCSjvlNKcfiG6Is84LzRGiydBALQWHZL2WSRv2m7iZkt5uxlcjh8nLD5GLFr5BT7+fApC9BEYN/QNNLn5Tmh1vrAbTOg/ojMS48/gp69XweH0R4LlELr0boN2zbpi3LBJ2dXYWDyHGzZVujkIoeUMIke6dAV1XGkEJPTYroE1WYOEvVaknGawmYse5NXb/NYZjByXfhiffDMZa1atlHTm7g8PQPWKtSWIlIbDBjvSHQl444PnUTG8Gnp1HILSkeXkd56DLkm7zoby9XwRVkUHHWuxqU6+0l3sWXMJGdBZtDjydzoyEtjD5zbkOv+hDli1Juw5swXPju2H0IAw9Hl0GB6461HoNO4iS/Ld28E09yOxe7Bk2UKkJKfgiUcHom61xtnkg+SehD+0KlMcg6D1LfoLvatKEKgiJCYkiAJw8tQphIeHo1HDhqhUqRJMZjP27NmDnTt3insgMjJSUhhrVK8uJGDbf/9J5sKCBQsQGxuLu+++W4ITa9WqhXr16knWQkZmJjZv3iyui+iyZSVqtGrVqqhQvjyOHD2K//77Dw3q10fVatUuz83AvRhseqQdtuPojnTo7IwTOH+i9nQ3I2AtGiN2n9qEl19/HjHVb8bIJ19BmbCK7p0agRRTMpau/Bar1q3AqKdeRe2KN0lpV28mS3+z3d+MiBp6RNcIduXMFuOd/IojQaBFZuU1azy3es6AKZUrhvNVBFfxKnfMiC4TS9d+i9lfTMdD93RB70cGw9cnlDXc4PA1oufgjshMz8Tir/6Ew+GLBMtRdO7dBm1ufRgvj3jbPQY0Qg51UWbUuiUKugBXRLUiCFfHbvCuVAph0iLliBVx+81wWljRMK9PzqXkkMCdSj2E2XM/xMnDJ9G3yxA0b9RKZGd3zT6pW5FqT8CED55DxbAqeKLTENmHxRPsKEaDKmGgDdUaBcM/irv8uUsCX71XvaHvzE25tHYtMo7YcHxHBpx2vzxLJMv2XCx+h0xs3r8G73/wBu645R4MfGIkAgyh2ZUTJRXdacSxMwex7M+lOHnyBDo+8Cia1m8JA1wxZdT9mKKsDbGidG1fRFb0LRa7815VgiATJqmyu8gRV17ehWbEd+um0p7UH09gHn/OKopMZbRYLOJSKM16BrJHpufzcl3P9EdmKeROH5J7cOIuRM55QV+M7BOfzjiEdJjP6qDNpSJ4qqxxe2eu9JIyzmDZ2kVYu3Y1+j3+DJrWayXXyFavGgeOJxzB7AVTkZaejgkjpyBQHwKNCFYkCa7W2LQW+ETZEV0nCCFRBrlOEYSCeurK/14mFJMGZ/aYkHLCBofZXaM/+1FcPzjgcNpkC9cTiYfw8VfvwWA3YPiTo1A6vCKcGkauaOHwMWLQC91w8uQpLPl6OTQaf8SZDqJbv/boel9/DOs7WoiiyJH+mYiq7Yuy1ULgEPeCIghXvne97ij+aS2MCQ4JSDYm5l02l/3MbzHTmoE1m/7AyrV/oFmDO9CmZUcEB4R5paCybp8DZx0kCM+jQnhl9KaC4EUQSCAYhBxRyQflagW49mGQNLur+qY39s3pOmLlzEwNjv6bhswkFrLyDmRnmWUbjKZMaHw0OJ54FIt/noezScl4ut9zKF+6qmufDqdLR7ZrLIhNPoxf/lqEQwcPoUObzmhYtwk0Vg2CA1nJ1zXvOww2BJXXILp2IHyD3RuAFPGeuOoEoaD39xAE7/O8Df0vv/wi7oO77rpLMhWu28Etny2s4W1H7N4sphZI2U6PjkDx12jNwK592+AXrMeu/duxYs1faN2qEzrc9xgMTvq6XK0nk9x95D+8++l4REZG4fkBL8Oa6UBYSCmEBIW6Vx8OIMCCsGo6lKkeBC5KhCAUojzvdcOogAcXSwXBLQtwxWGJB2L3ZMGYIs5El2IgO/LZZTe/uKRj0Bs0+H3Fbzh69AiGPvEsala9GVqND8gcZG8FfRY++fYtLFg0H19++AOioipj+6H1GDthGF55egruaepKAXbobfArbUWVhhEwBLJ6potYKgXh6o5uuhWcRi1SD9uQcNAKu5nPc6tDNOY2I06eOYp0YzLik2Oxau1KVChXFZ3u74qykRW9sly4MNLA5rQh3nwSk6aPQ7nQ8nii42BUKF3FNR4YgKyzQx9qRuWbQmTHTpedUgTh6vayK/qbW3tnnXDg+M50OMy+7uwhYm9DmjEZf635FcGlgmXjteNHjqJX5yfRqG7zc5t4yQZtDpw1xuOXVQvwyx+LcXvTu3Bbk7uQlpwGu9GO25vdAx+fAFGbfEKdKF3TF+EVfFzqQTFQg687QShoIJjN8oWKi+BS9mUo6P4X83spx5qhRexOE9JibeKzZD6STPyw40TCAbz2zmiULhsOY7oZtzZuhYce6IkAfbDk22rcA4KZCPuObccHn78Ou8OGe1q0hcZskMHEyUYMj68VgWWBMtUD4Bemk9KrspufIggX02VX7lzWa7dopSZC0hELbJn0Mbv0Lta/WPzHt1i1/lcYfHSwmpzo3qkXmtx8B/S6AFGFpDQ4o9V1Fuw7vhGvvD0WdzVvjUYNm2LVmmU4FXsKE0ZNRURgNBxaG7TBFpSvG4TwspQiXX3v6n91XE0EJIjNrpVYhMT9FqSeYTErV2l3Gu7YpKNY9Ntc7D20Hb46H1QuXxPt7u+MquVjZCOvc7FJTtgcFpyIO4Y9p7bi+1++QrAhFB1aPYL6NW9BKe7+56OHM8CGsjX8EVnJAK2viwgWB8NxNfvgmtybrkOHBhqzFnF7spByDHDYuBsj6T73zdmLUa8+jYioCIQFRqLD/Q+jReN7YYBfjqgUuoEPxO7G9C/fxunEY6hSsQb8fQKRmnQWFctUw8C+I+DnHwRtgENUoqiqAdD5efq46Pd1kScILmtJIIuG5qazaWFJ1uDU7gyYEm1w2rnrm052/jqWuB9TP5mE8PAwNK7XAvfc1h7+fnQdcBfAc5M7CUJS+hms/PtXbN+5BaUjyqBhncZo2rgV9Nwk3GCHTyk7oqr5I0y2BJVtyIq9gSi2CoJ7xqKrwZmlQfyBLKSetLsCFkkONU4s+PkLbN25AcGBIWjdqj0a12kKg84f8GwZ7E5ZpQGwajOwdNmP2Ld/F0JDg2DJsuCu29ugQd1mUq5VE2hFRBU9oqsFS5lmV0U3RRCuieGQDTNdZNAYb0f8ITMykh0uxUjjxPG4Q/htxSIcO34QdWrUR8vmrVGxXHXosiXqc9+50ZKJjf+tw+4j25B49rSkyJYJK4v6tW9FTEwDBIQFIKS8FmVrBMAnUCNDRXq7aEx11wru6/YcmVYdWtjTNbKDZ3o89wfivkA2xCYex/dLvkZoWDia1r8N9Wo2kmyE3Ns5Mw0yNukElq/9FWZbhri0xVw5tahSqTZua34XdAFahJbTIapaAPyCvQPNFUG4Yp3v2deBgYoMarwS2zhfSuPIMDVWPYwJTsTtZ268VlYcVBGM1iycPnMCAQFBiAyLgl425MkZzuhac5Kl2mE0ZyItNVUyLEKDQ6HVaeHUO2EId6JUVT9ElPWF1uCJbij+kc3FnSBwvFA1sqVpEX/QhLTTVjgsrmj15JREZGalITg4HKGBofg/e9cBH0W19f8z29J7CCEJvYQmVarvUxARpEtT6Uq3vCcgir5nww52xd5QkCKKdAREkI6CSFW6tIT0tn1nvt+5s5NsQspudjdld+b38T1kZ24559x7//d/zz1Hxdv9FBwPk+0RVynzo1WwITMjDSZzAcJDIhAaFilFVQuyIiJRi3pNgqEmL2eacNgxhuK4VpnxWqlviC0iusfEoSDViuvnjTBkiRBtHMwWM7JyMiAINkSERSFQFwyeEieUQu6w1O+GPBjMhsI03UQQBAQFQBuqRUR8AOo2DYQuTPKEFCncusISVUpllflITphJ87c1k0fKKQKDZtjMHAuBTj4Iaq0OWpWO6ZgFqCtNz6IAq80iNYGBO/tRsBpQB/MIiVcjuoEOgRFq5oBahAAVgFCh3sgHgcm0BENQ6Lxo/y0vNxdr1qxlgZG6dutaCBAcvy8GGsh5kRXrYThO7RV58BYeBaki0s+ZYci0QLRQXoWiXb5Ua9l1yzsFqY12/wKNFQFRHCLqaxERFwCVlkFciUSx70ArFGgNfsEnAAK7u6aCOZtD5j9G5KUIsBrAFg95hqjI4iTMQEqXZhvmwKSyQB0qsh1lXKNQaHTyObQdICgLRxVatuScyI4UTTzyU63IuGhiIEGwSIBQfshDvUJ921kBBvJ4AVygFcF1VajTMAiB4TxLzMScrZUUz1WoY4eEmXT8Sz5G2SLSLhpQkAJYC6R5ng1TB22X30D79o+inapE8MECQuuqENUgALpwYg6KfNakcvwZIIgi9Ho989KPiopiVxQpOU1ubi7zJQgNCUF2djbSMzLYf8fGxCA8IoIt6BRameIk5OXnIywsjP32119/4YUXXkSPHj0wZcpkBAYFseuQWZmZ0Gi17EokOTHStwX5+cjPz2eJk5KSkhAUJAce8pD90fkVi2LDw5gBZF02ouC6CKuBkKeTDKGdMmaThlqAKkhAUBSPqIRABMeo2W6SXdiQoIECEDykOneLYXO45LoMWwGP3KsW5F0TYMwVYLXQpFJWaJ0ba2YTD8U20FkREMkhIl6HyAQtVCwlRxFjILEHiv+Bu7pz9nu26NuZHwYSzBz06QKyL1tQkGmFxUA3p+i8uiJoUFQjczDVWqAJFRFSR42opEDoQmlHKW8AFB07qx9PvSfhMbY7k6LWioBFLyD3Hxvyr9lgygcYMSAjwjKDKdmXeynaFjgdOSTyCK2rRni8Tjo+KnX8+jFAIER86tQpbN++Hbfccgvatm2LCxcusDDJiYmJSEhIYDkVrl27xs5tGjdpwmIdREVGYu/evewPLfYUHKlnz54sDDNlaKRy5syZDXJe/GXHDmRmZDBQ0bJlS5YUimImUJ2pqaksBwMlciLWwfNMggQEeEEFmx7ITbGh4LoVhiwbBBMPSt4mMsBYeHFTcmqT5xSyTrUNfIAIbRiH4FgVwmJ10AXzDNqyz9i7doDg/FzkqfHj8XJ8gUFwUAno6istHoYMEbmpFhRk2WDWiyxBF+me9F2otpL6UwngNDZoQjjoooHI+EAE025SU3SJ13H9UQCCx82x3AILAQJpkJzZrIAlX0TedSvy0m0w5YkQjIBolUeoRPFJobLsYI5NECI4NaAJBHSRAsLitAiJ1UBFWVnZBrXI8VjRcVXr2A4QHG8c0i0WM2DKAnJSrTBm2GA1iLCQnq0yoCi6Zi+dIItsQ0fAXh0iQBfNISw2AEHhajaey2QKagHo96qT4uHDh/H222+zFM///s9/sHHjRixZsgSDBw9GWtp1bN/+C1v8jUYjTpw4gTvvvJOle/7888+h1WrQsUNHFuwoMSmJAYfFi79G586dMG7cOCxfsRxpaekslXNmZiYOHDjAkjbRUcRbb7+FFi2SWb1jxo5lLILHAYLdlqWLBbw0gRQA+jQLjDmAyQCYjDYINhGiVWBXNSlJlUqjhlrDQ621G1MEEBSphjZEA57lgXLcKdZ8hOnKkPYFgFDYX7svGUvyY+NhMwKGLAH6bBvMeYDZYIPFLDk92aw2ltJbo1FBpVJBrVFBHWiFNsLGbqgERUq+JowxcgASxTgDHwCIrthKtb9buMbbDwsJrdERopmDOZ90bYMxR4A5X4DFbIPVJjI9i6LAGFHKN0MuSDwBg1AVgiM0CIpQQR1E96VldkhWqgOgqPaO+1kDShO93ddAMIgw53Aw5YgwFAgwG0RYLQJoHqPNK/mOaXUaqDQ8VIEiAsJ4BISroA3hGAAsOt2uvfO4VwFCRkYGS7z0559/4plnn8XqH37A8ePHWajkzz7/DHq9AaNGjYJeX4D16zegadOmqFOnDvbt28tCLve5vQ/+PHoUWVlZCAwIwKL3F6HPHXegWbOmeG3BAtx9990YOXIkDHo9Hnr4YbRo3pyFcl66dAnLy0CxE+goggastwCCPJxYalC2WEgIlHaSJqMVZpMNBXl6XLhwkUWSTEioB61OBU2Ait1vZ+E2SywMxQK11+JrjSWnGp8CCA6dk26mkbMqx3YZ5JNg0Aswm61sQqGQ3wUFBWjVsgV0ugBodWqoA0Wog0WWX4H5prEjJwUF1NTlqZBRkFIvAjbAZhLZODebBFgsNly5cgV5eXmoG1cXkZHhUAfw0ATy0AbxUGmJLqC77+Rboui5purZsV3yuBZtAMW/MxsBs9kCWtdojWrdug0aN24EjVbN4tQQg8DRYL5hzlYAQqn6pl3z5s2b8dmnn6JLly44c+YMkpOT0bFTJ5YrwWa1sjwJ5DFKRw03tWvHwMDFCxcwZ84ctO/QgQ042Sfh1Vdfwx133IHIqEiWxGnG9BksW6MoiHjwwZnQ6nSoV68etm7Zgvnz57Oyq/xhTpeSk5Mo0lGDiPPnzuH9RYvQpk0bjB8/Hiq1yu6YKB8hlGhlLaCeKiNXXwUIhUQlmwekyV8gqpL8Ga1WlrAsJeUann/+eeZ7w/P22/L22wneBq+V0ZXyzY0SKPQ5KKR2pGBINJitNhu+++47/PHHH7j77uHo1KmjPYqrfG3RvnAo2KAWmZZ8/EPskZTDl8Yzhfd/7rnnMGjgQJZXiFjBEpeVimOEWjyfe5VBIEsg58JF77+PHTt2oEVyMh577DFo1Gq89tprbGdPPgIEJCjTI6VzzsnJwY6dO1nK5l69erOjgyuXL7PfvvzqK3YkQUcHb771Fu7qfxeGjxjOdmezZs1iKaXJIXLTpk147tln0aVr12owRgdiWAQDN2vXrcOjjz6Kjh074sOPPkS9+HpeZzSqoeMVVunLAKFY5+3rBv3b+fPnMHTIUKSlp2H16h/RqVMnNqEo60SF5lIzX3A897Erkf6J2AMCgDT3zJ37GCaMn4AQh8ivir5rpjpdaRXpmdiD999/DwsXvs4c5ikLcYMGDVwppla963WAQIv3smXL8OKLL2Lo0KGMOSCfg6VLl2LXr7+ia7dujEkgh0ZyZiRnw2+++YYJsU3bNjh06DDq1q2Lvn374ssvvoTVZmXpnLdswu/34QAAIABJREFU2cJuOhDrQD4Ihw8dwqT770d+Xh5WrVqFJ598Cp06d6pWZZCj5vnz5zF37lysXbMGCQmJ+O9/n8KEiRPZIuFvj98ABLtiKXbHKy+/jFdeeZXZ/OQpk/HG66+zdOXK4zsSILumpHKvvvIKS0DX/6678PT//ocOHTv65UbAdzRbvCekZ9rIkq8bZQ6uVy8BTzzxOKZOnQreR+dzrwMEWiQpY+OGDevRsWMn9OnTh935PXv2LLZu3YrLly8zLZAjIf2WlJiI/fv3Y9euXeyqYmhYGHr37s2AA+Vl+PPIEQwZMgRanRa//LKDXXWk8ohVoO+vpaTg4MGDuLPvnajfoH612iqxB9TmmTNnIisrEzptAO7sdyfzpagTV6da21YdlfsbQKBbO5R6/MTxEyCwEFc3jjnq0lGTcqxQHRbonTppDnth/nzmgG00mhAdE80o6LFjx7JbWMrjGxKga/nkQP/iCy+wo2/ybxs4YADeevttlonYFx+vAwQSGmVjpJgI5PVJKZnpoUWd2AXyOaC/R0ZEMEqOJk5aSOjfCwryERoSioiICHZun59fwOIoUGyEoKBApqSsrGx2ZEHOiVQ+fUu7NYp9QPkbqvOh9q1Zs4YZ1Z49exATE4PRo0dj+rRpaNqsWXU2rVrq9jeAQGeV77zzDn744QfGktE13H8/8gh69e5d7XlFqsUAfLTSUydPYsnSpVixYgUuXbqEtm3aYvqM6WwjQ0eeyuMbEqDj77Vr12DdunVYu2YdmrdoztgEcpanI3BffKoEIMiCK5m5scQlH/ZaaT6g8vcEHkpGWJTBhqNyasrujAJD0dkkxX54+KGHcHOXLmzBIEdKAj3+9vgbQEhPT8e1q1cxYMAAFBTosXr1D2jSpAnTf03JLeJvNuiN/tLCceXyFbz88svYtGkjZs+ejXvvu48Fb5M3RN6oVymzaiVAvnIUGp+Y72nTpmPgoIHsGj+F/q/uzai3JFGlAMFbnajJ5ZJRHdi/H/3798ftt/fByu9WMpakpoCYqpSdvwEEkq1gE9i13Py8fPx9+jTCIyidt/L4lARECqRjxdzH5jJ/qzfffAP33HtvjUoy51PyrsbO0KaPAvzdd+99zEH+o48+8um5XAEIXjY2Onsmn4p+/frhjj53MGcmokkUgLCZXXn1dTlQ8JymzZpCn6/HX3//xWJhOMRh87L1KcVXlQToGJUAwooVy/HGm2/innvuqaqqlXqqUAIWs1kCCPeNwYiRI/Dhhx/69BymAAQvG5cMEPr3689iONA5pQIQxmLzFv8BCE2aNoFBb2BXfiMi/e9oyctDrEYUXwQQVuBNO0BQgGCNUI1HG0F63v7zz+wIadTIkfjww4+cTL7j0WZUWWEKQPCyqB0ZhL539FUAwu49GDPGnwCClfkdGA0m/PXXKYQrAMHLI656ipcBAjGEdMQwevQ9ClNUParwaq3siGHrNgYQRo8ehQ8++FABCF6VuI8XzgDCPjpiuJPlmli+XGEQ/Asg2NC4SWOYTWacOnWSZSxVHt+TgAQQHmPRFN94gwDCaB8Kku57+qpsjwggbNu6lW1yRt8zGosWLapsUbXiO4VB8LKaJICwD3fe2Y/5ISxfvlw5YvArBsHG4rVbLFacOHnCL2+veHmI1YjiCSBQlNhV332H1+0AoUY0TGmERyVAAGHrlq0sYeA994zGe++/79Hya1phCkDwskYcAQLdZCAvZ8UHwZ+OGGxo1KghbDaBAYTwcOUWg5eHXLUUzwDCnMewapUCEKpFAVVUKQEEiuI7ftx43HvfvXj33XerqObqqUYBCF6WOwGEfXv3oX//fuyq49Jvv/XbIDn+eM2RbjE0aNiAsjfhxMmTCAsP87LFKcVXhwTMJhNjEL7//nvGIFCWWuXxPQkQECQGgZLujRk7hsVB8OVHAQhe1q4EEPaiX//+LGAOhWOlJFXsoXR/fpT61S8BgsWKBo0asKx/J06cUACCl8dbdRRPwd2MdoCwevVqlm9jxMiR1dEUpU4vS4AAwpaftmDChAkYawcIjvm7vFx9lRevAAQvi5wAwt69exl7oAAEK/b62y0GBhAasvTfdMRAuUWUx7ckcCNAeIPdkVce35MAAYSffvoJEydMxLhxY1kehpIRgn2p1wpA8LI2GUDYs4cBhIGDBmHJN9+AUxgE/4mDYLGifsMG4DmeMQihYaFetjil+OqQgIkYhDlzsPrHH/HG6wpAqA4dVEWdDCBs/ollFJ4wYTy7saIwCFUheR+tQwYIdMQwePDgwlTWvh5BsDR1+usRQ1KD+lDzapw4eZwlJFMe35MAAYQ5c+aw5Gyv0xHDCIVB8D0tA6RnAgiTJk3CxIkTmK4VgOCLmq6iPjkCBMru9s033zBKSgEI/hFJ0UoMQv36UKvVOHFCAQhVNOyqvBqT0cgAwtp169iiMXz48Cpvg1Kh9yVAAGHz5s24//77GUhYuGCBAhC8L3bfrYEAwp7de3DXXXdhyNAh+Prrr323sxX0zB8ZBAYQkpKg0WgZgxAcEuK3+vfZjosic1KcM3sO1q9fh4UKQPBZVRNA2LRpEyY/MBn3P3A/Xn31VZ/tK3VM8UHwsnoZQNizB3f1uwtD7x6Krxd/7bchWP0TIFiQlFQfOq0Ox08eR1BQkF+yR14eZtVaPDGC7IjBDhCIQbhbYRCqVSfeqlwGCFMemIwHJj+Al195xVtV1YhyFYDgZTUUMgj9JYCwePFiL9dYc4v3R4BAgVWSEpMQoAtQAELNNU23WuYIEDZu3IiFry/EsGHD3CpT+bhmSoABhI0bMWXyVEyeOhkvvfRSzWyoh1qlAAQPCbKsYiSAsBt39R+Au4cPw1dffeXTZ1blidNfAUJiQiKCg4Jx9PhRhUHw8nirruKN5IMwew5++mkzFixcCPI3Uh7fkwABBAKBU6dMxZSpU/DSiy/69HyuAAQv2zABhN27dmPggIEMIHz51VcsQJIve76WJVJ/BQgJ9RIQGhKCP48pAMHLw63aipcAwmwWhpcAAt1YUh7fkwADCBs2YtrUaZgybQpefOEFn57LFYDgZRsWbDbs3k0AYRCGjxiOL774QvFB8KNkTXTEwABCaCj+PPongoODvWxxSvHVIQEZIPxEAGHBAoVBqA4lVEGdDCCs34Bp06Zj6vSpmD9/fhXUWn1VKADBy7JnAIEYhIGDMHzkcHzxuQIQ/CndMwMI8QkICwtjACEoOMjLFqcUXx0SKAQIP/2kHDFUhwKqqE4CCBvWb8D06dMxffo0PPf881VUc/VUowAEL8u9NIAgiIJferL74xGD1WJBvfgEhIeH4QgBhCAFIHh5yFVL8QaDQTpi2LpVYRCqRQNVU6kMEGZMn4HpM6fj2WefrZqKq6kWvwIIZcXM9mbQIpudQRg0cBBGjBqBzz/7HApAqO50z+QBUpoXCEXVpz+Oj/xeyfftCbcqGLiFACEiHEf+PFwNAKG0PnlithHBQbCLUWWXm0g5qfzykQHC1m3bGECoCh+EsvyY/FQFVWJ3EkBYjxkzZmLGzBl45umnfTrhnm8DBHu2RBa5kMyHMifSv1XhY2NOirswaOBgjBw9Ep99+inIcdGboMSp7lVDFslqYxAcs2ayv5cFEGjRLzG9lvW+6BxAsFis7IghIioCfxz5vZoAgnNtdcpu2EuSky1nH0v0vyLHV+9E6cq4Lmn7rnzrICR5JiGL0TMGYQ5+/vlnLFi4AIMGDnRenJV4k1lwGUiAvwHkVqKCkjCZdOwQAbZa5i/ZudvBybusdlQmgZIzfSKAsH79ejw440HMfHAG/vu//1VauM7UV7Lwkv2iMipTjrON9hGA4Ljoc8yQaWE2m03Iz8uFXm9gizKbB6T/V0I+nNc8UYlBOHjwAGZOn4k7+9+JV1hgDZpg7aPbcZYp1ipSfPGmFt194KR1jH1rL6BkOfSKQzfpdUozrdFqERYahsCgIKhUKq8aV0kjrCqAQLqms/+CggL2h/4uDyxJhuUwCI6zLlNROQxCuVs46UeD0Yjb/nUbQkJDsH79WgQEBDg7Nj3yHps8OJ7pWaPWICQ4mDlKqjWaorTjLtZEMlQJVuRd+RsFKedgsgmIatoeQdGJ4DhiE6rmIZ2KNM6tFuTk5MBg0MNmtZWyCSixksoAoXChuVGRpa+9xf/V8Su9vgCvvPwK9u3bh8efeBy9e/dmQuCZ/B3l4SqjU5b9cRBLA/miyPQcoNMhPCICWq220nqWW52dnY0jf/yBlNQUREVFoUuXrsynxpsLk1w30zFENpdfv34dly9fRl5eHixWa+kkoKOoXd0LOkG9EEDYt3cvPvv0c/S7qx/uvfeeMoydZnh5xi5N5/b5nX3tRMXsPbFYn3mVijk/x8XFoW5cXTauaY73pF58CCAQwpWEnZGdgX0H9uHAwX1IS0uBzWqFKJSX/8BVS3J+AiQDz87OwV9//Y06cXXQuFEjpkBBXqTYVqyovMJ13/5v8iJfrIWO9lRy/ij2m1SazJ5wZLIiEBQUgpYtW+O2/+uFBg0aQKfVgoOnd5k3yshbAIETpaFIRzd6owGn/j6FXXt34uy502zRKMJRJIsSqMuhmZIoiw9W6b9Ktw82/Ev5SapDegioHvrtd2i1Gtx0U1vwfNUtoEXdkVvEQafRISExCT269UT7dh1Y8ijSvbNTlNQrEbzVhNxju3B8y5e4mJmJrvfORv02/wLHa50fHJV8kxgLQQSycjKxZ98e7Du4B6mpqSRtNimXvrUuTYfl9brkb2WBSslmrFYbLly8gLzcPDRs1BCRkZHSjrtUyRKL5ULnS6MKiAwtwy4F+2YgJroOurTvgt69bndY0OUJx/kG0MK8+Kuv8Nlnn6FLly4semB8fLxHF6IbpUHzuQCD2Yg/j/2Jn7Zswj+XLhDWRWBQIHi1ShrJMvtTghV03BwVL7tonmOScABZkoWQ9MpeDwRBBIHBzIxMJtOIyMhSWekbt6AlelgoflKks7ooXipthIwmM4wFFsRF1cWdffuh681dEBIS6jHd+BBAEGATBRz68zC+XbUE6TnX0bBJEuLiYxAcEsiS5TA0X9p876x+XBjTjq+SIolJoDTPbNdeSNLSPOG4BFUGqJQ+BRV204E+pUFD3tbp1zNx+tQ5WAqAAX2HoE+vPoiIiCxjMqtkp0v5zFsAgfVVFHA55Qp+3Lgae3/bjZi4CDRsmoTwiHBoNOrCASNNCKVPAhKQkCdQuy6IwivRl0JgwNaMcnafbOPAwWajs3oRGpXatYXBTdHLTZPbS/LPzcnDhQsXkXo5A22bdsTdg0ehSeMmzu8yRYAn0ClYIKT/hb1fv4gzqdfxf5OeQVLLnuA4tZutLv9zkrZgs+Dk38fx/kfvIteQgxZtmyKuXhyCgnRQqbw8mMtpHo1zBhe8TPvKTRDK6CqxKAX6Aly7fB1njp5DVHAsHpgwFe3btXMAqM5vCMhu1q1di5kzZ6JXr1745JNPEOTl67pks7kF2ViyfDH2HtiFpMaJaNq8AcKjQqEN0DiMI3mcOjl3OizG0lzg+J285y+/LHk8MXKIHVvbl5Ub2EdZUyW3Hg5zvpPNvoEV4Di26SUmJSerAOdPXsLp4+fRtUN3jB55L2MUPMEk+AxAEGDDjt3b8cW3n6Nuwxh06NwG0bGR0OhU4FXyDqn6Jo8iQ7QbRxlNKRv5emLelVC51WKDPt+EMyf/we7N+9H/9sG4e8hwtuvx5uMtgCBCwPl/zmPxiq9w9srfuOW2LkhqEA9dsBa82n42Xkze5e0GnZeAq7pieMH54t1603HeKfy7IMJmFRhITL2SgUM7jyJQDMOEsfejTZu2ztVnp2PoiEFIOYpfv3kZ+oBQdBr+b0QltAYgMSSemJyKN0jqhVUU8fsfB/DCa0/jpptbo1O3mxAWQUcmavAEDkr1rblxr102rJagdYVuCYUnB6VpVJa497TNLLjMOURkR6pmkwW5mQU4evAE/tx/AnMeeQK39PiXXazOAwTa3Kz58UfMfPBBjBkzBq+9+irb7Hhex1LTBFFkzMEHn7yDY6cP4eZb2qNpckPogrTSXF6s6a7IuKJx78wIlXXr5Mpe7qhypr4bC5C+ksAM2algE2A2WnH1Yjp+Wr0drZu0w6Rx9zOWx90Zp/YDBPsZ1bG/juH1RQuQ1DwWXW/pgLDwEGZMZTukOTcfeuut0gY4U7wn7M6ZRouASS/gwqkr2PDdNky6dzJu790HgYGBznxdqXe8ARCIYszITsfSVd/g4LG96DekDxLqx0JFwIAn5znvCLQypboylVVKwGV8VNhWu38mO46xAtnXcrFz436E62Ix9YGpqFevnn1CKb+lVJ5KMKPg6Bb8uuo91G3fEy3+bxQEBMAi2BAcHg2Vjq5zyrcbPNEbgS0cV65fxf0zxuHWfj3Q5ZYOCAzWgrPTy7RgVkYvnmhdtZRRBjaRlx0GcgQe+jwDftv1J/Zt/R3vvvkBGtRvYGcLnVug8vPzWZK5d999F0/Me4Ld0MjMzGRzRUxMDGNnPQUW5CV82aol2PzrBnTv1RHNWjeERktzuV3K1TWQqkXJpVRawshlLdosIq5fyMSyz1dj+IDRGDRwCEJDw9xqda0HCCQco8WI/734X1g1Bbi1XzdExYZJ6NrfDamkadiPPgvFIvIQLMCBHUdwbN9pPDH7KSS3SHbLoMr72NMAQXJGtWLz1g1YsX4pevbpiuQ2TcEzllsCB94CCF4TUlUUzIACB9g4XDqTgl837sfNN/XAxPETwDPhVTRwRKhs+Tiz4WMc+WUV2t3WD2pRh6tnTiLHWID4Ln3RtPtgBAbH0mm4h3okwGwx478v/BcpeRcxYdq9CAhSS2fQMkAoZ1ftoUbUvmJEDpyNgz7XhJ9X70J+ugXvvPUuVLx8Y6ciXQP//PMPFry2AIcPHWbhhY8cOYI/jxxBVHQ0Jk6ciP79+3sIIEhMT2radTzx3Bw0aZeArrd2QkCgFuCk4xvlKSGBEnM6Z1Hj+IEz2LbuVzz1+DNo2+Ymt3RT6wECTRBHjv2Btz99A11ua4M2HVpAVLnoBOQvVlcSILB+8zAXiHjjufcxYfhk3NV/oNfCAXsaIFDr09LT8PXyz3H66gncd/9I8Bq2P2Y9UwBC2YZNAIETOAgWEVt+3AFjhoiZUx5Co0ZNygcIoggeAnhLJn7/+gVc/H0rAuLrIy6hFaKDA3Dq9+1IC47C7Q+8hDqJbRy2fBUvROUPQwHX0q6i5x098MbHLyA2npwA7YuGAhDKF50dJFy/kI3Xn3kPn3+yGMnNWzjFFlHBv/32Gx555BGkXEtB9x7dGdNErMLKlSsxdswYLFy4kN2Kcf+Rbix8u2Ipdv3xC3r07YT6jetJeLXMq8nu11qrSygJEAQeokGDV59+CxPvmcKSBAYGVj44W60HCKTcN999E6kFl9CjT3tE1QmDQMbk7nxUq62mnMY70FPSuCNeVoWfvvsFvD4IU++fjnoJCV7pvTcAwm+/H8TyNd+gYZt4tO/aCgJnK04zK3ZQqi4ZQLD/OXfiIv749RRu69GXxesod/AQQBBt4HMuYP8Xz+Ds8X2I69Yf7W4fi8hgDXZ8+gzO5efhzmmvI75+O3DswJiUwLO4CRKjcyOrUJEjtyDasHrd9/h46Tt48uU5AG0CCge5w+5S0XfpY1fkYM6xYPXizWjZuAMenP5Qud76ciG0AaMEVOPHjWNXdKdOm4apU6di29ZtePiRh1la6/feew8aDwEE0vOjjz+C6Aah6NGnM7RB9lsxCkAoe052nNNFQC1osWHZNoSoYjBxwgOIqxNX6fm81gMEOvt6+NGHULdpJLr3aQ91oMo+CfnVaaTrBlCIPDlAUOHqqXSsXboZT817BsnJLV0vz4kvPA0QyFFnw8b1WLVxGQaPuQNR8aF21sCJxvj5KzI4IDEYMs3YtOIXNKvfCjOmP1juOT4t8rxggfnsPuxb9jJS9AXodu9jSEruDj7rMrZ+/F9kaANx29hnEBOfbN/82SBYDTCZDeBUPNTaEKjUtKuRwEJ5DneymshRbt4zc6GOsaLfcIox4AAQFPq5YmsmcRl5nNh7Fvt2/InFny2GYGfayvuY7v1/t3Ilpk+fgTv73Yl33nkHdePisGz5cvznP//BxIkT8OqrrxWjsSnuCOmLQAPd2nL+oSNDGyZMGYu2PZuiW++bURhWQwEITomRxKQWNDj9+z/YtfV3PD7nSXZLqbKPTwCE+6dOQvPODdCjTwdALe9SFIBQrlE4AgSRhzmdw4L/vY1XX1qIm9q1r6w9lfudNwDCiu+W4/uNyzF19jhoQuRjBa8036cKdQQIMKiw6ov1iI9qgLlzH6+QQVBZC5C641sc2PQ56nTuhTZ9JyAkNA55x3Zi+4o3EdHh/9Cu72SEhNUFJ1qAzMs4ums9MtOvw2I2Iq55C7TsMQjqINrZqJ0CCOSVf+/EUeg1rDtadW6qAARXrVEEVGY1Lh1Pw1cfrcTm9ZudAghpaWn4YNEHWLx4MebOfQxTpkxFXn4ePv3kU3z44YeYM2c2YxXoobwz165dw6bNm6EvKMDgIUNYnBXnH5EBi3EP3IcOt7VEt96dinyIFIDglBglgKBG5gU9lnyyCs/873m0cMOvrBYDBAkAUJCXCZPHo2X3JoxBIM915bzKKVsqdPnmyVkxV4MX5r6OhS+/gZvatXOyANde8wZAWLZ8Gb7fvBwPzpsITmeFFAFZ4Zmd0oz9iEFl1mLFJ2tQJyIRT857slz5MQbBlIlT372JP37bhPajHkHTmwdBzanw148f4vedq3Dzvf9Gg479oVaHsHcPr3wPV66cRdc+fSGkp2D7zi1oO2ASmt88BGptqJMAwYahowbj7gfuQuM2iYrTmlMKdniJAIJFg2unsvHhm1/h5y3bnAIIJ0+cwLx585Cdk4MPPvgALZOTcfbsWRYR9ty583jl1VfQuVMnFOj12LlzJ1YsX459+/bjpnY34emnn0abNrIfijMNFhnIGHP/GHTonYzuvTtCVNghZwRX9I5IUU41yLlkxOfvLcX8Z15Cy5aVZ4R9AiCMnzwOrXo2RvfbO0rgQEGbLhkVJ/IQczSY/9hCLHzlDbSrRQzCshXLsGrzMjz0xCRwAVb73XAFIDhrAKT7QoAQ7iRAyL+K/V89i1Pnj+NfE/6Lhm1uBW8x4eCnz+LUqQPoNe1ZxDftChWvhTX1JNZ+8jwa9LgDbXoOhdaai7UL5kIfHYsBk19FcFic8wBh5CCMmDoIDVvGSxsB5XFeAnaAkPp3Dha9/qXTAIFS1U+YOAE3tW2LxV9/jZCQEPz666+YPWsWmjVthnfefQehYWG4dOkSft25kzEA+/ftR2ZWFp57/jm0bk2xMZx97ABhkgQQurH5XLm94Kz06D1y8iQGIfuSEV+8+60CEIhBkABCQ3S/vZMdIEiiUh7nJMBCFRNAmEMA4U20a197jhgUgOCcjst8S+ShlhkEpwCCAPHKMexZ8iJSBAt63DMX9Rq2A2fIxY5Fj+Pq1VPoNWIyLqdb0KhtFyDlLLb+8AE63TMTDdveAY3VhF/fn42/0lMxYu7nCItMZMHAK3RSFGwYOnIQRk4bhAbJCkBwWesyQDidjUULnWMQaLHfuGEDJkyYiOEjhuOjjz5i8RPWrl2L6dOn4dZbb8OYMfchJSUFd/Tty3wTKAjXm2+8iaPHjrkFENr3blG04XO5s/77gQIQCnVfdMSgAAT3BoQCENyTX63+2mWAYEPGkW04uPZjBDdtiXZ9JyI8MhGcOQ/7Pv8vrhzdgcCoeghu0Q0d7hiNghP78cvGL9Fj/GNIatULKqsFhz6Zh33n/8boJ79AZHQjpwHCkJEDMWraYDRoSVfflJ2lS3bHAIIKqWeysWjB104xCJTobNmyZXjppZfw4IMPYvas2WyHum3bNsYgZGRmokXz5hg0aBAmT5nCMpUa9HosWLAQR48exXPPPYvWlTlimDQG7W9vwY4Yqi5ynEvSrLEvKwChTIDQyOGIQWEQXLHgWg0Qln+LVZuX46F5yhGDKzovGkauMQi8aIUx8ypSL59GWEwdhMc1Aq8KACeakX/pL1w9exyawBDEN2uLwLAopO5ahe0bvkC3cY8hsVUvqG1mHPrkSRy4cBoj532KyOjGlPrJKQZBAQiV0rD0EQEEqwqppzOxaMESpwAC3UYgfwP606FDBynSpigiv6CAxUY4fvw4brrpJuaDQNlh6UqkQW/AggULGEB4lgBC69YuBOopOmJQAELldK0AhNIAwpQxaNWDfBCUI4bKmBUBBHJSlI8Y2tciH4Rvl3/LnBQVgFAZzdPC4RpAICdFiJQ1UWBpD2hxl2McUBIsKbse+QERGW1B7pHN2PTtW2g7ZBqadroLWsGIX975Dy4ZTBjy6NsICa+vMAiVVJ1Ln1UCIJRXPt0qYdkqSySmUgCCS1rx+MsKQFAAgseNirZvogIQPC/X2lCiiwCBukQggaVVLhYcnxLH2NMbMydhOgKghE4nsWnRf6Fr3BLd75yAQIseP3z4X8S3vw0dB02DLjDK7qRYfkhmQbBh8IgBGD19iOKDUBm7KgkQtm5j6dGdelg46wryc1DYc6sVGRkZeOONN3Hs2DE89dST6NSpE4uHwFNo5wrKIGDJbjEoRwxOqaW0lxSAoACEShtPmR/WZoCwws4gKLcYKmcXlQAIjhURFrjRwVCUQARdibTk4PyWJTi2fzOSmjaEIScHqSYBt947G2H1kgGOIuXREUMFAMFmw6ARA3DPDAUgVErR7gAEJyqkgEoHDx7EDz/8gF27diErKws9evTAkMGDccu//oXYWMrLUdGjAISKJFTR7wpAUABCRTbi+u+1GCAotxhcV3exL9wECKXXbgcIjG2wAsZsZJ49huzrlyHqAlC3WVsERUYjP78AQSHRENVB4KQMW3bm4cZMa7SzVACCG7p4x1zwAAAgAElEQVT2MkCgGCen//4bx0+cKDx6oNYmJSWhVatWCA0NdaLxCkBwQkjlvqIABAUguGtDN36vAATPy7S2lOhlgEC0MWMZ6CBBlPwW2NFEQSq2r3gfLTv0REyL7uADouwpGigSqqPwJGZBAQhuGpSXAQJrHeXaKKWZksqdiU2iAAQ3tazEQSgSoMM1R8VJ0T27qs0AQbnF4KbuXXNSdK6yIgah+PuSAyMdfavyLmHNi+NhtFjQqt94NL55ALRhdQGVGuAdFxMFIDgn8wreKgYQvsHPW3923gfBjQZQXITc3FxoNRoWZEmlVpdzq0EBCG6IWsJoSqAkWYQKQHDXmIrImNrrpLhMAQjumQFjEDRY8cla1HEiUJJzlVHGx9L2kg4AIfcfbH32HuRnXIA+MAIJPfujVe/7EF43GTwl1eBkN0hHgHAX7pkxVHFSdE4JN2CzomuOVQcQTp08ySIw0q2HQQMHIjk5GWHh4VCXChQUgFAZ1Tp+owCEolWN/Y3SyY5/YKwUapkCa7BcDBKWUh4nJaAwCE4KyjdfU5soF4MMEJ6SjgDoOKBwCNmvLrrQfXYd8oaHpi87g5D7D35+7j4Y085A4AGjSofgFp2RPHgi6ja+FZrgKJa2XSUl12AhfIeMHIBR04eiYWEkRWdoaxca7cuvihxUViD1TI4UKOmn7fZcDK7Pk9JV1tIfuvbo+LCASc8+h/Xr16NR40YYOHAg+0M5HcLDI6DWqMHTN+w7BSC4a4IKQCgVIFCo5UYKQKisdSkAobKS84nvWKjlj4sYBE6wwZafAas+1+FcmSZxuqrmXJcpTkJpDzulFgBN3mXsevtRmDLOszIF8DDzWvAx8Wg8YBIadR6CgIhEwO68WAgQZgxFoxZ1laRczqmh6C1iiqwiAwjvL/gGP//0MwTYGPCiYwDmPyD/Ye4E5QAHh/eKpmPJ/6CkeZw4cYKlg964YSP7UaVWoWHDhrjrrrtYBMbWrVohIiICGq2WYQTlmqOrii3+vgIQFIDgngWVOmsrRwyeF2rtKbEYQHhiHnhTDi7s/A5XD22HWrQVzvqOhIK0EBS/Hy/97uh/4LjIFDkfUggljSELGWdPQrTkQFARY8GzoEtmnoMxJAaxPYaiQ98JCI2Xkv0oAMFNeyoFIFgFC8ujsGbNGhbDwCbYINgIKAhSbApRZEcDtGizv8vAgP7N4Q/Tuv036R36XdL91atXsWf3Hvxz8Z9i6EGjUaNhI4lRGD16NIu4GBCgUwCCu2pWfBBkCdp9ENgRg8IguGVXCoPglvhq+8fFAcLj4A0ZOLHqDZzfuhQq0VrqztBxp1h8r0nR9aSbC1KwpOKPRCSTj4IAwWplERlZXgU6SuAEiIIOJo0aOeFxaDRgKrr3e4jRzwpAcNPKigEEOmL4GWarGQcPHMR9Y+5jhZc8HiBWgXb9BOiKPSxKpsMj/7fj/9qPGgwGA7IysiSWwv4R/cSrVAgOCkKzZs1YHodhQ4ciOiYKgk1QAiW5oWqFQSgUngIQ3LCj4p8qAMFjoqyNBRUHCE+AN+fg3C8rcfX3zVCJZtYl3mFJkKMUyMCgdDKa3W0svq6wq47S4sKbc5F18QQEsxkcRwcMNLVxsHIBMERHIartHWg9aAaiFAbBMyZ1A0DYDplBoOBGxAjIYZNloMD0xPPsT2FIZY5jPgO0wLPfCBQ4/E7vOb5PaaBXLl+BAwcPsn6oVDyCg4NRv3599OrdmwGD9h06sBsOBCwVgOCeuhWAoAAE9yyotK9rMUBQcjG4bw7FfRDmgResEAuyYTHkMrqYHRu4Wk0pLgjsXgIDCALUeZew851HYMi8xnI70NVGsyYQXN0mSOg5DG3+NQqISADPqVndCoPgqgJKvF8KgyDYGR6SLR0RsHDIZTwlfRJuYBvK+O7MmTN4/rnn8N3K7xAUEoykxET83623YtiwYejYsSPCwsIc6lWcFN3UsnLNsUiACoPgrjEVYa3a64OgAAT3rUBt0rFbDLHhCXhy3pMSpcyiFUnAQLpw6PDYLwqxfy2JHApfZdw0BIffqRx29CAK4LPP4+fnRsGQdpbdYhACw6Fp1BHJfceibqvboQkIg6DiobKXpwAEN/VcDkBws+RyPz937hzL7rh7127ccktPDB02DDd37ozw8PAiYFB480EBCO7qwpFB+PK9ZZj/9EtIbplc6WI5i2Bx/Z5Lpavz5IcOAGHyOLTqodxiqLR0FQah0qLzhQ+LAEIinpz3VLlsQdHVR6nnN+ZhKE8iAniBYIIIVfZ5bH1+FPIyL0ITFoPwtr3Q6vYxCG/QHiKlj+alFNByfQpAcNPSSgKELVUTKCktLQ179uxhgZK6dO3KbizIRxA39kgBCG5quRiDwADCMy+x2BOVfRSAUFnJ+dJ3tRggKIGS3DdEVwCCe7WRc6Lk8c7n/oNNrzwAI29D026D0LjnEGgjE8kHu3Bn6XhtzmYTMGTkQIyaMQSNmteFyKgFlw8+3Gt+bf66mgACSwstCBIoKOcIww43lVsMbtrYDQyCAhB4jFcYBPfMSgYIsxdiwStvokP79u6VV8bXlNBl7+49GDNmLDZv2cyQrbNnmaUVSVS4AhDcV1VlAIJMO7q2RNMRgxSESTSkYefKRUhq3RFJbXpCFRhppyO4QpsoDhAoUFJJgOB+3/2mhGoCCK7JV2EQXJNXaRyMCLWgRvYlIxQGQY6kqAAE9+yqECAswIJX3lIAgnvSrHVfVwYgVLqT5L9Ajo+CGVlZ6QiJiIZKTUFyVJKnA6WJtp9JKwCh0lIuZeVwDJT0NX6uoiMG13qgAATX5KUAhHLk5eiDMBatejRGj94dISqhll23MQIIeRrMn1X7AILipOi6ukt+UZUAgUYtO2aQ8juyh12howCLkl9j4eMIEFg2x5EDMJoiKRYeMbjfd78pQeSgtodafv+1r6ssWZNr8lUAgmvyKgMg2OwMwvt+7YNgd2DiOIybMgatuzdFj9sJIFDgFbYVcVfW/vO9AhD8R9el9LQqAUJlBS2nex5NPgjJ8dJGQHmclwDL5sgj9XQWFi1Ygp+3bquSbI7ON1Cas5VQy65J7Ia3RdiPGAz4QgEIUp5xGSD0ZACBQrqyu1RuStqPPi8ECLXPB0FhENy3UwUguC/DGl9CsXTPCkCo8fqqZANp6ZN9ED5//1t/vsVwI4OgAIRKWpUCECopON/4TAEIvqHHcnuhAAQ/ULK0JioAwa5qRhQoDIL7hl+LAYJyi8F99SsAwX0Z1vgSFIBQ41XkiQZKAEGD7EvSEcPzz7zor3EQ5GRyyhGD24alAAS3RVibC1AAQm3WnpNtVwCCk4Kq3a/JACHnshGfv/etnwMEFipFAghtmJNiJwg8padV/A9cMnMFILgkLl96mYaKyiyHWqZIivZQyzWsk4Jgw+ARAzBquuKkWCnVKAChUmKrbR8VAoRLRnz2/lLMf/pFJLdsWelu1OJIitJVKboiNf4BAgjN2S0GQWVVAqy5ag5KHARXJeYz70sAQWvPxSCHWnYt/FFVCIMBhJEDMXraYDRIjpfuSiqP8xIoCRC2bIOcrMn5Qrz9pnKLwV0JF/og/EMMwlI8/+xLaOnvAGHC5LFo3bUJuvfpBFFFDIK7Yvaz70UOtmwVXpr7Jouk2L5dO68IwBuRFJevXIZVm5ZhxtwJUAUJ9twAigE4q0CaUHiTBis/XYc6EUmY90TNZRCG3zcMg8begaY31QfoOrPyOC8BO0C49lc6Pn5zGbZu3lqzAULvZuh+e2eFDXZew+xNBvhtamScz8eST7/Hs0/PR3ILv8zFUMQgTH3wfjS6KYEdMfBaitiq7C4qtit7GBoW+pZH3lUjPl7wFV58/lW0ad2m4s8r8YY3AMIPP36P7zZ9i3EzhiMoUqMABBf1wgIU5XNYvXgzEus0xexHZ7tYQtW8TgzClAcfQHL3hujaqwNAqYoVHOi88AkImnmcP3IZ3y/ZgtWrfnQIVeV8Md59UwTlbpgwZRxa3dIIPXp3Bqfybo2+VroMEM4evozdW3/H3Nnz0Lhxk0p3s5YfMUj5Wp585gkExnDo1rsDAkJ1AKfsLiq2CDn1Lg+IKhzffxpHdp7CnFmPo4kbBlVevd4ACD//sg0rNy7DrQNuRr1GdSAquq9Y9fadhrzjyLqajx1rDqBtcmdMGD/Bqe+r+iUCCG+8txCnU49izLSRAPkaKQjBaTVwogihANi7+RAyrhqx8NXXayRAoERec56cjbD6OnTv3REBQVqFRXBWy6IUkVRt02Djyu0I4qIwafwDiIuLc7aEG96r1QCBekN+CCtXr8CeP7ejy203IbFhgv18UmERyrcKCSBwIg/BxmPpx6vQtkEn3DNyDKKjoyttUFUJEKiu02f+xtIfvwYfbsGtfXtI4FBhkCrUH9M9vSUAf+w9iUvH0jFs4Eh069atRi68oijg4OH9eHTeg5j/7n+hDmLwpsJ+Ki/YJSBw0KcbsPjdFRg3ehr69+tfI4PJiRCw8oeV+PXwdrbhS2ocp/ibOGPELO86AQQOtgIR7778MSaMmoo7bu+LwMBAZ0oo9R2fAAiXUy7hhTeeRoOWcbi5ZyfoAhXUWbFFiOAEDpygwtXL1xlAmDXtcXTv0hMajabizyvxhqcZBGpCfkE+VqxZip2Ht2HYvQMQGRNuv/+qAMQbVWTPX2IXDU0m+TkG/PTjDsQGJGLG5IcQERFRQxdeETn5ORg1Zhj6je6FjrfcBE5GOY6qrg2YoTzTLK39Zb3vVF/pCBGwmW049fsZbFj2MxZ/vgKRETROat5DG76rqVfwwsL5iGsUgW63dUBQmM6DDS2Z7cODRVdHUfJYZmCZA6zAoT1H8fvOY3jiP/9Dq+RWLFZQZR+fAAgWwYJvln+JfUd+xc3/aocmyY2g1vKlbjBKG2uVF19lxV4DvqMzSUGF3PQCbFq7DVGBcZgyfgYS4hO91jhvAATaWR46+hu+XvUlgmN1uKV3N4SEBBQ7ZmLg2vFxdYL2mkSkgt2a/11om0ysSJHIOZgMVvxx4BjOn7iCIXeOQJ/b7rBnUqyJI0KEVbTgux9W4JsfvsK9D4xEUsM64FSU+cmhvWWwRzfYgAty8/ir9mRVJcvlSzAijnZRlNrK/hWN3xITP3tfFgXRzSw5Jg/YRFw9fwXrV27FbV374f4JU9xKs+5xeTgUSP20iTb8sOZ7/LRzA9p0aY6WHZoigDZ9Tj0yNVbGyySPwseJTUSZbGQZY8SJIosxnM68X0pXpNol8CerXbSIOP/XJWxZuxP9eg3CoP5DERbqHhD0CYBA13XS09Pwxdef4mLaGbTr1hqNm9eHLojSyNqlW11zXiUNwKmx4DghOPuBvT02i4CslBwc/PUICjJNmHjfA2jbqr3X2ANqnjcAAo0Qg7EA23Zuw5qtq5HQJA7tO7dGRHQoeMKIXNHUKhYOpjKUwnHezeBRXTYooxC2aHCgbMvEHJw6cganj51Htw49MWzg3fbJpDobWbYRS1qUWIQ33nsdl9Mv4pZendGweT1otJqiBa8UHxQ7HnJ2hFTPe6WtawxI2Bf9UkDuDf9k9zumj4gdIuBkMdrwz7nL2L/jIOqEJmLWw08gPNy9RcN7ApJyfFLT8/Pz8O2Kb3D45G9o2DoRyW2bIjwiDCqVfeNXppk65gktpaWUMpThY5GNBSbeMnfYpZcljSJHoCHVcwOIK1VQJcqs5Pog1c6BfDYIAOpzjTh78jyO/f4XmjZog3tG3Id6dRPcBoI+ABBYDjAmrgsXz+OHdatw8doZRCWEIalJPMIjwxGg1UGlVoGn+/6FeMFBM16eE9kEZc9zX2hEJQ2jsA0lct56YjTa6yJbspityMvPx5V/ruLauevQ2oIwuP8wdGp/MwICAgsHjSeqLVmGtwAC1ZOdm43tv27Djn3boQnlkdQ4HnHxMQgKCoRao5J2U/ZhXPaE4Ilec8Vu0UhzDw1kieljA7rEU9YmxWO7Xmlthc0qwGAwIu16Bi6du4b8dBM6tLoZA/rehbjYOmWsRJ6QiSfKkEaOIAq4lnYNX379Ga6kXkS9xtFIapyIiMgIaLUa8CpeOnpweCo5B7vUaElXUlwWqr6oTmnVLjbFFP5YMbVVytcV9kywCTCbzMhIy8aVC6lI+ScDcdH1cP+YyUisV79G+h4UdUpOtgekpadh/aa1OPr3YWhDVYiNi0ZEZBgCgnRQq1SOG2jHz2mQFdd/MYLpRoBQNDmUnHsJRDiKyw5T2WC2A5USxmUf7g7IruSJnd05XCLxioOKQvbHofmlrU12MGkTBJgMJuRk5CLtShYKso1o1jAZgwcOQ0J8ElS0Q3LzqfUAoUh/0iyYcj0FO3f/ghN/H4PBlg+OFxnqVPFqCfUx4+Hsk4i8bHhvCqGSbTYbDAYDAgJ0UGvU0uRRuDUoRCwVDvxSde1U06mf0iJF6VQtFgGCDagfXx+9brkdLZokQ6vVuY02K7JF7wCEIgugXccfR//A3t/2ID3nOqASwPE80z/ZgTOPJ7CiNI3YKV6IKCgogEqlZvpn/ypxvw5gtYyWudoYhy4WAWH7giVy7AqZ1SrAZhURFhyOTu26oGun7oiOjJL3Us6IqFrfse8xkZGRjp+2bcbJM0dhhQU8z4FXceDZpEg3HByfEhN/KSCt3PfL6bG04xVh4VSw8BoGDrSiFSpRsC8uEmhgj1xvWQChcHVxnArKsdsy3xdhNltgtQA6PgjJTVujb587USemjlc3AJ4zDKnPgiiiQF+AP/78HUeOHUJaRjosVjM7PpQhl/Smw0ApS1z2qV4GcMUgnFPjzL69EAUY9AakZWSgTp06CAgIKGlpFazuRT+XzDpcNGaLS7K0LtFWl614AqDmNAgNjEC7tu1xc6cuiIyMBO+h+6E+ARAcxUliM5mMuHzlMs6eO42UaykwmgywWuVrUUXWUATYvHctknY8Vy9fwZYtP6Fr1+5IbtWiyLjtu8rizhLOLWRyn4vARunDs6iPHHiOh1arRVRUNBo0bISmjRohNJRoO7ps7NQocWsO8B5AKAIJNqsN6ZnpOHv+LC5dvoScnBxYrBaQr0KFKcArEqZLvZfkabVasGTpUsTHx+O2225j8pcXi4opSdd04vh2EUiRplICx2q1GqGhoahXLwGNGjVGXJ267EiJ40qefrvU0Wp72WQx4dKlf3D2zBmkpKbCYNQzXZemZ0fWqDQWp2QnKmKZJAgo7QBNHIerVh2OXhcg5OvRLlaNhAgVNLSQFRvOErUgs0reEhyBUZ1Oi7p166Fp42ZoUL8BdFpPOvp5q+U3lku6ojk0NzcbV65eQdr1NOj1evt8LmvB2XEibSILkbnDilwWW1fSVgSrDSdPnsDyZcsxYsRItO/Qvliji6m7jN2/PO7ZuHS26aWIXMWrGOsbGxuL+Hr1mIOxRi0ft7lRsCPEsQgW11akqrMNN2uSgm6YTCbYbFb2d5GsoFBujnyOayJw5W2jwYCNGzZg/vz5GD1qNOY89ph9QZYXNWIzSiBGVyqQVhsnZEUAgYNKrWZsAS0WMn9S0WToROFOveJdgOCAzNlOTYTFaoXFYmGsCU0yTsnJGVE69Lbk60XmRWf9Iq5cuYwRI0awRfnTzz5BJO3WZcFTOUV+RqXMjk6Jlb1U0XRAOqYJhQCBfGZP48Hbi5XzPajsm9I4ZztmqwVWW0n2oLLllm8tLMw7eNg44DpU2HIFWH0oF0JGHkYkB+PO1iGICZFPquWFzN6WUpRVkf7KtLMbuieNc2IqCRRIjErtf2SAX0T+iHZCpiLJley7HSQQo+qUWIq/lZWVhU8+/gSL3l+ESQ/cj6eeehJqtau3vhz5PacaUepLEsCgIzXZrqStgCcfn2MQPCkc98oiAxZx6dIlzJv3JL5f9T26d++GDz/6CM2bNXMPOrrXsGr7uqoAQtV1sDw+Uzpaeu+9d/HM08+wo44lS75B3759GTjz9ECuuj7XtJqcXzo91XI72cw8n/LBY0828NVhA/adMYE3WtA13IqJN4egZ9NgBGtK+B94qhF+XY6jzl1dEJ2DBaXBCgrWdeTIEUyZPAXHj59A55s744MPFqFtm7ZuaMPV9rtRVSU+VQBCJYTm7CfEHmzZuhWTJ09GZmYm4uLq4N///g8effRR+yLhbEm+8Z7vAYTy9XL50iUMHzECf/zxB9vlDhgwAIsXL0ZYWJhvKNSPe0HLjAkc/jJyWHzcgHXHjMjM51gOqShBj75JFkzqEoXWdYOgtm/iq4qp82O1eLXrOdk5+Pjjj/D008+wG1mxsTGYOXMmHn/iCa/e/vJqpyooXAEIXpR+ZnoG3n7nbcYaZGVmsfPfIUMH47VXX0NMbKwXa66ZRfsbQPhx9Wo89dRTOH36DCMMWjRvzvwR2rRp43WH0JppAb7TKrotlyfy2H7FhG+P6nHoqoA8I8+Cj0WrzEgOzMM9LXXo0yoa4cEUuK2863S+Ixdf7klKSgpee+01bNywERfOX0BCUgJGjRqFefPmITQkxCdZYQUgeNGiC/Lz8csvv+CXX3awM6tOnTvisblzccsttzBPU397/A0g/HbwIGMPZs+eg8CgQDz/3HO4o29fNGrUyN9U73P9JYBgEDiczjLjz2wB268I2H3WAiFbjz6NdOjRQI02EUDz2CAEB6ncckbzOeHV0g7l5+fj0KFD2LplK95/730MGTYEDz/8MJKTk9ltBl9kiBSA4EVjJR8Eo9GI3bt3Y/jdw3H38Lvx8UcfSzEZfMR5yBXx+RtAsFos7Hprk8ZNERkZgX379yMsXL414orklHdrmgSYqxvFFRGBTI7Ht2fN+OY3PUxXM/FQtwgM6xiJCA1AAV15JTdITVNfpdpD8zmN5/Xr1uORhx/BQ488hCfnzWPMgS+CAxKSAhAqZSrOf0SOart37cbgQYMwctRIfPbZ53aPeufL8JU3/Q0gkN4sJjMSEhIRGRXJ2ARiEpTHNyQgubtxyAKPJefM+OJAAcxXMzGrRwRGdIpEiEYsJd6eb/TdX3tBG77169bhoYcexsMPP8SOECvn9lg7JKgABC/rqQggDMbI0SPx2aefKQBhzFhs3rKZUXO+irxls7KYLUiIT0BkdCSO/PEHAhSA4OURV7XF0+KQyamw5KwZXxwsgOVyJmb3lABCsAIQqlYZVVCbAhCqQMj+VIUEEHZh8KAhGHXPSHz6iQIQxvghQIiKlhgEBSD41uiXAAKPb85a8eVBPSyXMzC7Z3ghg1CzL7H5li6qojcKQKgKKftRHQpAKFK2Xx4x2BkEBSD45qAngJBlBwhfEEC4ki4BhI5R7IhBAQi+pXcFIPiWPqu9NwpAUAACHTEoAKHah6JXGlA6QAjDiI7RCkDwisSrt1AFIFSv/H2udgUgKABBAQg+N6wLO6QABN/VbWk9UwCCf+nb671VAIICEBSA4PVhVm0VKACh2kRfLRUrAKFaxO67lSoAQQEICkDw3fFdCBDOWfHlAQPMV9Iwu6dyxOCrGlcAgq9qtpr6pQAEBSAoAKGaBl8VVKsAhCoQcg2qwu8Agtlm9uU4D9VuWpRqeNeuXRgyeChGjR6JTz751G/jINisNuzZvRtjx47Dpp82+UUcBCvdYqiXyJwUDx8+rFxzrPYR6dkGyABhyTkbvjygtzMIdM0xCiGUtNOnw+h4Vpa1oTSTyYT1a9fhoYcfxkMPPej7gZIUgOBds5QZBAUggGVA27t7j18BBAqUlKgABO8OsmosvQggFD9iGK7cYqhGrXivaplBeJhCLfsDQDBZTQqD4D17gsQg7MbQIUNZJMVPPv7EvxmEPQQQxmLTZv9hEBITklio5cOHDykMghfHWnUUTZNnNkehlm2Q4iCkYZYcB0FhEKpDJV6t02Q0sVDLDz/yCB4kgPDkkz7NEXEKQPCqPUEOtcwAwig6YvBfgMAYhD17/QogEIOQlJCEiKgI/KEcMXh3sFVx6SxhEzgGEJaes7BIiuYr6ZjVg44YohGsLtp7cT69jFSx4KuxOsYgrLcna3roQZbq2ZdTdXJGi1FhELxocIIgsGRNQwcXMQg20ebFGmtu0cwHYc8ejBs3Dhs3bfQLHwQCCPUT6zOAcPiQwiDUXOt0pmUcINpjI9Jf7R4G2RyHpees+IoAwuV0zGK5GKIRpBGllI8MRij+CM5IuKa/w3wQKJujnUGY98QTCkCo6UqrvvbJUwS1gKaAGwOrMgZh924MGzyMHTF8/PHHfnvEIDMI/gMQRFjMZtRPbGgHCL/bjxjIbvjqM1ul5kpJgAMHTpS4AME+1KUjBgIIFnx1QA/TlQwJIHSMYsmaZBihhFyulMhrzEekSdIhMQgb1m9gAGEmYxCeKDbv+5qeOYPZoDAIlTZDERztEOy7CfqLlOCVYyCA8ocLNgH79u7FsKHDcPfIEfjoww8hsh2FbEoiy2joDxSkzCCMHzceGzZtqPUMAtMZ/R9TJf1X0fRAureJAgMITRs0RkR0JA78dhBBQUHMLnh6l5Pe9wfdV3qI1bgPJT0L9qWf/jeX47HsnBnfEINwNQMPdY/A3R0iEaqxWwUnJ4aucZ1RGnSDBKRRLIBneqbpXV4giQ3W6/XYvHkT5sx6FNMefBCzZ82GiufB8zybx+1f+YxcFYDgpipFO+UociJbKGyCCkaLAL3JDLPZDJPJjOMnjuPll1/GwIEDcc8990Kr0UCn0SBQp0aAmodaxZYLcBwzSTdbVHM/lxkEXwEIMt1Mehc4AoWA1WKDwWiB3myB2WqF2WzClAcmo169enj22acRGBgMrVaDoEAtgrQqqDhpYpH4J1pulKcmSoCxBgQKRA4Cx8MqAEaLFQaTGVlWAXvTOWz9ywhbZg4GNQ9E1waBCNPxCNBqEBCggUbDg6fxLSrcUU3Ur2ObJF2rYBUBg0WEXm+AwWiEica02YrTZ05j9eof0K9/P7Rv1wFqnodOo0VwUCCCAjzOgWUAACAASURBVNUI0HBQFc7nNb235beP05v0vrsieVM3bKLgINLCAA4WQYTBaEV2rh65ejPMVgFWmwAJdRYg5VoKYmJjERYeBh48VCoOOjWHsEA1IkICERyghUZtn0R8FCQQg7B3zx6MHz+BMQgtWrRgi2Pte6RdJNtJchxsogi92YqcPD3y840wmAWYbYBADJIg4sKF8wgICEDd+HhwPM92HFpeQIgWiAwJQmhIIAI0KsYqMIBo33HWPrn4YoslcpmOFGhXabKKyNObkZNvlMa5TYQZPPIFNTKMgGixIlYnIFQLaDhAxYvQ6dQID9YhPEiDYJ0GahUHnvkmlHYo6YsyrB19KjoQUqHALCA9Nx9Z+SaYTFbYiEkQRDamLWYr8vLzEBISAq1WB570zHFQqVQI0HKICtEhMjQQgQQKeQKEtXeJVQBCJWxXdjtiOwmRQ4HRgtTMbOTlW9nCYBVkaspuGMxXSQRHliQ/tJPgRGh4EQFqDhHBOkRHBCMkUMsmldpsVGWJlBiEfXv21mKAIO0ASe/0xyZyMNpEZOQUICNHD4PZBpuVJpEiHoiBCNI9AaGiUyUGBDScCK1KQEigBnHhQQgNDmSgkTEK9gWkUJYKaKjESHX3EzoMpCMkHhaBR57ehMycAuToTQwEWkUegsizTYJ87EA1srFL6ia90y8coOGBIC2H6FAdYiKCEaBRQ1UIM91tp/K9uxKQwT4BvvScAlzPKkCBySrp2MbRZF0I5xyXe/avTN30N1Ga0zkRwQE8YiKCEBkWBJ2Kg4qxw7Xv4QqMBbUX3lSTvMleiIKyCUBGrhEpGTnQkzHZVNLZlZO7YkY3igJ4ToCaFxnlTEZVJyKILRS+FoXNZr/mOGHCRKzfuL7WMgikYyt45BltuJaei2y9CRYr+ZzIBlm2A6J8iECnlZwo2I+VgECViIiwQCTGhCBQo2KLShEmUFiF6hjqEtXMwWzjkJlrwPXMfLZoWARp/BNwcPaRvJOkDUFksArxMSEICdSBhnlx7xVnS1Tec1cC7HSY+RhIgN9gFXA5LQeZuXqYrcQA0guSV0FpXI88Pm9c+EUGCOgWS3SYDnWiwxBEbEItPEKseoAgSqi8NlLLMq1s4zhY2c5Rj6tpedCbRWZgIttNuGa2EvqUSiYDIloqLjIQcVHB0m6yFtNTJSUhMwi1ESBIkwT5mRBrxCOnwIzL6TnINVhgZbdWJU9VyV+xbCMoCRDkbQXpmRaL6GAVGtSNRKCWJhRHykHB8a6NLPffJobIYBVxPUePtMx8GMwibGwDIDkiu/JI45weAWrOhhCtgKS4CISHBikgwRVBevBdx2PCAouIi6mZ7EjBaiMGWAYFFYPA0oECzec26HgbosMDEB8bgSAa02xT4JrteLDLLhfF5Rvyq2bmEUVcvPgPUlNT0b59O2h1OpcbW94H5BBoMBgQFBgIjVbr0bLZPWY7tWxldCOHjKx8XL2eA4MVsEHtNGtQVsMkqkraZQSqRQYS4qNDoFPz0l1qZlNVoyoPC6+wOJlBmDhxEtZtWFdLGAQZGtAug3xNOOQZBFxKzUSuwQSbSKyRPJk4LOgVCrGIIZKPk8jGNLwNUYFq1K8bgaAAjR1r+LbzaoWiquIXZLhusgpIycrHtYw8mGzka0SHAhUvGBU1l/wPVLAiPIBHYlw4woMDGIPoS5uBimRQE34nXdJ8brQJuHA5E+kFZgh0PFwM/FVO39J8TlyjDTq1iNjwQNSNCWMbQLKi2vJUGUAgZ72tW7eyYDHTpk1DRGSkR2X0ww8/IOXaNXZTIKl+fY+WLQMEK6eCleOQnqPHpWt5MFgkCtLZIwVnGkXmqRIFBKmBxNgQ1I0Ksfsj1H6aWWYQah1AEAGb3e8gzyTi4tUsxiBI4a6kad2dhUNmkFhpogg1L6BOiAYNE6KhVUlAQlk8nBk97r8j+RLwMIvSOL+SlsP8DSToLtPN7tfDNgMcEBnAoWF8OEID1YyWVp6qk4DIqUCX/K9cz8G1tHxY7F4hxVvgDkCQ5mxiDQJUAupGByM+OpwdM5GvQm14uDx9XpW19NKlS7h+/TpatWzJvPtN9l2/Qa9HdEwMwsLC2L1xi4Wuk5iRnZMDnVaH2NhYaHVa5OflMXomMCgIPMchNy+PeY5q1Bo899xzSElNwcyZM9G+fXuo1SwQuoce6bK7jQzKJuLk+VTkmgQInAoQi4hgD1XG9igq0YaIQB4N6oQiIiTAfiBdZaryVFeKlcNuMezdi0kTJ2Ht+rW1hkGgTthEHmaocDE1G2lZBsYkSGdlciicyk0ksoBKggSiJhvUoQkl1G/iZHjF6FwsVNrzccg0mPHP9VzkFljAiZJuZUraxSLLeV2EGhbUDdchKU46py6Kj+K5WpSSbpQAHfURIMjOF3Dm0jWYbJIfgvQ4HgFU7jhAZoRlRyJetCE0gEdCTBhiwwNqDRisMoBASYs2btqEgwcPslC7xCZs3LiRLeQEEJq3aIGJEycyELBy5Xe4du0qrDYaqsDQoUMxePBgLP76a+i0Wtx9992IjIrCO++8g9CQECQmJuG999/DxYsXMWzYMEyZMgWJiYkeHRfsKiOnwoVr2biakQcrp7ZPHJUzoIoaRzSklrOiXrgWSXGR7AokuNp9T54xCHv31TqAQDiA2KPr2Qa2aBjNAqObHR93GAS5HHb1zb6zoAklQiegaUI0goICaqWDU0U2XnN+lzgg2VlNbxVxJSMP1zIK2C0F2hwU8TieHO+0u7RBy9vQNDEaMaHktFi7NwE1R6dlt4T4ICsHWEQ1/r6QgawCE3kAORD/ntGxVIp8nVWAGgLqhAWgvh0MFjkt1VypcbkFuVVikRRyeOnSpdi2bRtmzZqFZcuW4bfffsPUqVMZW7BixQrcduttaNy4Ed586y20a9cO9913H3755Rcc2H8A06dNw44dO6AN0LEjitiYGMx9bC7CIyLYe++99x5SU1NYnu7OnTtDo9F4TOrSAsEjzwwcP09ok+ZxYig8Y0ilNZRKVgk2hGpE1K8Tyq5GSYtHlajLY7JzLIgYBAYQJk3C2nVr0bxF81rgsEMOqIDRpsbZq5nIzDOxgEg3Hiu4xyBIcnK43koAUTQjPkKHBvVioWLF117de8WgPFaopE2JPVAhI9+IiylZ0JupgiK9eoNBoHNqYgvp+mPD+EgEa33LMdljKvJgQQQQzByHtFwzzl3OZOwgAQRvPYVRU0QRwRoO9WNCUScyEFwt2PBVKUBYsmQJtm3dilmzZmP58uUsrvULL76ArKwsvPPW2wgJCUXrNq2xYsVyxgSMGDkSp06exCuvvIpevW7D6TNnoNPpMGPGDMTGxOKxxx5DREQ4pkyegkUfLEJOTi5Lwdm8eXOP6poWCJOoxsW0PFxNz4HIwIEnFoTym8lYBFhQLyKQsQhqFp6r9rIIMoNw/6T7aw1AoAiZVqjYZPJPSjYMFvI8KM3vwNEeSt6Udt4c2d15AoJEJgg2hGmsaNmoLgJ1BHhrr+6dl0B1vEnsAQEEFYw2Dtcy83ElLQ+CKEUqYPrwyhGD7Jhsg4YT0CwpBjGhWoUt8rIJEC9t4jicPJ+GXD3BBdnDp/TrjJ5ojgwS1KINdSOCUL9uOLSqmu9bxOXk51TJtoQxCEuWYuuWrZg1exa+W/Ud6Nhh/vz5yMzKwltvvoUAnQ6t27TB+g3rcfewYejfvz/Ib2H+Cy+ga5euOH/+HLRaLabbAcKc2XMQERnBWIgPP/yA+SyQD0LzZs08mmFLBghHTl9DvpkmcLZSV8puXFk62NU30YrIQB7160jezrUdIOzftx8EENasXVMrGAS67UQOa+ev5SIt28jCr8p7+eLezkU3GP6/vesAr6rYuuucW9N7r6RA6CGhF+mKClgAFbtiob6H6LM9fZb3sPdefkUBQVBBBBURBESQ3kkgvfee3OTWc/5vz7k3uQkhJCGBBM58HwrJKTN75sxes8va9qmuVNzn/K3hGlv0s41oRwMTQnycEOjryc63cusMCUgAgawHlXqBuZEqq8nsbI09qJ8eu1BRRo7UcmuNt0BiVCRoIiDQywkh3i7QsMPs+Z7eGXK43J8pVcGhQHOdWcSJpDyYRCnj7VxcB5JlSZSI7ojAzC5Fsfn5be57b7A9UQC6p6MSwb6ucHVSdXlCvIsPELZuxaMEEL7/HhaLwABCeXkZ3nnnXab8+/Xrhy+XfYnp06bj7rvvwvYdO/D5559j5syZSEhIYNaGBfPns6DGxx9/HKGhoZg/bz4+/vgjlJSWYtGiRR0e/EYAodrI43hyHrMkcC0QpDTkOzf+2KTqb/YugvOjVcaNQBkNCgGh3k7w83LtFmapc20zZEHY9/c+3H9/9wIItQKP5OxSVNSYGxXubW4L59kPbUFt5L5ujVuosTVKIu+WlouKs8DLkUPP8ACi5rrcd/BLND4JILA4kyoj0vMqwAxF9Zais7t13q+XGYHOl+HUoDjoO3fTkBXBB44aRTuPH5dIfN3mtRQ7xMNE7oWaOqRmlsEMsszRbDa1ANpiB8AOsmaTCUqiQ7cWZSKeBNJflLpNAfQEHM7lgrIPQKZ5dlJYGCGan7dbl6+/wlVUV1wUqEqCXLV6NbZv347Fixdj3bp1IKsCZR+UlZWxgEMKQOzduw/efudtVtAoNnYQkpKTEBERgYULFrAI+GXLlrE0RkJ0hw4dwqxZszB/7jz2vFWrV+Hqa67GAw88iICAgA5btsScWFSuR0pepRUgnPtUSGbhulodEk6dQFFRAQM84eFhIP97cUkJThw/CU9vH8TFx0spkudg6bJtT5KbwYxgT0cE+7sz1sXu2mgNMAvC/XOwYeMG5grq6qQhNEflBpHFH+jqJPdCU6hXPx+CgOqqShw8uA9GvR5jxoyFs4sLLBBx5kwSkpOTMHz4KPj6+jKF1NgK1bBBMZBpnWeaf3eNBX0jAlmuvHyy7IzVLwEEE3jklxuQkVchZSg1gfS2N9MKsJiNyEhLQUpyMoJDQtha1mjUqKioRMKpRHC8EjF9+sDNndK5z2VtaIg5YalwnJG5k5y1SonZV24dLAEbQFAgs6gMecU6WM4CCNYdmX2eAnS6auzcsQOHDhxARI8euPXWW1jmXHZOLn7auAlOzs6YdcutzD1Owazsbuvc2RSrPUBQCAI0nAmBXo4I8vPs8umOFw0gkEJPTk5GTk4OBg0ahNSUFNCJctjw4Syt8ejRo2wx5Ofng2IVAgMC4OfvB3//AIwfP55ZCmp1tdi1608cPHQI/v7+8PT0RHRUFPs46/R1+Pnnn0EUtpOvnsw24QttEjkSBSgCWYVVyC3Ww9wkmKWRORki9HV1+GXjevz4/TeoqyxDdO/eeOHFpcjLK8AH77+PrKxsDB05Bo89+RREjiJnpbNI81uI9FuVaEaAh5Yx7DFClfoSwxc6wot7f3cCCDYZU3BqUY0Jmfnl0BuISbFh527sLuKgq6nG668tRXryKehKCjHj9nsw69bbceToYbz95pswVFXjP6+/jYED45pxgTXWCLb1QADBRWlB30g/K/32xZ2zK+NtEkDQixzySmuRXVjNvs3mAALLZrBYsGvndvy0/jvkZaTCx88b9z7wIKJ7xmD518uxc+s29I8djNvvnYPIqGgJIDSr8O2cVKIABxgQE+4HF0fiRDivjeLKmJoOHSW5C8jFoMDprHyUVQmwWOe5qcuYpG/Q67Bz+1asWbUSGgUPi64aDy9eggD/ALz5zrvIysxCn3798e/nXpSI/+rZF6VON8x5wzzzggC1aEAAuZMCvLp8uiNXXlV+USwItnlmvhxWNpUdk6QTpB398saffsIP635gQYpTr5/KzllU/Y6upXvoD5l8yMyvoNBua6lcKohDz6n3E3UAnaUNIJg44ExWESqqpShn1nfb6aL+w5dOAxXl5Vi5fDlGxPXDts0/ISstFffMnY8/d+1CYWEZxoydgICgEAweNhys1FcrmkI0s1zp8AB3RpzT7QHCnDnY8FPXtiCQjMlyRAChoKIWOUXV0JtsvsqzJ40XOZw+k4i//9qBYYP64o3/Pge1qwce+dfjeGXp/zB89EgoNXTauBOubhJJmPUTaHEFMICgMCMm3AcOZHrugHXdiiV3hV0iAYRaC6U3En26rlmAYFPZBr0eO7dvg2CsRUFOBrZs3oQZt9yCOoMJCQlnENojCoMGD0Xf/rHSybI1TRShEuoQE+YDN2cNWFbzRQiEbk3XLqdrGP8Bp8CJ5ExUG1VnpSvbj9VkqMWJ48fg7uSA6rI8vLH0JQwcPAwubp7ILyzC7DvugkrriKieMezg0JpvkyxFKsGIQE9HhAZ6d3mL8EUHCOdbbHv27MGuXbswZswYjBgxotHlzM9jV+WuNRNyvve19Ht7gHA6swhllRxEviH/nRl8mwAEVhLUaIJCNGHfri14+41X4BMUChd3Hzz6r6fh5e9vVQxkirJtOXaV/prpEAEEPytAoMpgMkC4kFlt3b32ACG/oha5rQAIFsHMMg+0vAWPL56LM4mJcPf3R/yQEbjngbnQOjiDIwsUq9shQBAldxHP8Y0rfdp1USGIcFZaAYJacc7rWjcq+armJdAAEHJKdcgvrm0RILCDisUM+i73796O1V9/iRoiewsIwfU33IzhI68Cr9KwQ4wNz0nblrWqZ3OdIFeioEevUG+4u2hYWqsMEDp4vVJlRgb6ORxPyUGVgY50jflMbG+UgoVpygQoBBNy05Pwr3/Oh95oRETfgfjHkscRFBQKkefZ98sOrgJ9z/SHA88rmz0AMoBA6csEEAK8oejiLuMuBxDI7UCmaIVSyXw99u1SAoQzWcUorSDixJYBglSwRwBnMSE98RgeWfgwAoKC8Y8nn0NM/0FMOZC1w7ZhUKonEUV5eHiAV5BZs6lvmlgVzfCnfHh/d1Y6tJlLOvhL6pzH0dzupxiEbmpBMLRgQWCbCX3sgkRwtfzTd7Fh3fcIju6FF5a+BUc3DxYVT1kNFOikr61DRnYaKirK4ebqjogekVCq1eCsViWrPoFSJIBgQe8ePtCqSeHIzumOX51SRAhZEHJKa5BfUlevOJoLK2ZWUOLZF83Iz0zBis8/wqFDh3HbnLmYMv1mqLUO0lwTQBAECBYzC8QmUjhnVzcolM1wtFgBgmRBoJLvMkDo8Hm2AwgnU3NRoWfE9s2+ph4g0BWCCUU5GVj6/NPQVVXgwcX/wuBR41lxPgoWMRuNyMvNQVJSIkqKChlQ6BERhYFxQ+HoRIeChgMgrRviNwnylFwMXT2mjCurLLuoLobWTLrNDdFSVbzWPOdCr7G3IGQWVSG/0GhHx2nNSWhiQWDvpIpdFhNSTx3Bk4/9A+ERUXjp3U/Aqx1ZiiTdQqdHo74We/fswuFDh3HvnIfg7ukJngGQxkrABhDCAzxZXXnKlW9V9tyFCqCD77fFIMx54AH8uOHHLh2kaLMgUA2GwmoDsgurYDBIp4NzNbIK0KpQCiZ8v+JTfLfqG0y79XbMuuNBKJnSAHiyMJmMWL58GY6fOIyw8DAkJiZh6NDhuPu+B6BQSkXM2JtE1AOEPlFyDEIHL0e7x0kAgXj588pqkVtY0yJAkNLbpKLfuZnJWPHZR0hNS8c9cxdjxNiJ9dx5oiCgorwMB/ftwW+/bkS/gYMw7caZ8PbxO3sdWYmxevfwtcYgkCu2dS7IzpPLZfZka7VdsiCk5JWhoFzfMkBge7kI3mJERmoiXnruaTYji556FjEDBrPMB9oN0lLT8PFH74PnLRg1chgy09Jx5MhxXD3tJtx6651WgCCtMVo3GtGEEC9nBPt5dPmstC4JEJq3wInMskAnrKaWhc5axvZBikVVJqRmVdkS0CQc0NTFYI2DoPqOJQW5+OrTD3F43x74+vnimVfegqdfECsjquAVMOl1OHF4H75d+RUEQcS02ffCLyAIkRGRUKkaqlFygshIVAK9HRHi68bypVnrhgdJmwWhuwAEAmEUg1BlAlKyS1FLpTubE7zV6EPuJVoVGUmn8O4r/0FOViZ6DRyM//z3dagcndi0USJCcsIJPLlkAZ5+8b8YMGAgNqz/AT+sWoUX3/oA0TH92DtsAEElinBVCegTFQClQs5i6JxvXdq8jaB4Ez0y8ysliuXmEpOt5dlFylaqqcRPP67Frz9+B6PBgHvnLcbk62+U1gjHsYDrnzduQGZKAnKTT2P4uEm4afY98PELaFRzgQF+iHBUWNAr1AdODgoWvCYDhA6ebStAoDTHgkoDUnNKWwQIdNCDIKC8uADfrPgSpw7tg15XjWmz78bNt94Ni0WEQqVEYX4+9u/bi969YxATHYWEk0fx/nvvIDyiF/75+DNQKdUM7dsAgiNPaevOrLqj9KV33caVVpReOgsCyxVuyDeVFJ81jaxJrIHZZGZpjV7eXoiMjDyvqdUWq3BBJllrtgBlMVQZOCSkFLEgRftUs4Ytm6LaLKiuroChtgabN21A4omjGNS/L7Zu2YI7587HoCEjUFlZi6CQUBTmZePbrz/Hnj//gLd/ECL7DkJEVAymXHstHLQO9SuGNg9HlYhgHyf4ebqAomC7K0CgVM99+/bhAasFITo6+rzzeMk+HevcW4hUxcIhLaccVTXGJqVgG6aCwE9NdSUqK8vw8btvYlD/Xtj++zbU1Orx0ZfLYTCLUGkd4OHiik/eeR2/b96ItZu2QKFUoyw/Bw/fPRs33vcQZt95f31aHKkogoqejhyiQoluuWtvJpdsrjrgxRIPAs8YM9PzK2E0Mw7FepBgAws8BOhrddDX1mDP7l04fuQARGMdMlKSMfG6aZg87WZYRMDR0RUGgwFVlaVwVfP4/L234BkYihtvuwdevo1TsFmNSMaDwCEi2BuOGo6lOcqFmzpgYps8QirxzEFnAo4m5UBgaY6NG7PwEjAoL0ZRXg72/70biSdP4Jabp+PNV19G3/ghmDPvH8jIysOAAYPg6OjIrLosNVkw4/DBvfjk448wIG4o5i5cYrUK294hwF1DxHcu8HBxuLIBAgmZuA7I92aLH6B/s5MUzzOLAKU4Eiig2gnsOuvkGE0mKzmFinEiZGRk4JVXX8Xo0aNx++zZzIpgu4ZXKBjJEj2TgAG9gz1XFBk1M8UztLcRAKBodoOoQEJqIXQGhmIagQRp2xZRXVGKDz94A7rqKtRVV2P+3LmwGIz473PPIzQ6Cr0HxsJg5jFnzsMQLSbs37UVy/7vU0yddTsmXDMVvEIFrUZrpzQloiQPJxVC/F3gplXZavl0XwvCvv3dAyBYFwwFNVHVt/QCquKoh0VivGrUyJOZkZyElcu/QGFhLvz9AvHPf/4DK1d8jR1bfsOM227HicRkXHfjzRg5bAT++dBdKCwqwKoNm9kJxlhRijtnTMewa67HksefqVcM9FwtJ7LiLr6ejg3Wo/YuZvm+c0pA+s45VOktyCyqQUW1oZGCth0ETIY6bNm8ETu2/8YCFSdNnIyIsHB8v/IbVBv08A2LgLuHF8aPn4wIOsiIAix1VXhr6XNw9Q/GTbfdA28f/3qeRAIBdIpUCmaE+dI8OzFLEVWr7YZGwi6/wlhBLlZ4j8Op1AJU6SV2RftGwFynq8E3K7/Arm1b4OnpgQet9X/efPkllBQXIKp/LFRaD8ybtxAuLi4MIAiiCQW52dj04zpkZmfhzjlz0YssgnZHcFvAeai/B0tbPj8f56UVKVdSXtJpFgTiPKBaCgNjY+Ht7c1YEJOSkhjiCg0JwfHjx3Hy5EkolUSKNJCRClE+aWZGBvbt34+CggJWlXHIkCE4fPgwPnjvfQyIHcjYEt1cXXHg4EGkpqTCwUGL+MGDmU+7rLQUScnJyMrKYiDh+uuvR2BgYLtPqraNgU4XFMCUXVDDUmPsY8VsAIFMUc8/+xScnBww4+ZZGDF8BCsgtezLL5GRmYGIqCjcevvdCAoKYaaqnZs3YOe2rXhwyZMIj4qpz2qQmBrpzRTxKsLPwwmhfi5QSzR93bbZLAhUO2P9hvXo0hYEq5RtiqNUZ2ZcCLVGFknQGCCIIvbt+Qvfrv4abm5UG2QeQoJDkJaRig/ffxt6gx4DYuNw570PwMXRCQ/fPgOVdTVY8cNGgFPCUlGO2TOmIXbcZDz97Av1AJQq/TmrFegZ5gdHFb1VtiB05uInxaEXOBaHkFdSA8Eu0Mf25dVUVmDjj99j9+4/MXHieFx9zTVQqbTYuH49/ty1E64eXph+wwzEDR4CpYoAvQhLbRXeXvofuPoH4cbb7oW3rx1AEGleLdDCgp4hPnB1lgKVZYDQCTNNREbWjZusCAXlOkZ+Z+O8sL2Rvu7a2lr89ON3zE1IPDxDhgxlFqETR4/i999/g7efH66eMg3BQSFSGr5oQWlxAX79eRNOnjqJGbNuRdywUeDsgtqZNVgpItjTCb5ezixAsauDwE4FCPv378eHH3yA8RMm4J577mHVGJd//TXGj5/ArAXffrsaoWFhzFJQWVWF2bNnI6ZXL3z66adIT09nCiQlJRVx8XFwcHDA2jVrER0dhQULFmDnn3+CUiLJ3UBMjFWVVXjkkcUoLi7GO++8wwABMTA+8cSTHcL5T8Fq1SYBZzIKUGsggMDCjK22A+n/FpMJ+bm5cHR0gKeXV73VRFerQ1VVFVxdXOHs7MRuKy7IxXcrv0BZWQkee/a/UDm4WjkdaHlSBDSZHS1wVSsQ7OMKT1dtt1hQLX3WLAZh335WXKu7AAQaD6vmKHDIKKhAaaURliaEKITldDodi1R3d6U5dpZSGSkWpbgIdXo9/P38oVZrWTnfR+fdh5y8LKzY8DN4qKEvK8E9t96EsdNnYP6iJZIIOQFqToCfuxNC/T2Z9YCeKLfOkwDBLwt4lOlMoKDkWr1ZymOur7sgcbBUlpexw4e7uwerLksKXV9bi+qqKmbJdHZxhVKllnLjBRGWukq8vfRZuPsHM4Dgk0D4XwAAIABJREFU5etfv28Q5leKJni5qhHq5wEHtcQLQwBBbp0hAVLmklWYiFET0guZu4FlnVhfZ7Nim01GUFwRI0HiKH6IUhktMBmNUKjU7GArZbRYUFFWjC1bfsGhg4dw880zED94KCNhUlktwhTPxqp2OqsQ4ucORy0Fqze1XXTGeC/smVxxWXGn7TpkAfjyyy9ZsM4Lzz+P9T/+iL/37MFts2dj/fr1zM9DhZZqamoYe6KPjw+CgoLwxx9/4I7b78CUKVOw5+89KCwsZOxV36z8BmPHjUWfvn3wxhtvYNLEiZg5cxaqa6rxxOOPIy4uHq6uLli+YgWjcx43bhxcXV07JKiRkeZAgeySShSU1MIsNJ8eI+3h1qg124qzxVMwbiiJsTs9KREfv/savH29sODRJ1BnAhwcXaDVOlpNmyKIxsPf3QFBPm6sgEtXD2g531K0WRAeevAhrPtxXbewINgAAsWelNRQNkMl6gxUvqVJhDmbY+uE22W2sMQG2lwYhwdYTfivP3oDP67/AZ+t+Q7ubj7ITT6DJx5ZgLlPPoMxYydbuTUtcNEoEBXkCycHJciaILfOlYCNS19vEZFXVof80hqKUWvEnilp9ibft1XdS8RXEmEbAUQGLkih6Mrw7ivPw9UnkAEEH7/Aej4LSoOkWivhwV5wd1ZDSX5sFggpt06RgF3wqYnnQRwnmfkVrHLneZtdXFzDDIks5uyvnVuxccN3GD9hEkaNHovi4lKUV9Vg8PARUKs1UFCpZ6WIQC9n+Hg4g7dag7v6PHcqQKBYgF9+/gWrV6/GzTffjP0H9sPdzY2RIL3++uuo0enQp08fFjNQkJ/P3AR0yszLzWVuBKrsSGjNbLYgLy8Xb7zxJsaNH8dOaCuWr8D9c+7H1VdfzVAelX7WarXw8/PDtj+24d///jeGDh3abtdC08XCDP4cD50FSM8tRUU1KYk2ZhMwFkkJj6UlncaHb78CtZrHVVdPQXlFLYaNGM3yZ8k6QadFNwclQqnql6NU9au7AwSbBaG7AQRbtopB5JFVVI2Sirr6Yj7n3VRsF1hhOBUQzko8imf+/TiuueFGDB85Fps3bsCZhON44Y134ObuwxSMWskj2NsV/mSKtFb7a/W75AvbLQH6yiwij0q9BTklNaiooVS4Nm7jNqZVi4CyslLkZSThuxX/B5WTK6ZMn4Xonr3h6uEBBc9BBQv8PZxYRDtV9OZtpb7bPQL5xhYlYAUIdI2F50BgMDW3HOUsALkdaaWCiIzUZHz20VsoK8xFeHRPZkUqLiyBv38wHvrnEuZS13AifF0dEOjjBrXKCiTbqD4uxcxyRaVFnWZBoI3u+IkTzGWQnZUNLy9P5mpwcnbCu+++C3c3d2YBoPzx/IIC+Pv5ISExAUeOHMWcOXMwePBgFktQVFjIAhC/WvYVRo8Zw6wMVOFx1i2zWEloUjxP/OsJ+Pj6wNvHm7kynnzyScTHx3eYTG1KgkyQFbUWpOeVQ68XILalqkq9dQGoLCvB71t+xv69u+Hl68fAwajRVzHTJDFzUUW3APJVuVNwmu1s03lT1WGCauFBZEHYv28fHnroYfyw/oduY0GwzT0Z+XUmEdlFVSivNrDTZavPetapYyRagpGlNh48sBdu7l6oravB1Ok3IjZuKLM0kBvC18MVgX6uIIvz5QAOL8b66oh32GqjUInvkmo98kqqUau3SBaBNra6ulrs/GMbThw9jKqKYhYc5+Hlh2HDRyF+cBxcXRzh6ahGsK8HHLRKKQhVBghtlHI7Lre6CMl1SG6gaqPAspRq9A3VWlv9VEFEXm42ftu8CRTAap81FxHVExMmToJGycPDSYtAX3c4M9cCzbNkaG4j9Gx1tzrqws4FCACLDVi1ahXeeutNXHvddXjxxRdY0aVly75CWloaZs++DWaLBdu2bUN0VDRCw0JZrEGvmF4sOGTzr5uZf3fixAn48ccfWfGm66+/Dl99/TWLHiU3RElJCVauWMmsFCRxKtr0r8ceQ1xcXId6bW2KgtwLJTojcqiAD7kp2zPNgsAKTFVWVECjVkquEKVEpeuoVsHf0xF+7o7WdCepHlxXX0znW5QE5A7s29/tAAKNyxasSpHu1XoBOcWVqKwxWQPZWj8zLGiNWZ7NKC8uZGRZLu4ecHb3BG8BNAoBXs4aBAV4Qa3iWBYLs0Y2X3z+fCKXf98uCUgFt42iiOJKAgk1MJjOjnZv+aQq+at1NTUwGfWS5ZClznJwdHCAo4MK7s5ahPh5wtmBaJnpjQKb5tavpnYNTr6p3qon7aoEFMhiROmttQaiQG/DQYwK+gkWlpEnHRdsGW4CK7WjUSng4ahBoLcbXBxVZxEjdfW55gpLCtsgjbavLQri2Lt3LyvTTDEBlKJIPzt27BjWrl2LwqIidmry8/dnCr5Xz5745ddfWRyCLUVy6tSpGDZ0GFavXoX9+w/gvvvuY1v2xk2bWPwCRZeSq+K2W29l1SK379iBW2+9lZ1QO7oxRSFyMJEZss4o+aSNAst9bsicbsVb66Vucx2IjBzFUa2Er6czfNwdoaxn6JTUU1dfTOcbtc2C8PDDc/H9uu+7jQWhfj+xAgULONQYBXa6rKwxwmyhfJPWp6XZwAY9lwKXbMlOaiUHT0clgvzdoVURLXNDOeDzyVb+fUdKgB0tmeIwCCKKq/QoLK+F3mCBQD9szYd4lqKvh5gsG8nFQYMAH3e4OKpB7OmMfbURDVtHjkd+1jklYM1UoQifSoMF2cU1qKmzwGyRXMitmeqzn03p6RaoFQLcnBzg7+EKZweF5D6yleCxnjra9/yLN5+dDhBoKKTASZFTJgL9oSZYBFRVV6Ewv4AhNirt7OHuwU7QRoMRxSXFqKqshJubO3x8vBlPAmU6lJeVsehhF1cXlr1AWQvk86EgRsoeMBiNLEWFrAv0885oZGom9wlt7QQSCkurUVlrglmQjMGNWouBCiyyARxnYTUWnB1U8HFzhIezg5WL3bqKrA/s6ovpfLK2WRC6K0CwzQYrzAIetWYRhWU1qKwxQG8WYWFMijRLLc+UzWFE1gGOKtIrAI1SAQ83R5bSqqWAVGshp+4+5+dbE13y91YTdEPsCVCuM6GkXIeaWiPMFEfIprqF2Wny3ZPyp92BlIaHsxo+nq5w0qokcFBPjdX9DwFdcj5b0SmaTzrk1Vp45JVWo6rGAINZYPPculmRglPJEaXgRWhVgIezFt4ergzsUyorm2pW9bGBRqerf99cQXFBp1oQzjU3LTEd1v/O/ma7smjSt9lQ/tne73NBzImtWEiSkrCjYRVFGEwWlFfXobTagFoTYLJIxZikkIPmxUsLgyJZ6Y9WzcHTSQsvFyc4aqQAxYsxjlYOt8Mus1kQ5s6dh+9++K7bWRBsgpCsSJK52CIAVTo981dX1ZlhYkChZQXCLE2cyCLW1QrA1YGHr7sbnBw1VopdKT+6q28eHbYwutyDJAuCrbEKgOCgMwgoq6pFla4OerIaMsuR1Oy/cnZnfcyJpDDUPOCkVcLTxRGuzhrmPiIDd9sjG7qcsC6fDokE13mYRKCy1sD2dJ3eDL2RDgQiC4Y/V5NihwSolYCLgxoeLo5wdlRDzapuSRvCWXiyG7iTLhlAaHFVNadUu1BesD2itHWV1k6t0YJKnQFVdUYYTAJMZgEWwSL5tKyWSdoWFBwHtUIJjYqHk4OKbRiOagWUPLGvN7OQLpNP0GZB6O4AoWH/l9Q4zb3BIqC61oCKWiMzRRtNNPeSmdLmvWbc+hyg5HgWse6gVcHNUQMXBxVUCiobS09uIEOSAcIlWvhNTv+SJUFyAJD1QGc0oapGj1r2nUvmaKqnYp/9yOoE8hz7pqV5dmBuBbVawQ4FLOagGyiISzQDl+61zLUkxSYYLSLjwiCwUGc0w2g0Mbe3tJ1L19A80jxr1Go4aZRwdFTDSauGiuek4HKpZvTZaN8OQF66wZ7/zVx+Uf4lsSCcv2vd6QppsTCHgcjBLIrQG82o05N/2sKKepCqoA2fwIFKqYRWrYZWrYBaYfVA2+XFXnaKQUoQZx8XESXNs1kQoqJaNtN2iyUgzTubfzb3gMFkhsFohoHows0UGW11PHBUaIyHRi0BQnIrMGVR/4RuMeArupM29xCZowkY0DzXGUwwmc0MJFCjL5rAHgUfa7VqqFUKKDkq8y192fJ8d4clZJ0ljmd8PQQWjGYz28Po39LBkOaU3IN02FNBSdYCe9MRq7HROgdFV5WIDBA6eGZISTDyNXaylEhPGtkgbUEq5IuqJ1ZpZNG8/EzLVoDALAj7DzCAsPb7tYwa+3JpDQwXVnjHfJrW+bchPqLVJUsYT24kKyGOnJ3QLZeAXYyx9HnbCs9ZT5eSj8gGGKy+5245UrnTDXY927GfXFANciFYYM1OPYtdV4IR3bdxeYV5sgWh0+fvXCLuzkunDUKzsyBQmuO8efOx9rs1iL6MAIIkjYbSKy0VYbFZFNogQfnS7iYBeZK724ydt7+t2a0vN2UqA4TzLosLvcDqgzrrMVdQGFojC8J+zJ+3AGu+W3NZWRAudJXI93dfCbSkFFqjVLrvyK+wnrdG+19mE87lFuS2ZthX2EqQh9sZEiD/3YH9VoCwlgBCdIcSWXVGn+VnyhKQJSBL4EqVgAwQrtSZvwTjtsUgzJ8/H2sZQOgpA4RLMA/yK2UJyBKQJdAaCXA5+TmyBaE1kpKvuWAJSBaEAyCAsIYAQrRsQbhgocoPkCUgS0CWQCdJQAYInSRY+bFnS8BmQViwYAHWrPlWtiDIi0SWgCwBWQJdWAJcdl62bEHowhN0OXXNZkEggPAtAQTZgnA5Ta88FlkCsgQuMwnIAOEym9CuPByyIBzcfxASQFh9GaY5dmXpy32TJSBLQJZA2yTAZeVmyRaEtslMvrqdErBZEBYuWCgBBNmC0E5Jtv024pG3WIgJTmBlxZUKqgjV9ud0mztEoj6mMUt054zFVKmEQqFofgh0PSM8ku7jeb5b1kORxky1CaWx0HhpLF252frbXWXelWV7oX2TAcKFSlC+v9USYBaEAwdBAGH1t2RB6Phy3K3uzBV0IVHDFhYUIiHhFCoqKxEUFIR+ffvB2dnpMqC6bjKRItGdC6irrUVmVhYK8gtQV1fLlD2Nu/+AAQ0K044OkZRURUUFMjIy2f29evWCq4trtwJRBAgqKytx/PhxVkGXxhwVGYmw8PCuC3ZE4MyZM6x6r7+/P4ICA6F1cOi6/b2C9g0aKpeZkylbEK6wSb9Uw6VN+OD+A1i4cJEEEKKj5DTHTp4MknlOTg42btyILb/9hqqqKoSHh+OWW27BqNGj4erqelltxqQkK8orsO2Pbdi/fz87QVdWVCAtPR1jRo/BU089BZ5x5jc0vV6P1JQU7N69GwkJCYiKjsasmbNYCfru1MhKlJObg6+/+gq7/twFpVqFR5cswYSJE7vuMERg82+b8ccff0Cj0WDY0KEYNmwYvLy9u7zlo+sKteN6JgOEjpOl/KTzSIAsCIfIgrBwEVatXiVbEDpxxZCiJHmnp6dj3bp12LFjB7y9vODt7Y3k5GQ4u7hg1qxZmDB+Ajw8PS4PkCCK0Olq8csvv+DLL79AaFgYbrv1NpSVl2HTxo0YPGQIFsxf0MgqQODgyOEjWPvdWuTm5CA+Ph4TJ01Cv379oNVqO3GGOuHRVFG2thZ///037r/vfji7OGP9+vUSY2kXdSfROs3Ly8O+vXuxdetWlJaWYcKECZg+fRqzKHBd3D3SCbPYpR7JZWRnyBaELjUll29nmAXhwAEsWvgPCSDIFoROm2ySdWpKKssWIZMzKbxrp0yBn78/O1lv+W0LDEYDbpg+HZMmT4a7u3un9eViPZhcKampqXhk8WJUVlRh6ctLMWb0aOh0OiQlJTNwFBoWWt8dklHCqQR8/MnHSEtNw6xbZmHatGnw8fbutoqJFC6Naep1UxEQFIBt27bBwcGhywIE22SYjCacPHkCX331NZKSknDLLbNww403wtPT82ItH/k9zUhABgjysrhoEpABwkUTNYxGI/bs3o0ff/yRnZzHjxuPgMAA8ByP2rpanDp1Cr/99hsctFrMmDmTuR06tNkfO1o6vdqu64ATbl1dHdavW4/nn38eg2IH4cuvvoSjoyOrrEqKk3zy9SdpESgoLGDm+A0//YSpU6fi4YcfhpeXV4eK4WI/jNwMK1asYDIYO3YsvvjyCzbnrHWAjDtzPDRHBw4cwGuvvsbW6BNPPIGRI0ZCpVZ15mvlZ7cgARkgyMvjokmAuRgOHpQsCKu+QZQcpNjhsmdR+IKIquoqnDhxAmWlpRg9ejQ8Pb3qFYS+Ts9iEbJzskFKtXdMb3j7eF9YX5iib622b3LdhSguKrMsijCZjMjOzsZzzz2PgwcPYuLECXj22f+wGAQ3Nzeo1epG4IDWIsUcPP/C8/D28sYzz/wbAwYObOxqsXbTYNCjrKwMer0BHh4ecHN3Y9fRe0mW9DtRFJiMHR3ptH4hA7qwaaBxzZ83D9u372DxFvfeey/KykpRVVUNjVYDPz+/Lp3BQsD2ow8/xKpvVmHKtddi7ty5CAwM7PLg5sJmrevezaVnpcsuhq47P5dVz2wWhH8s+qcEEGQXQ4fPL5nZc3NysX3HdhZwp1QqMW7cOPaHUhtJqaWkJDMFUlhYwBQG/a5nr14X1BejwQi9Qc/ACUsYbHFXaaiFzPMci4e4kFS8Wl0ttm79HQmJiVi5ciXIXN2vX18W7Obh4Ylrr7sWwcHBjcZXWlKKFSuW48svl+HGm27EM888I4EI+yaCAalDhw5i9+497O9xcXGYNHkSc1eUl5Vjz5492H9gP1xcXHD9ddehd+/elxQg6OvqMHHiRJSVlTP3UnVVNfbv34f8/AIWk0D+fQrW7MrWhGPHjuGF515ASWkJXnvtNQwdNvSC1scFLewr/GYZIFzhC+BiDt9mQSCA8M2qlSxaXG4dKAFRRHFJCX7asAE7//wTNdU1SEo6gwkTJuKJJ59gKWSCKLLYhE8//RS//PwzU3iL/rEIw4YPv6CO7P17L06cPAEK+mOtFccOAhIKXoHZt89mJ3PmAmhjI8BTXV2NZcuWMd/771t+Z4qQQI+TsxN8fHxYxkYjgCCCuVheeOF5FBYWYeGihZg5c+ZZ1gOTycQC/tb/uB75efnIysqEr58fFi1cyMDH77//jrXffYe0tDT06d2b1Rghd057xtHGYZ/z8rzcXIwfPx4ODo54+t9Ps2wGEiv1kTI5Ro0chY8++qhLm+3JqrXkkSUsfuKFF17ADTfcAEcnx44SkfycNkiAS8tMa8Wn3IYnypfKEjiHBCQLwkH88x9WgBAlpzl29GLJzsrCr7/+yszqtNF+8MGH8PX1weLFi3HNNddAFMGC9kihfvD+B+z0/MiSR5gl4UIandwppoGUNbVzq/qG39gAwrvvvcs4CtqrWG3ZGjt37MQrL7/CsmPefvttpgQpdS7A35+RJNkagYq//voLixYtQlRkFF588UX06dPnrE4TlwBlfyQnJSMiMgKbNm7Cn3/+iYcffgj9+/fHN6tWsUyHHj16IDwsHKNHj2IA4lK2P7Zuw4MPPQhnZxfExQ1iqaxDBg/G4cOH8b//LWVyZrEn5Arpoo1WyH/+8x/88MM6zJw1E3Mfngv/AP8u2tvLu1tcakaqDBAu7znuMqMjgHDo4CEGEFZ+sxJRUZGtOWh2mf53h45QmltpSQk8vbxYRP/LL7+MlOQU3HvvPVi4cCGTN5EmffbZZ+yENm/ePBa9fyEmfpILuTNSkpMZQU+j1mR3Yf+0Qw9kQSDgQqf+C2lkLfnk44/xxRdfYuz4sfjk40+kxzWDVGgdbv19KwMIFAT35ltvSsGJTa4ldw25IsxmE9w9PLDsy2V4//33MXzYMLixrA8Rt99xB3pG94RKpWLxB03T8myPvBibLA8Oz7/wAr5e/jUctA6YP38e7r77bmZNOHr0CG697TYEBwUzgEDxCF218eDxyacf48tlyxhhFbl/SMYS16XcLqYEZIBwMaV9hb+LNubDBw9h8SOPYPny5YiMirzCJdJJw7e6+Mks/vnnn2P16tWM84Ai2wkI7N27F++++y58fLyxePEjiIiIqFeOgsXCrAxEJtSWE71AlMYWM7v3LIRg97NGyQ2kPTmOKde2vKs5qZUUl2DBwgVIOpOE++fcj0ULF53TjEHxEr/++gseXfIYxo0fh/fee49lO5zT7GENhPzhhx/wxhtvwKDXIy4+HnfccQdGjR7FrBRNG8mjnrKZb7vrpD0rgxOB666/DmeSkpgLhOaYAjDJVfLzLz/j8X89ziwfxPnQlHLa1l+i4e7IRt+82WSW6L3trDgtvkME4+744IMPmKXj1VdeQb/+/TuyW/KzWikBLiU9RYZlrRSWfNmFSYAC2DIzM/D18uVYOH8BvC40cv7CunPZ303WhO/WfoeXli7Fdddfj6UvLWWxAWvWrMH69etw++23Y+asWfUbN23mZ06fRmVlFWJiYhiBUmsbRfMTpbFFEM6+5Rw7DIECjufg7uZ+Frtha99ru44yGG668SamrN948w2MGDHinI8w6A2MWfKpJ5/ChIkT8N777zWr5O0fQKmSO3fuxFtvvYm0tHQGQh6Y80Czlg9a5xSPUV1VhT69+zBrzsU4/dbqdBg+bDhMZhPeevttXHvttQzz1NbW4b///S9+2vATbppxE/u7fSN5nD6diKrqaia3VivyFibJlkmTmJCIrOwsDOjfH7379GGg6bxNBANwb7/9DqO9fvPNNxE7cKBsPziv4Dr+AhkgdLxM5Se2IAHajAoK8lnQmL1fWBZax0uAFP6vv/yKp596GsOHD8fzLzzHIu+JGEij0bLgRPKdMy0iArm5uVi5cgWMRhM7HYf3CAfPuANaPgGT8iSq3EOHD4Gi6KmdbUiQVCRdK/1eZH9XKHg8+OBDLM2yvVYEi9mCI0eOsD6HhITg22+/bTFtk9bgpp834cnHn5QAwntWgNDCMOkU/Ntvm/Hee++jsLCQuSfuu/++s10zoojCoiJ89ulnjMnyrrvuRGQkWcokMNRpTQQSExMwfdp0loZJWSouri7sdRXl5SxQk1gKly79H6ZMubZ+zklh5+Rk48233mLA4H///R/UGjWbi/bOBwFTcmvt3fs39uz5GxUV5bh/zhxMnz691cOnANp33nmHrZk3Xn8dA2NjW32vfGHHSYBLSZMtCB0nTvlJsgS6lgR27dqFZ//zLAtCpPx4imYnStvZs2djyjVToFSpWLXDgoICBibWrF0DP19fTJ06jeWfU5xIYGBQi4MiRfLNqm+w9fffUVNTIwGAZlwNzZ0dKQbhjTdeR3BwSLsVEgVjUr9fWvoS+vXvh7Vr1rZ4CjaajMwPv2TJElw15iqmiChN8VxNECw4ffo0S6GkuI3q6hoWCDhv7jxomS9fUvx0XV5ePjZv3sysNOTCIQKmoKBgxPTqBV8/X3A20iK7l7HEUEEicpKwWNuBBCn6L774Aq+++ipjzSSKZWkeRGRkpGPqtGnwcPdg7oXAgED2OwIwGRkZDNx98uknCAkOxoKFC+Hi7MLcTu0JXGUF2Q4exNZtW1FeXo6EU6eYRerRRx/FjJkzWpXdQn0jkEdxJAR2XnppKfr27de1PqwrpDcyQLhCJloe5pUpgZMnT+K1119j3AiUT07ESaGhoXjooYdZCiA1ymqgdL6vvv4Khw8dZtz9pGTc3d0wadIkxMYOall4xK2Qloqc7GwYTaY2CZpY/si6wSpLtkMx0ssqKyvw1NNP48+dfzLOg9dfe73FPpBlhZQiWQGGDBmCV197tV5pNtxI5EsmVi46Pz8fa9Z8i+ycHJCvnmI4rr56MhYuWgQvTy/GWkkBioIg4s9df+KL//uCkVTFxPRCTExvuLm54vqpU5m7oblgUAJnKakp0Gq06Nunb7szDO66+y7s27uPBSZSYB81GuvOP3cywiEqr06+feKJoD5T7MeGDRuwbt0PrKJidM+eGBQbywI2J06cJHE6tKVR/Q+LBcePH2M1QAhgbNjwE/bs3oMljy7BjBkzWv00ykIhsqRBcYNYim5khByv1GrhdeCFXHJqciucQh34RvlRsgRkCVw0CZByo0DF77//nqU+9unbBw89+CDi4uLrT+xGowGJiYkss+HQocO46aabWMqeSq1mFMy+Pr7n7S9F/DMWx6bOhaa7S5PDseRmuLDAOCJ8umXWraxQ0WOPPcqi9c/XSMk/8oiU3vnUU09i2LDGPBD0rCNHj7C6AHm5eazAFYEPIlP6/LPPoVIpmdmc/l1ZUcnk5e8fwCwN5DMnl8fdd9+FoUOHMkUcGRnFFG9zZvtt27bi2zVroFQo8O9/P8PcJK3y1dsNkuIOiOOAyj0TzwGRJVEjkEOn8aVLl6Jvv74MPO3Yvh0eXp647trrsGfPbhbMSO6Hhx5+CBE9erByyz3Ce7A6CNQPAhnnbjbLB18PfsiiQ9YUAnyUSkvxHo88+ghm3Nw6gECslMQCuXHjJpZ9c++999WD2fPNq/z7jpWADBA6Vp7y02QJdCkJkHVgzbff4pVXX0V4eBjuv/9+3HjjjSwGwaasSAmkp6fh/fc/YHEIixYtZOl/ZO+mE297fdEXQxAETEiJU4AimfQ/+fRTidPgPI0UPrH0UXrmfffdiwceeKCRBYNM78u+WgbiVqBgTWIgvGXWLMbzQAqY+BFieveGm6srA1sEqohdkeRHQaGZWVl48sknMGLEyHp/fnNyJNl/9913+OCD99mpfvnyFVL1xTa2vPw8TJwwEUqVEls2b2F1N6hRiuamTZvw9NNPMzKqMWPGMDfQbbNnM0CRlpaKufPmwUGjZXUbKKCSQJuNSpoA5oGDB0DZLWc1cokA4HkFIiJ6MDeAvYWEgMJ7776HjZs2YsmSR3BzKwGUnRooAAAbkklEQVQCuSYef/xx7Pl7DwM2U6ZMYdYVuV18CXBJKUmyBeHiy11+oyyBiyIBUgaU5kjWAQoSe+ihB+HndzbpDJnG6SRJplwCCCEhDVUPL0pH2/kSOiH/tuU3PLrkUURGRuDbb9fA1dX1vE+rqqzED+vWMV4DClR8/rnn4exs5WLgwHzzlNaYkpKCwXHxmDh5EkJDQhnPw65df+LXXzcz5TtgwAAGHnr0iGDKkaiX33n7bYSFhzNmRSJRarGJIr76+mtm5XF1dcGHH34kpZ22seXk5uCtt96Cs5Mznn32WWa1oEYAJCsrCx98+D7KSssQERGJUaNGMbcOWT/IFUKgkRg1P/nkYygUDYRSlLZKBEv/939fsLE22ziOxXtQMTBKpbW3BlHAKgV1EkB45JHFrQQIIv7Yvh1vv/UWAykvvPAiYmNjuzRIbeNUdavLZYDQraZL7qwsgdZJgMy0ZrMFxGv/yScSaRApflJoTQPlSIkQiPjwow8xc8YMPPzwXIkXoBs0AkCvvfYqY90bOXIEPvnk01a5LBgnx+HDePnll5iciGmSKIptp3xKGczNz2OAIMDPX6KC5nkWfUlWhPyCfJhMZvj5+bIiTTbFSFkgn332OWbfNht33nVni8GPJF6T0YgXXnwBmzf/htm33YZ777uvXRUl6bROxbc0KjXCwsIaZZ7YghFrqqsZ4ROxKRKAIFpsisV47j/P4bbZt2LJo4+yIEKbDMg6k5+fx9xOFMhKrbnwSRo7AaE+ffqeZUF4/z2yIGxi7pybb775PFhJki0RV1HALFFw33XnXcwyI7dLIwHuTPIZ2YJwaWQvv1WWQIdLgDZ9qj5ICj4pORkrV6xkiuOuu+7CuLHjms33p1M4WRi++uorxqx4zz33wGA0sDLBRCXclVtxcRHrb1FRMQs6pL+3tpEp+4d1P7DyyMOGDmVMk6GhYfUnb1scQHOBhbbf2bsNREFg/AOrV63Gv/71GKvvQHKkE7Za3TxzIRVSeuONN1la5oL589GrV0y7eQjqS1qfQwBNf0/xCuRGWffDOjz51JOYcs01LMiUHAc28icCUrQ+pPE2FNmyfwWBBnJtKJWNyzITaHn/vfeZi+ORJYtx8003t8hlQC6WLVt+YyDP09ODgbaBA2NbBfhaO+fydW2TgAwQ2iYv+WpZAl1WAhRYRylm9Cc0NAR79+1jPvEbb7gR11133TlPswQqyK9OYGLOA3MwefJkVsGQTqIUvHehQYSdITA60VI0Ppn7H3vsXywz48MPP6hX8K15J52QMzMzGe3333v+xtixV2HGzJnsWaTUCSC1pZlNJrzyyqsspmDx4n9i9JjRrAokZYSQmbw5AqI/tv+BY0ePMUbGAf36swDBi9VKSkoYqRRlGSx+ZDH69e2LAwcPIjoqCkOGDG3UjVYlXlr5MkiuFrMZRUVF+Oijj5mVYsHC+ZgxYyazXNB6agSsRJFl0lD5bUqXJZ4K4o+ggltUU0Jul04C3Omk07IF4dLJX36zLIEOk0BBYQGrF/Dzzz+zCHTKWqDIe+I7oH+fq5EJ+murHzwsPIxVfXR1c8O0qdOYb7qrBSnacvuJhOeXX39hWQYPPfQQIwNqK5ixFXqiU+7BQwdZuiMBJPLTOzlR6mXrGynGjz/+GN+s/AY9IsLh6+vH4hpmzpyB/v0HNJviSEqaTuiU4XBWuenWv7pdV1ZWVWLlihX4atlXiOkdw3gvyPI0e/btLCWyvfNOMQ/kvqGMDorJIJA6eMhgDB0ylAGlvn37NrJMJackM34JyiwhmVN2BcnfndW7kNullIAMEC6l9OV3yxLoQAkUFxezvPbDRw6zzZ4C0UjBE0FOS5s9KVzazLdv/wMlJaXw9/fHoEGDWB58feBeB/bzQh9FSn3Hzh3Y/OtmVv9h5MiRmDRpMosTaE+j5xE7IqU1njh+An7+fpg+dRq8rTwRbXkmZUVQhkNJaQlLoRwUO4hlVZxLjjZGyba8o6OupcDDlJRUloaoq9WxIMy4+Dj0jolhLpH2AgSivaY1SPwOFCNCTJdUU4EImAYM6M+yHezrV/yxbRv27d/HYg0GxcWxAk0UbNne93eUfOTnAFzimUTZgiCvBFkCl4EE6CRKIKG6ppopJCLxaW0MAd1LPmnyG9MpkjIBbJHwXU00BGgoSLAgvwAuLs4ICAi8YCBDz6Soe1LsRI4UEBBw3voMzcmFwEZFRQXq9HVwcHCAq4vrRbcMtHa+aMzU37KyMhaMSad3Iseyz2Ro7bPsr6O4CwIG5HJpHLXAwdnJCY5OTo2UfyEBiVodsxi4ubq1OwajPX2V72lZAjJAkFeILIHuKgHafS08IABifV1hu5oHrXIc2w2eAtFapPoVwfFU6rHdpIcdI2lGyASWm8838We37QWS+pLi7xoKM7OAPFaD4uyn2WpJNP8e6azV8F9WrpLecNbl5ylv0bZh2D+fjcXa/7OCCpv0g/1TCj60r5PRMO62nB2bCIsqYNr1q9Fv2eD5+kyL5gI+2ygA+fJOkgCXcDqhLaugk7ohP1aWgCyBtkpANHGoyRSQm1AHiEpw9UqurU+yXW/bCppDFhaY1XXw662BV6gDOEVb0Ud7+9SZ94mwcECdmUdxlQnVOmPLL2PybWncpJjtttP66xt+Tr/W8gKCvB3hqDnf89o+dl4wozo7AwZdJSAKrD/15bGsfbPvIoMI7IImZ/3WVF08G/bYo80mv2X0S+wtFo0DnHyD4eBCLqHLYR21fZ66yx0yQOguMyX3U5ZAEwkIOg65ew04/HMpeEELXrBG3dsF35MyqD8onlOCLZ8RSIGInAV6bTn6XeeB6GGeUDLl1t2bADM45NeYsSuhEKczqtmAJN14rvG1lNlgk6M90LKWypSeDF4U4cFV48arohEW4GatbtlxsuTM1Tjy1WeoLcyAyAO8SPwFdJYXrEU7pb7Vg0nrq5srR33hgLPx+iCAYOF56F3dED3+JoT2GSIDhC7+CXGnEk/JFoQuPkly92QJnCUB+mrNHGpzReQlGMGJCkkB2Oka28GwIz5wkRNgURng21MNj2ANoOiIp176eRUAlOkFHM+qRHpejSRDG6hq8YTcvr7zEOGqNGBUvwD4uTuDb3qcb99jrUof4IQ6pG79BXXFuRA5AiQ2gCANqlkoYht0ozLdHQda7Idk4RWwOLsiOHY0vMOIUrpz3nMBYpRvtZOADBDk5SBLoDtKwOY3NwNmQ8sDaO502K4hc4BCA/DExnsZ7etmAag1CtAbLdYTvdXqYj9Gq8m9kTWmPkyh9cJg3ndOgLNWCbVCqnnQYbJkAECAvqoCgsnI7Ab2ISXnxiKdB/bEpsEWHAeRV0Lt4AwlkUd1bDBGu5a1fNO5JcCdTDjZeatDlrwsAVkCsgS6mQQktXpupW+/YTZ/VXOxHA13MUZD5vKXKiF2XrMzhXTma1oawLncNZeqP50n7MvyyTJAuCynVR7UlS6B8yuxK11CrR1/W85PNq3XUrBna997Adedq8uNLCKXUkOfy9dxAWOWb+0UCXAnTp1oyxfQKZ2QHypLQJaALAFZArIEZAl0LQnIAKFrzYfcG1kCHS+BjjgCXMoDZ8dL5NxPbJztdzHfLL9LlkCXkwB3/OTxjtg+utzA5A7JErgSJFAfeEbBXxSUVv81N7InW7MbbCl3lLco+cBttD4NsrL3v9tpy/rrL0+pUtyBwSwyWmCNWgklz4GrJ46ykQ/R2O1pj0SWKdBsY1b0zkFV0ivtYhps00lvpLADu9eyAFWKcxAlFgLpVxTKKP3XlukijaGZ/lqfbRuj9G7rOmr6O/q5repjk9/Z5NayRGzrs/5tzazPy3P9ddVRyQChq86M3C9ZAq2QQPP6yX6jJRXBS4pMFCAIpDCUAMfTT63qzqY4bC+0AQMJLEhXSWBCECzgKH2Ov9R0iq0QThsuIT6EtPwSZGTmYWCvCPi4u4CHNUWQKTtJFpLSJ/XaoKCbV3p0kyRhkhnP2TIWOuA8JnJsPiU1byVDop+JDeklnK3vrAcN3A00k9QfcI0rKtbP/DkrWErgQ2pSfoQtkcb2M/YWBozszTD0dysQsUpNYHhFeh4Rc0qr1baezpbPBfN/tWEdyJc2loAMEOQVIUugO0pA2ndhNgEWswCViodSQVszD8EsQBQFKFUKWAQ6FQtQckB5YR2qyg3wC3GHyokAAmA2S4pfoeTYH9qtiZ+fdm+6XxQ4WMyUmsfDWAHkZhbB2dsB3kHO4NWXT7AZAYSiqjqUltUg1NcNWo0aJkGAwEgRRGiUPHieg9kCWCxS9gHJm/5QM9MvACgUPAiDWSwWQMGjrNaCgoJS+Lg7w9/DCSrGMNxekEC8BgIsBh0sZiM4BQ+FUguFUgmqJEkTZdIbwPE8VI5OkoXIIsCo0zHmS6VaC4HKMKcmQqV1gFtgCJQOLhJYsAIHwWiw/l0ao0KlgmgywSIIUGm1EBUK0ABFswlm6gOvhFKjYTISzWaIFjOTGccrWGVNs5HSLQGlRgtOSWyfIruG1hh7vlLJ5ET3W4xG8BwNwyL9nARJlhyVml0r6E0QFDx4lYr1WW6dLwHu2Ilj7V2tnd87+Q2yBGQJnCUBpl/qeFRkmJF8tBL6OgOcvRToMcATjh4KZJ4pg8FUiwGDw1CYXYmctHL4eXoh56gB+ZmVcA3nENrHESpRg9RjlVAoNNC48wjp4wL/cAeknc6HwWxGVF9/mKqB1MRCeDo7oTwNSE4og9pHQMwoD4T2dYfakTbq7r+FkFpMLqxCZnYJYiICUFxZh9NpRUwBwmRAz3BvRET440xmEZJSSqBWqODurEavcC/4+rggISkDaoUS0T0CUFxVh8zsQjh7uiMxuxo56UXwd1VgxIAgRAV5QUsooT1NFKEwVmP/uq9h1tdBrVFB7eGPqKHD4eDggjNbf0J5UQHMGjV6XzURXv5BKD16CEnHD4PXahHcMwZOoohDv/8CuLvBOWog4idMhULtSBAHdaX5SN7xKxSiGXV6PVRqNatImZebC4MgIqD/IPToF4+6wiJkH9uH4sJcqN3dEdZvEBwcnJB/8gjqKkpgNBnYv11ozZSVQWcRERY7DMG9+kOsqUZh4nEUZqXDwonwDo+Af6/+4MxGZBzbD4uhDpVVNXB0d2eWD7NKjcjYIXBRO+DI7r/gHhaBwKg+UKkd2iNB+Z42SkAGCG0UmHy5LIFLLQHOxKMyzYDdP2bDxdkVXt4uKMyvhOhYh0Gjg5CWUIgKfSUm39Qf6SdKcPpgHvr0DUFhohmFRVWIHuEFr2AV8k9XI/1UDXpEBaC8tBo15ir0HemDwpxK6E0mxI8PRV0RhyN/pSM4xAWGYg0y06rg10eLiGEu8Ah2gELd1G98qaXT9vcTvCGAcDCtECcSszB0UC9kF9Ug4XQOekWHoFpngElXiYEDw5GaU47cvCqEhfijqKgMStGE+NhQJKflwVGhxPBBkcgoqcGxk8kICw1AZrER5QUV6B3qitievghwd4Sq3XUsBCgMZVj/8tMIjY6Gn5sHks8kQvD2xoTrbsSudesRExGMhFPHoffwxeSbb8dfn38IC29ERP/BsCi08FZx+GvTOvjHxcOjdzxCY+LBK9TgRDMqclPw9zefwt3XD2HBIUg9cRSCUoke0X1RVlqActGCEZOmouDkKWQlnUR4ZATKSoph0GgRHNoDqQf3Q+PkAD+/AOSmnmY01qERPVFclA+Toyv6DRuH0qTTyE0+BV8/P+ZeyC7IRVj8EPh7euP4H7/ADMArKAIaV0+oBTMSTh1D/6vGAXojDh3Yh7hrboR/ZH9wCnXbJ1q+o80S4I4eP9r94X+bhy3fIEug+0pA1HHI3qvDkQNZmHxHTzg4KVGQpMOhndkI6+0CUw1QbijD1bcMQPqxUiQeykfc6GCUZeqRX1iJkTdFQa3mcWxHFspKdBhxTU8YSoGju3LgHqSE2WBBrdmM+MkhqCsEDv+ZivB+rhCqnZCdUYw+47wRGOMKqC4PRkXaAPXgcCC1ACcSszEsrheyCqpQWVyKyWP6ITm3AqeTCCz4oqhUB8FgwlXDeyGnVI9DR1MRHuaG8nIdnHglRsRHIq2oGkdPJCO2dxByS0yoLq/EmIGhzHWh4shq3s4tVxTB15VizSuPY/j0WQjuOQC6pKPYtPF73LTwX+B1RuiLMpGweycyOBVue/hRpGz8HqdPHUTUsFGIGDwKFoMB25Z/hoHTb0JAr8FQqFykyArRhIrsFOxdtwI9ho9BeHgEzvz1O4pr6jDupjuQe/oYTh/fi35DRqLoyFGUleQjsEckqivKoVOp4OUXhLKcHPj07I1evfvjxJ+/wQgeseOuQebxw8jLTkNYZDQKU5Ph6B+ImOHjwZs5HN/6E+osBvQIj0TC0YMIHhiL8AEjoVCowddW48CG1VBxBlRU1kDhH4SBV98MV69gqRqk3DpdAjJA6HQRyy+QJdCBEiCXeA2HjL91OH4kG9ff3xsaJw6FZ3TYtyUDgVFacEYtSvXluHpmP6QfKUPCkQLEjQtCRZYeefnVGDMzCioFcPSPbJSV12H01CiYyjkc2JYFZ18eMInQ6c0YNDEYhiLg0O50hA9yBaodkZFaiH4TfRAU4w6RpwC5DhzbJXpUPUBIKcTJeoBQgdqyclw7dgASc8twLCELUT18UFapB28yY9zIXsgtN2Lv/iSEBLmgoqYWGlGJ4fGRSC+sxomTSYjrF4z8MgvKS8swbmA4wnzdrYGhQvsYhhlAKMPaVx/HiFl3ICQqFqb0E1i74gvMnP8oTmzbAgeNApbaWiRUVGD2wqdgKi5EyZE9OH7yCNz6xKL/kFH4fdn7iLthFkJihkLgtOA4ngGE8qxU7N+wChFXjUdYaARS9mxHbnk5Jt9yH3JPHsHpg3+hZ1w8Co8fhcFUhz5DxzDebXID1FRVIvPMcfjGxKJP34E4tv1n1AlA/ITpyD1+EJmpCQgOC0NxRircwqIQM2oSOIsFx39bj/LqckT2iEZywgmEDx+N0H6jwHFK8IIJpQd2IHH7JuTpdBg6624E9x0GXuV0eSDTS7Te2/Ja7sixI+2Es215jXytLAFZAh0lAd7AoSTBiL/W5SIk3Bs+/q7ITatEubEIQyaFoDxdj7SEcsTGhyM3vQJFNUWIn+KPyiwzTu8vR49YP/gEaVGUUoGcNB36DgpCWVEdsopKEDPCHaZyEdmJOkT29EZthYikjAwMmOQFjdEFCfuK4R/hAs9ePLwitHBy03TUsC7Zc2wA4WBKEbMgDImPRk5hBerKyjHlqoFIzC3F8dNZiO7hg+IKEwqKdOjTqwfyCsqgKy/G4IEhyCrVIS+vClE9QlFQqkNJXg7GDu+B4hoBp5OK0DPYG1H+WoT5OsJZq7JSLLcRXVkBwo8vL0HPgfEIDe+J0wf2oshswrXTb8LaD9/G5KlTkZ+egdM5ubh+9r1IO3YUga6OSE44glxRjSm33oFdX34A9+BgBA4YAYegSHh4BYITBVRkE0D4BlFXTUJoWCRS//4dOSVlmHjLHOSePIzTh/Zg4FXjUJGRgrSEY4jo0x8qrRMMPA9RtKAgPQW+MXHo3XcQjm3fxKwy8ROmIfvYAWSlnUJk/1hUZ2SgJCcbIdHRUEFE0unT8O3TH8EBQTiwbxcih45BeN+RLNOGgwkoycTu1Z9D7+yOwdNuh6tPCETKwrkckOklW/Gtf7EMEFovK/lKWQKXXgKUzy7wEKtEFJ8w4syRapiMFmg8gfChzgiMdEBVpgmJuyphrBWhUCug8tKj13A3oFaLM7srUVZdjdBoZ4iVHE4froKHvxOUzhYE9nNC2AAXmCpEJO+pREWBEWqtIwyqMkQNdUaAuxcSd5cjt6AK7lEK9BzuCXcf7aWXSQf0wERBivnlyMgsRM/oYBSW18BQWY2hA6ORVVKFlKxC+Aa4IyWvDieTCuHv6QJXjRL9enghKtQDhTUGHEvIQ0WFAWq1BmregPg+/lC6uOHgsRxUFJWjd4gnYmP84OZMyq8dzQoQfnppCVzcPOHo4go4uaLX2Alw9/DEgbWrQKrT0UmN7NJS9Bs8DHVFRSjJzYWeExEUPxI9evVH6cHdOH3qBDhvP8SMvRae/qEsu6C6OA+Ju39HUOwQ+PuFIO/UIZRW1SB2zGSUZCYjIyURPeNHQG0wIO/QHhTlZ0FQq+EZ2ROuvr4ozM2BZ0g0wsIjkXr0IAyiiJ6xQ1GcmoSigkwE9uwLD4UKWUf2ojQvA2ZOhEt4JMIGDIVGEJFw7BACevaBX4/elFfD4iJqzxzA7s0b0GPMeIQOGA2V2hminMHQjsXTvlu4w0cPyxaE9slOvkuWwMWVgH1WIeW9mziY9SIoo45XAyotozdgZaDZz81S+iKVZlZoRAYszHWAQD8XOZz6Kw/FRbWIvyYCDh48VFqOVWrkKH1ST+lmxHfAQeAFUEyYkudh0YswmgBeQ6lr4mWTbUaboIkyBS0ieCUPyhqkNDuVkmM/p2xQPcdhx8EU6HVGjI2PhruDAhpKNeTBWAf0JoGllRLJElVsVNEvOB4GswWCSWDZCypKl2QcBu1oVoDww6tPIf7a6fDvFQul1hkKtYalNgp1tSyNUaHiYdSboHF2hWg2wqSvpfxLKB1d2HWcQQ+ToRYCr4LSyQ08b81EoRRFSnPUaFgGAaU3ChBZ1UWWmmgxgVdrwBMxgcEAs7GOPZenFEaeg2ixgOdVLMXRYjQwwiaFSg0IFojEn6FUsXgH0ahnvxc4DrxGDaVKwzIyzSZK3VSy6xifgqEGx39ajdKacgy87ia4B0SCE5UQz8nV0A6Zyre0KAEZIMgLRJbA5SaBJvQE0glA+q+NOU/U89YYBB1G3hANjQvlwltbe4PourscW2DkIXKfagHYvj+JKc6rR/SGo9IaKNcqOoiGi9oq3oZuiVDUleHbV5/BiNvuQlB0HFPIUmuAHNLfmpIV2V8jcV/YSLCk30g/Oxu6tARl7N9xfqN/46sbkmPPfgMxKVlQl3kGf236DuGDhyEsbiSUGmdwjCRKDlC8WJ8ad+jIIdmCcLGkLb9HlsBFkoC9ErLXe/U/t3DISapAbR2lwPlAQeH19gjiIvWzy76mCViQ4hSAlOwSwCygV7gvIz1qfWv/NtugQEUoTLU4tv1XhMcNgbNnILhOMLdLrJlWCNGGctRtBT4tyY5YIsvTk1GQl43g3n3h7OlLNFRSv2SA0Ppld4FXygDhAgV43ttbdbo471Mu2QWtpjlt5zhb/fxLJoGWt7G2dasNSqKd8my5P7aTo/UqimWgkydPNQUarAttMX93vflrXIOibfNzPumJsIjE+gcoSBvaYypWrkFiH+ysRrPHixaJPlMh0WV3dGvNfLJyC1Y02TBeqgNiv74br3XJetAWem6RuSUYyTUFQTaqbNH+cbdmfB0t0+78vP8HxL3SjJOXx7sAAAAASUVORK5CYII=;" vertex="1" parent="19">
                    <mxGeometry width="450.00000000000006" height="255.2932833552832" as="geometry"/>
                </mxCell>
                <mxCell id="5" value="Tanh" style="text;strokeColor=none;align=center;fillColor=none;html=1;verticalAlign=middle;whiteSpace=wrap;rounded=0;fontColor=#000000;fontSize=17;" vertex="1" parent="19">
                    <mxGeometry x="49.235133218518904" y="125.35714285714286" width="54.70570357613211" height="27.857142857142858" as="geometry"/>
                </mxCell>
                <mxCell id="13" value="Tanh" style="text;strokeColor=none;align=center;fillColor=none;html=1;verticalAlign=middle;whiteSpace=wrap;rounded=0;fontColor=#000000;fontSize=17;" vertex="1" parent="19">
                    <mxGeometry x="160.47006382332086" y="125.35714285714286" width="54.70570357613211" height="27.857142857142858" as="geometry"/>
                </mxCell>
                <mxCell id="14" value="Tanh" style="text;strokeColor=none;align=center;fillColor=none;html=1;verticalAlign=middle;whiteSpace=wrap;rounded=0;fontColor=#000000;fontSize=17;" vertex="1" parent="19">
                    <mxGeometry x="266.2344240705096" y="124.42857142857143" width="54.70570357613211" height="27.857142857142858" as="geometry"/>
                </mxCell>
                <mxCell id="15" value="Tanh" style="text;strokeColor=none;align=center;fillColor=none;html=1;verticalAlign=middle;whiteSpace=wrap;rounded=0;fontColor=#000000;fontSize=17;" vertex="1" parent="19">
                    <mxGeometry x="371.0870225914295" y="125.35714285714286" width="54.70570357613211" height="27.857142857142858" as="geometry"/>
                </mxCell>
                <mxCell id="17" value="" style="ellipse;whiteSpace=wrap;html=1;aspect=fixed;strokeColor=#A50040;fontSize=19;fontColor=#ffffff;fillColor=none;strokeWidth=2;" vertex="1" parent="19">
                    <mxGeometry x="226.1169081146794" y="110.5" width="27.352851788066054" height="27.352851788066054" as="geometry"/>
                </mxCell>
                <mxCell id="18" value="" style="ellipse;whiteSpace=wrap;html=1;aspect=fixed;strokeColor=#A50040;fontSize=19;fontColor=#ffffff;fillColor=none;strokeWidth=2;" vertex="1" parent="19">
                    <mxGeometry x="332.793030088137" y="110.5" width="27.352851788066054" height="27.352851788066054" as="geometry"/>
                </mxCell>
                <mxCell id="21" value="" style="shape=image;imageAspect=0;aspect=fixed;verticalLabelPosition=bottom;verticalAlign=top;strokeColor=#1A1A1A;strokeWidth=2;fontSize=19;fontColor=#000000;fillColor=none;image=data:image/png,iVBORw0KGgoAAAANSUhEUgAAAggAAADtCAYAAADa6o17AAAAAXNSR0IArs4c6QAAIABJREFUeF7svQd0XMmVJXi/SYvMhAcJEABJ0BfL0pf3pbIsllGVWmrN6Z2eabVmezSzZ3fMmd3T2nN2z/Z2t0bbas22WureaakkVbXKSuWLVPkqFr33noQhfAJIpP0m9ryI/xOZIEyiigQywfgliDA/f0S8Fz/ixnv3vacwxhjkJSUgJXBFJOC+XoqijPv83FdwovvGewC9wfzp4zdxRcaW+1Dehym2X4hs3DbGWqa+jKyuuCBkA1ICs0gCigQIs0ibciglJ4HRG99UN9lSG7BtXwok5EZfalqU/b1aJCABwtWiaTnOGZdAQcY6hQx6s9eop0AFWRtyrQcSIMz41JQdkBIYUwISIMiJISUwTRIYDyDk/94CFHuaejQDzTA9zxdC4EAChBnQg2xSSqAACUiAUICQ5C1SApdDAsxmjm2A/rVh2RYyRga2bcO2LdBvFcWCUpIAgQgIo0gIriGE/5p+IPuBFx6PF7quQ1M0QFEBRiDBlbC4T15SAlICMy8BCRBmXgeyB7NcAlkLgaXwvc9kGRgsjv6hHgzGY0hbBkykYLAMvND4f9mLzPFfyuXAwAhoTLTXErGQqZNvyEoBTg/a5HmnRxokbwlZBzgNmp5hM3g8PpQFAygPVyDkq4CKAFTmhUqi4R+1HYuCBAmz/LWQwysBCUiAUAJKkl0sbQm4AMG2aRe0kDSi6BtqR+9ANwaGYxhKDiOWGEDaTEJTFKh8087BCF8i0IhABT/AT7LPqmzyjZg/axL2JAcDoxqjn21GVhFqgyHgDyIUrEQoGERtVR3qKuehzFsDrxoEfV5VCSTkmR1KW/Gy91ICJS4BCRBKXIGy+8UvARcgGMxEMjOA/lg7uvrPoy/agwNHjqCruxsZK4PhxCC41Z3M7vkmhC9hQ1DAoE34OeEUsCYlRRKGmIw2Sa1l93an79x6AEDlVgSGSLgSPj2MRQtbsGTRMlSXz0FduAlVkXpoTOd2E1V1zA2T45biV7zsoZRAiUtAAoQSV6DsfvFLQAAEhiQbRs9gKy72nMX59pPYvms7YrEEwpEKhMrK4A96AU2w/PMsCJNuz2PJQAVDviVi9F1iD54cINBdhQCEse4ifoW4GAaHYkjETaRTSSxoXoA1N21Ac91i1FcuRNhXDtVWaficljDlpArFPw1kD6UESk4CEiCUnMpkh0tFAgQMhA+ewWY2BjN9OHfxGC72nsH23VtxsasTy5ddiwVNLaiIVMKje6CqxPLP4SA4m+voMRfidbjUKzAGm2G0H0LQJEYjlDyAwC0PozIzEemS+AMjl0NK1FTYls3HPxwfRudgFw4f2Y++3l6sXbUeK5eswvzaZZhb2Uj0RWiEDsbgO5aKzmU/pQRmkwQkQJhN2pRjKSoJ5AIE0zbRFbuIC92ncPLsfny+/RPU1zdg/drbMbeqERVllfCqXijMA4WHAuZstaOP72Nt4peMnDZr89Kzfx5qIN9BfthhwQIcy8oxKvqCmhLWEwWWbSORHMLF9AWcbT2OrVs/QW3NHNx928NoqFyI5tpFCHvCwk0xseGj4C7KG6UEpAS+mgQkQPhq8pOflhIYVwKjAcLFwXZc6D6J3Qe/wMHDe7B+/c24ZslNmFe9ANVltfDrfg4QLs8OycbgF1yKNIinkNfeGFET4kA/TgijM3rOdRxNQiB44qRgtm2GZCaBMwMH0DPQine3vAnDMPHgA4+jobIF8+uWopyiGpgqXAzykhKQEphxCUiAMOMqkB2YrRIYDRA6Bi+gtesUvtjzEY6eOISv3f8wFjYsw8K5y1Dpr4UOOs2rlBbgMlwEECZLuEQkwrF34zxDw1jJHcewaozut+sGcZ9l2gbO9h5CR98Z/P6jdxEdjOLhBzehsWYxmuuWIOKrgGarxGq8DOOXj5ASkBL4qhKQAOGrSlB+XkpgHAnkAwQDHQNn0dF/Fp9tfx9Hjh/C4xufRFPNYiycu5wDBMXWwFQGK8dUP9bpXezXuTv0pcmFaNtXR536x8rkSBBi9MY+ensWIYz51+jshwRH6Cv3GukVcTAAm5lo6zmBjt4zePeD36FvsB+PPvwkGmsXobluKSK+SmgU4jnbC1LIN0ZKoEQkIAFCiShKdrM0JeBuypZt4uLABZzrOY4v9n7ALQiPP/wUFtQsx4K65agIVoudWh0/LRKHBIznW4RpWdA0+t7ifn5R40CDbVnQdZH8SOEWCXEpPHwQ/O8URsldBjx8UfxHP4ugRIEG3OSH4q9ORAQT39E9Kj/lO8/MuiBGkyvFLW5OBss20N57Gm19p/H2h68hOtSPTQ8/jXmVS7iLIeQt5yGREiCU5lyXvZ59EpAAYfbpVI6oiCQwAhAsdA5cwJnuY/hi/wc4evwgNj70NFpqVmBh3QqUl1U5qZYnpvDziAjHgmCzDMAM7rO3LYoWUHkkhGGkoOkaNDXgbPY8ZSL/lGEY0DQdFH1ILgBd12CaBlRVFfsyY9Doew4RGM9+aCmULUHhSZyYZUIjHMOzGgkwIywF9N+lACHXakFEzbbe0zjXewLvfPwqBob68cSDz6C5ahmPZAj5IqIOhSQhFNEMll25miUgAcLVrH059isugSsFECxGlgADpp3gdRwSw2mAeaBpGgJlPr7Ja0rQsRJQrgMRhkh5CRhToCoqbPpX9fDf8ZO7k9SIGxFECAL5BWCqNkxmwqNqUKieBKVM1j3Os4XdQQCES7kDEiBc8SkmG5ASuGISkADhiolWPlhKYKSsMRVmulwWBIvZMKwMVM1AIjmAL7Z/gbNnLsA0RN6FjZseQW1tLTxaiKuA8XBHi1sK+vv7YFo2GubM45BBgY/jAAIUlBaZgIIISBCbPbNtpO0Uuno7UBYoQ3V5NWCr8Gg+7grI5R2MRS2UAEG+BVICpSsBCRBKV3ey5yUggZE6DBbnIFwOFwMBBBsGUsYg9h/chc2b38UTTz6NsmAY23Zsg2Vn8Nijj0BXQ/B4dU4OJLdDPBnH7zdvhmUzbHx0I7w+PzJpC0NDw/D5/KisqOT8BMsw4ff5YZlUbdLAYKIXv3vjVcxvXIC7br0XAW8IXo3cFyOFnsarwSgBQglMUtlFKYFxJCABgpwaUgLTIAGyIFyMns8HCA8+hZbaa6bMQSD3ggUDGXMIv33jRUBjePBrD8Oygda2C3j/w/dw++23Yf/eo7j/vvuRNhL44ovPsGz5UmzZsoXnH7j77nugqTr27N2NmppaDPQPYOU1K9FQ34B9+/ZzAHHq9Gkc2L8fK2+4Bi+/9jKqIjW4ec1tWHX9OoT8FU7+BCdMsoDkTcRBaO05hXN9x/HOR69hkDgIDz2LpsqlmF+zDKFAhJfBFhESMtRxGqalbEJKYEIJSIAgJ4iUwDRI4HICBLIfmMzAULwHv3vzRdTOqcLdd90DkwG9fT148ZVfY8OGDdi1cx82PvYYLMvAli3v4p5778KuXbvAbAX3P/A1HDt2DGfOnsBdd9+J8+fOY++evfw5u3buwTee/QZOnz6DL7Z+gQcf+Ro2v78F8xsX4eZVtyPkq+RWBJHx0dnIOUCYeFOXAGEaJppsQkrgMkpAAoTLKEz5KCmB8SRwOQECuRhMmDDMYfzu7d/AVkw88sijnENw6uxJfPjJFtxyywZs/XQnHnnkEaTScXzxxae4447bceToEaTTGTz80CM4cuQoTp4+hsc2PoqD+w9i+7btuOvOe7Bv7z4883UBEPbt3Y+HHnsAb73zNhbNX4bb190NL8rg1cp4aKVIoiDSJfKfJ7gkQJDvh5RAaUlAAoTS0pfsbYlK4LICBACGnYHF4th7cBve3fIW7rnvPgRDIbz/0RYsaGnEkqWL8MHmT7BkyRLEYv04d+EsNj2+ESdOnkR7ezvuufs+nD9/Htu2f4F77r0bp06dgW1YuOnG1fj4o09w+2134PChIxgaiuHJZzbi/Y9+j4Aexs2r78CcikaU+cpzLAYijwJy8i6MpSYJEEp08spuX7USkADhqlW9HPh0SoASJXUSB6HrGLbu/wjHThzCYw8+gZY6yoOwHBFKlEQn8Mlc7wwQJEULaXMY/QMXcb7tNDZv3gxKQrhm7RqsWn0TT5508vQpfP7ZZ6iprcaChc1Yec016OvvwXvvbUZ9fT1qqmtw6NAhZNIGKioqcc/d93Ky4rGjx/D5Z1uxZMlSVFdX4867bsehw/vw3tsfYM2N63H/3Y+gjHIWOLkSSI4CIExgQWDgbpH27rM413cCb3/8W0SHonjy4afRVLEYC2qWOrwGSrIwnZqRbUkJSAmMJwEJEOTckBKYBgnYHCCcw5mu49i67xMcPXEYjz20EYvqlmN+3TKUB2sLAwjZJEmUpMiAaSVgmAmk0kmet8Dr9cPvK4NhWUhkhmGYhsh8qCnw+ykyIYNUOgWv14uDhw7gwrlWPPi1h6DrOvzeAKioErkg6HNEFqR8BwG/F+lUikc8BIMRBP3l0FRvntREwOMYeRCc3xNgoVoMHT3ncL7vNN766Hfoj0Wx6eEnMb+yBQsJIHgrBegYCY6YBs3IJqQEpAQkQJBzQEpgBiWQDxA+dQDC42ipW4YFHCDU8JTGiiKqGkx08TvI96/YHCTYdpqnXFb55ymbocb5CGRn4HkXKYsiL6tI/xO/p+RK3V2dSCRSaFnQwsEAz47I6PMiJMHd8Gm/JhcJ8Q00yn8A3eEbuARFJ/3yOImS6NkcIFgZXofhXN8ZDhCiDkBorlwkAIKvwkk3LYMYZnCqyqalBLISkBYEORmkBKZBAiMA4QS27nMBwka0cAvCUseCoDgAYeIqjIx8CRwgUMfpXpMDBL6lKxoYz4BEIMHKZi0W+QgYGKOsiSpMSpnM0yvzggyinoOb14CwhJNu2S04RS2JWhDClTBWPaVLfsfrMLiOCAbDMtDRdwrne0/hrY9eRzQ2gE0PP4XmihYsrHUAgmtBmAadyCakBKQEJpaABAhyhkgJTIMEBEAgDoIACEeIg/CQa0FYighZEBSyAfCCzxP3iCkcBPC7eI0FAge0yVMOAd0xFjipk6moklMwiVIqu1s2FVsSRZ74Q3j6ZF4niVsRxGcEKBARCvxXTuEFumUsrsS4AMH5rGGl0d5/Aud7TuHtj95EdGiQcxCaKxdivgQI0zALZRNSAlOTgAQIU5OXvFtKoGAJ5JZ7ptN8Z98FnOs+ic/3fYQjpwQHoWXOUsyrWoSKUB0YNOgOSMhthG/Mo64sj88tu8itA+55fawi0SMP4N6GkWKMzh/cX2aLNOa1mNeFsYiUHKjkX6LfTrVIRYVhptAePYbzPafxzofvoC/ah2cf/xbmReajuXYRQn6RyXFSombBGpA3SglICXwVCUiA8FWkJz8rJTCBBHIBgmWZ6BnowNmuE9h2aCv2H92N++66F8uar0FTTQvKQzXct6+rPmgF0PizpZmz9RTdjjg1FDjbYIwEyE6NhZG77RzOgwMs8kwBuYwIep5rhchtz20r3zUy4l4QVSKTmTguDpxEa+85bPlkCwYHh/D0I8+iIbwAzXMWI+h3IiOcehByckkJSAnMrAQkQJhZ+cvWrwIJEFAggNA72I2zXcdx8Mwe7Nj3Oa5dcQ1uXLEaVWW1mFszD1B0aIoPKicKTnSRa2D0Rj3q9M7pArkWhZwNPQsSiLNg5gOErGthxEwgEiDRz+TKoC/XWuCGNpJTZCzwMBIJaTMb8UQMnQPn0DXYgfc+2gyfx4eH7n4MjeUtaK5bDL8vDKjj1YW8CiaKHKKUQJFJQAKEIlOI7M7sk4AACBYG4n0433UKJzoP4fOdHwG2hTs33Im5lfPg1f0IBEOwTXLYjyQC4Nv0KJO+OOe7p3XxE49qyF7kLmBgWo4Fgf8998vd5w0R6UAXy41byAUIDidBESWjKXpC1Hp2ox6ov4xndMy7sl4HAR9SyQRi6R6cOH8Muw/swZJFS7H22puxeO41aKheAF0PcBcDEScnSwcx+2aJHJGUQPFJQAKE4tOJ7NEskIBbxVAUHgKIIBg3htEZbcWF3tPYe3gbDh8+gNqKaixsWohIOAI47D8Kd5zsGnH5u5t+LpIQAEFRLFFxkdEJX7gKKPyRLgpp5MREsgjwDd/5vAM0RBrl0b1wQiazDEbqpyaAAgESai/3cjgIPLpCVWAYGXT3duDMhdPQPB7cccvdWNZ0DRqqFqIqVAeVMjFKgDCZ6uXfpQSmTQISIEybqGVDV7sEUnYS8dQwOnta0d51HkeO78fJs0eRMoah6jbPEwBVg6JREaSveFGYg50C4AHgg8UUWMyAotmAynhCJE3RoFGUQ5aroEBxLRFkTWAqz4Vgc6AxUWSFe97Pv8cFI04ghLA62CpqqubixmvXYWHDUjTVLURVuBYBj5+65eCUXNDzFeUgPy4lICXwpSUgAcKXFp38oJTA1CRgMAMmy2A4MYTu3nYMksuh/Qw6ulqRSA9xA4LFUylfBgM7tyDQ3q9CtTWenVAkaM7wfZqIkAQGKDRSbP5uaCNZGgTngH4t4ANZB6Y2Vm6P4K4CZ9enREyKiprKGjTNW4C5NU2oLZ+HmooG+FQ/9QYqD6+g+2UqxalLW35CSuDyS0AChMsvU/lEKYExJUDFiphiw2Ym4skhRIf6MBSPIm0kYNlkPeDbKs+H8FUv7jxQNChkKSAMoDDYqgVbsXmeBdUW+RBp4+cplrIcBQISzgk+CwomycswRmcvwROUQZlAAlMQ9IVRWV6L8rIa+D1hqNCgMAbVtVK4CZu+qhDk56UEpAS+kgQkQPhK4pMflhIoXAK2RZkNFZiWwYGCYWU4s59cC5QhmXz0vGgy5yJ8tYusAIbqgcYIIJjcFGCqDClmQrUZyjQNWsaCRVwE7mZwt/ScMEkyKtDGTgmVxkrGUEAX3VwIwpqgwKt74PMG4PUEeD0HXtOBZ2GyRdZHbtFw0j0X8Hx5i5SAlMCVk4AECFdOtvLJUgJ5EiBSIE9H6Pj9KXmSSE5og1GWw8tYyJBohwajE7sFhdkwNQ3D0BCzbFCZpQoVKKOqkCJ9IgcAIrMi/SwsC7bjdSBugDZZdscCdC0Im4LnoKhEbszNu0DuBdtJ+SwBQgHilLdICVxxCUiAcMVFLBuQEnAkUJClvpCbxrnHTXBEm73NkDEyovaC14c+qOiGiq1HWqFaBu5euQBVjMGvMPh0nVsVyFJAIIFbMBQiJwqQwF0ShXSrIEWPQ2bgkRRuI5KDUJAo5U1SAldYAhIgXGEBy8dLCWQlUOgmOxkhcLznuJ+z6SRuwzQyMFUFSY8f5yzgjWN9+P3+M9AtEw/e0IIHls9BkwcIk0XDBDSbQafvnedwK4J6GSmD447fISe6bgzJQZAvjZRAUUhAAoSiUIPsxFUrgdGbJuUTKMCcPxpD5CZVJisAAQRyXSSgoc3W8PLRLrx2MoZWOwiPbaKZDeGx5bV4alktGnwqdAZ4oYByK4nkTMLlQRaEyfBK4bqjmAbxtBHGQ44AchM0XsZWC++fvFNKQEogVwISIFwV8yF3F5rqcl/osfeqEOSVGWTuHkl++GyWxPGaE4S/3ItARe7vKLWxwSz0GQreOnIezx3qwmF/CwZD9VCMBGoSnbjW7sMfLPJi4+pr4VNVBBQVOrka+KNFaKPtRBZMddaM13MqSMV5CDnZIC8JlhirlvSVkbx86pQkMNksyIWpU3qwvLlIJSABQpEq5vJ0y8mPT8xwvuSLEDqxlRSSr0+Cg8ujh0KfIiiLY6QwHPUAURR6FEIQP9IabjNYChBjDBc6B7F5z158imp8bM7FoF4FFWlUpPvxgGcAq31R3H7dYiysr0dQUaHZFjwOiVL0RKH8hgXkdpx8jGI25VoQCkm+NPlz5R3TJYHR3BBXf7n/kn6/ehTOdI1ItjOxBCRAmIUzxMmU7yzHtggd41n0cwGCIJ9NfhVyz+RPkXcUKoHJ5S3O3/mLMM8x5Oy/RFCkk38CDOmMgqhi4fmODP7+wBC6QBUTk6gxY/hPN8zBQw0e1Hg0BDQFPopWsC2oBBDITcHDKpzT/mSHxwJgTaESkPdNvwQKUO+lc87p5ohLTBw9ZCWN6dfflWpRAoQrJdkZfK7LB3ej20UMO73GajZ0TeL8GVTQlWg6x7pL6iYXg0k5DxQvYirwi9YEfnJwGG12GWwzhho7ju+vacRj83yoVMA5CERSpJBI7mPgzxMhj7wsQ2E7yJUYmXxmkUhg9BRwK3iMdmBK+0GRKOwydEMChMsgxGJ7RC5AEC8rkdac46U86RWbui7tz2SbMc9XMMaVNSFQmKMFZhsA8yOuAc93JPBfd3SjQ4lA1w2Upwbw5+ua8WhTEBWUepl7oyyODXieJgIZDkAo5Ew4ud2j+MV+NfdwsinHVw/noMHzZDjC4nMk55IHj9k1iyRAmF36dLZ/IrpRUh6XDka/plc634coF/ViVL7rK5iob85Jf/Qt2cWadncq1kQgwY+0R8VzrcP40a4enDeD0PQ0qqw4/re1TXh0QQgh2FApX4IiCIq0/Av2iljudaYKADHJVcAtkz1C/n2GJFAIQAATGTnzL3JbOqEujtWJVwKV16yQgAQIRaxG7lee5M11ywqPDIOAgcGXd0Z2YTd7HS/76xbkcTahy5Dzv4jFV4JdG036Gm8IDvl0Qgwhkh7B8mNYtfHLC3H83d4+tNkhKFoKkcwQvr9+Ph6fX4aIYopUx8Q64CDBjTEQhFaNV3YsQJyTTdYCHiFvmQkJFEKMJbxpcIDgps3mmTedNN1Z6ilfUyhSRVz8npx5MboM+kyMVrZZuAQkQChcVjN+56VgYOQlpO/Ei8hgM4O/mDxqQdX4SdBF9eIOZ0Eo6NhQ0E0zLpvZ04FCdmJxyp8o2oH+atGmz7xIKgp+3ZrA/7unH61WGRiLo8pO4Pvrm/Bkox8VYqYIm4FLXMkWbyLeCuMFnSbEI3wCzh4tXG0jmWw+kTwMi+plqDxLpwILmqpyWwG3S3JeK4eT/Mu9csGBCxhG1qqrTcqlN14JEEpEZyL5TT4az0Xp2e95Dn4bTNNgMiBDhASNXmexfss1vEQUPkE3R5bf8W8iJ5MJAxrzIAUF/9yewt/tiqKDohjUJKrNIfz5hiY8Vu9BOGdS8MXewSjuvxQyaRQwcXKTJZe+lK+eERTKG0g680Lj5cKJtyJcXeJnAVh1RmGxwsXALQ2jrErSglBa80oChBLQlwsOxgYIwv9Hf7P5F5BSVAylM4jGYhhOGEhZQNq0YNs2LCo5bJlgjhti8uFLf+LkMrqcd7jc8ImfOdl+rVCyJc0ADB/SqooPUyH8rsOLHk8VFCQRTvXh2/Uabgpn4IdwSZGbgUIceRJF7lbQxb/iF5MOUkY6TCqiIr2BTv4TwztOi/WGoShkNaD6HQp8uoaArqIiHEKkLAiPpiEABi93PajiQOIABHe+SoBQpFNgnG5JgFDE+hImO+ciqwABAGGn4y4DikizFAWmpiKjAgOpFPpjg2hvuwhm2YiEyxEMBBH0B+D3efnLyjcAlYhFBfixxTmgiCU0W7s2+WZ8ycgvSYlMOQstaPBhGDZe6sjgZwdj6EQlwJKosgfxH26qw131PpQp7jxz/nVKI9AcE9p3N5DZKm85rksTdOW+905ODKbwQwZRWzKmgWQyhXTGxNDwEOLxJKqqqtBUV4tIMAC/R+OYklsXGIOHVixat4g8S+uPSNc5KnFWTp4wae4sikkpAUJRqGHsTmQBAr0s9GJxcrrNOQUmE9nyLFVFLGOge3AAbb29SFsmVrS0IOzzIeL1cfY5vZge19THc/1zCuOkCX2LWDSya5dI4FJQwUmHTEdMMfHrtgT+264o2u1KniipmlGYYwMeawojnON+EhyVfHeUqA7xJUCL1FJJS8CdCy7XxePkYLWhcpelCQUpBu7KTJkm2ts70dfbg+qKCtTUVqMiJKwKfkWBbtvQTAs6WRbI4qm5lsksvVHIanRShZKWYOl3XgKEItZhLkDgpjmbgVkMpqIgpTLErAw6+noxODQMr6ajvroO1ZEIfwkJoHtobFShj2Lb3VXfAQZyuS9ixX+pruVbekTAightjcHCrxyA0GZVQFHIgjCA76+rxxNNYUR49IKzUPPoWGFJyM2IJwHCl1JKCX8o6xTIAkY31FXMLVUcUmiJcfIikHUzkU6jt68f0aFBaJqKObU1qIpE4FVUbkWgXAq6JsiNY13ZZaqEJTebui4BQhFrMxu1oJCHkJLfEEigTPo2upNDOHzuNDx+H5obmlDlL0OIKfBZChRdRLJrRBLiBAVRmS8Lz/nRQNrwilj1X65rORiB9E8WJsZUxBULv2pN4Me7o2g1yqGpaVRaUfz5+no83RxGOY9ecD7MuWY58JEf90ZMwV+uY/JTJSkBJyoqe6qneeFODSrk5WTshKKJcEcFSFkWMrBhWja6e3vQ2taKuXPmormxCR5d0Bfp4EJfYzkv3dgcuToVx4yRAKE49JD73mV75L6PhMyp7K4JhpTN0DsQRWdPNyqrK1FTVc2L6ZSpGrwWg0pYQBMvX25YJJGGiH2Wfb/ZGAV/ikQWshtfRgL5NiECCHTCo5CzuEoAIckBwoVMBJqWRpUpAMJT80OIKGQ0FqCSU1PyjnHuUi3Jql9GK7PjMw4wcMHiCOPQAZN0eKGFR4GtKdzCSWuWxYBEKoX2zovcQ1pXXw+f34+QqsLvZGYkYOqSr8XUc21VxKGRc26m548ECDOtAad998XgtDB6Hx1Tr8FooQdMhSGjKDhxsQ1mOoP6yirUBUPwazoPMeLvrhOQrPGkNzm0Iw7uR9KjivMgtSQJiEWi/sveDT6feJEujVsQfnkhgR/v6ge5GFSyIBhRfP/memwigOBkyhBkRDE7ck9w4rdysb7sSiqRB45Az5HvhEGSAKXDaHX+RAcZ4XIQ9WLJBZHMZNDV14e+oSHMbWhAVSiEMocbZZuUT2GEPM0/78xDWtnkNbMSkABhZuXm3dMzAAAgAElEQVQ/Yi1wsDP3zjkBBvSypG0bGcptoACt3Z0YtNJorpuLSs2LMpPBq5D9gOjCDKZKQALQnSS5+al0nNjkLCiQ4KBIVH+FuiFQJgHBYQ4Q4pykmAUIZhTf31CPx+cTSVGk0nIBggscR7zQYsGX19UtgVweioCMIysMWZ44l5pPEzftkriDLFkZZqM3OoD27i4saJ6PCp9flBG3GS8vTtk76ZBjq0TCFhBVkwBhxiecBAgzrgLRAZcpLiwIHEZzl0KGXi4A7X19GIzHMG9uHcJ+P3wW4KeYZIpT5xV2KORRRCYQbucva9aKQNuEAAiu3WAskqIkLhbJZLgs3aC5QCc8ARB+1RrH3+6kKIYKqIrgIHx/fT02EQfBLd6YYyfIhQNunsXL0i35kJKQwFhw0KnwkmddcqlNWTCZ5ToJGxQZGEzL4nyYjG2hd3AAnV1dWNi8AJFgkFcQ9RIYoPBrjjIEd4Y+KwHCzE8VCRBmXge8B4IdQEa5XIAADhA6BwZwpqMdSxe1oEpV4dU1XiCFQh51Iv64SUkcQE95E0WeA0VU5HOrtDvWQIfcPsbIc0hIRSIX2Y0vJwFKj0zWJJWpiLkAwbEgcJKiGcX/vqEeTzZGeDVHB6UKO4Hrn8prWsLHL6eJEv1UdiKM9P+SSBY6nLh/dl0MTskXvuo4hNeMYQjLgq4hbRroHRjg7oZFTfPhYUDI43UyMVKOBOaUjKFDDdkY5DWTEpAAYSaln9O2AAhUVY82fuHHSzOge2gInb09qK2pxZzyCMqI+cNTKSscadN9mqJyYxwPZSRqsWvv48EKLkDIISW4JLTRx4Rc9nqRyEV2YyoSyPEWU44MvtE7LoY2YUFocywIRFIkgPCUAxD4JycsJCkBwlQ0UfL3jgEQ8pIUjI5scdYUbvwkzpM7lyi5G8/dIixa9PcMA063dcDj9fIwSB9jCKoqdJ48ie6hL7J5Sg7CTM8jCRBmWgNOtAF3DnDSjwLLAgyd4tcZjp0/i0gggJbauQgSGHBPeKP6PTrneREMS3Zh2iTgbt6j0zQT2FQRV238oi2OH+3s5wBBU9KoJpIiWRCaw4iISjuOBYtcUc7zZHXGadPgbGvIjaDKTa0siLPgDtCBdAaHzpxGbT0dfCoQUTX4GNlPbQ4QKEOsW9NhtsmmlMYjAUIRaEvUURAYW7EpHFFBSlHQOhjFiXNnsfb661GpeqBbDNo4oFoChCJQ5Ix1YXyAwGyVl3seFyDMp0RJjk+BUalnshFLgDBjqpxFDY8FEmh4BBCSNsPFoUGcOHsSa66/ARHNA58T2cAUG7ZKAEFaEGZ6OkiAMNMacCwIVGiJXgxOMWQKhjJp7DtxHA3zGjCnsgpBpsBPXIJxos0kQCgCRc5YFyRAmDHRy4YnlEBuFVp3jeL5EWwbKcZw5PQJVJWXY/6ceg4QdA5OqWgYpWSWobUzPb0kQJhpDWRdDBQORORCFWnLRmt3N6KxISxetIhHK3htBr9KGcvG7rAECEWgyBnrggQIMyZ62fCUJECAgQAC1Q9NmBYGksNo7+jAisVLEPR4eCVICo6kLLCyUNyURHtFbpYA4YqIdWoP5Sibch0QqiZCj6pg39GjPF64KhyGl1KTUqoDemWyVdCm1oa8ezZLQAKE2azd2TQ2tyw9LzBOrlSb4fDJE6iqrEJDXS38VEOGorNoSo/nT51NAinysUiAUAQKcss4U0KRFBguDkZxsbMbKxcvQcjjgccmcCCyI/KUyfKSEsiTgAQIckKUhgTEWkdWBHKpakiaFi70dONiTw9uuHYlQlT90TIFQTFb8bE0xjYbeykBQhFolZvdbMqEqGCYWTh+4Ty8uhdL5zVy3oHHFmY3HjvEAYLMalcEaiuiLkiAUETKkF2ZQALCWkrrncWLxmRsseb9/outWLPqJtSFQghzC4IiAUIRzCQJEIpACa4FgeKD+40Udh45hKUtizGvvBJBm9wLLjigjUAChCJQWZF1QQKEIlOI7M44EhCRDRTuaBHTAAZTkNQU7Dx2DOFICMsaGhGhEvWWzRMrybPQzE4lCRBmVv68dRcgJCyGi4khbNu3B/fccjuq9ZzQH172hFwMnIlQBL2WXSgeCUiAUDy6kD2ZSAJZgEDBjrYKW9UwrAAXBgZxrvUC1l27EpVMgZeyxREHQS51MzqhJECYUfELcEBfJsUGK8CZaC+OHz+GxzbchgBPSQZYIkUiN7vJ0J8ZVlhRNi8BQlGqRXZqTAlk68449ewNRUVXKoP9J07i+uXLUOPzwCfrhxbF7JEAoRjUQAVNAAwzGwfbLyCdTuLmRctRZimgvEmmKsrlELNXAoRiUFix9UEChGLTiOzP+BJwnAxQqRw5HY4UDQMWw66jx7CwuQlN5WEEpJ20KKaQBAhFoQbKgQAM2TZ2nDiC+vq5WFJejaBNxZZcgEBJRAggSJtbkaisiLohAUIRKUN2ZRIJjAUQBqFg37GTmFtbg/nVlSgTxlN5zbAEJECYYQVQ8zyKAQoGLQufHzmA5cuWotEb5C4GIvMKCwKg2+NnUiyCYcguzJgEJECYMdHLhqcsgbEAwrCiYPfRE6itrsbCmioOEFR5GJqybC/3ByRAuNwSneLzXA4CZTkYtG18vH8PVt14A+aoHvhtihVWYFB5Bgp35BaEKTYgb78KJCABwlWg5FkzRAEQqHItVaYVLoaEomD74WOoq67Gorm1CDA3m+KsGXZJDkQChCJQG7cgKAoGTQsf7NmJW9atQzUUDhAoqYhBecklQCgCTRVrFyRAKFbNyH5dKoEsQKBIBeJfqRriioIdBBBqqrF4jgAI0oIw87NHAoSZ14FwMRBAMCx8sJcAwtoRgKAwEMtXgSotCEWgq+LsggQIxakX2auxJCABQunMCwkQikBX4wMEm5MUswDBpjwIRdBh2YUik4AECEWmENmdCSQgAULpTA8JEIpAV7kA4f29O3HrurWogQKfbfGCJhIgFIGSiroLEiAUtXpk5/IkIAFC6UwICRBmRFfugu7yeSkNkoYBw8KWvdtx19r1qGUqNG49oLQiDkGRYhkkSXFGNFbcjUqAUNz6uZp7l7/WkSScyjJQYQO8Bo2GOAQHYU61w0GgVU8ysmd84kiAMO0qcF8YatjmrYvMYjqihonNe3fgHg4QNI4FMio425ciGHgIgwQI066x4m9QAoTi19HV2MNLwYFY7wRIkACh+OeEBAjTriMJEKZd5LO+QQkQZr2KS3KAEiCUpNpyOi0BwrRrUAKEaRf5rG9QAoRZr+KSHKAECCWpNgkQZlJtEiDMpPRnZ9sSIMxOvZb6qCRAKHUNSgvCtGuwcIBAnjozJ4si76rkIEy7xoq/QQkQil9HV2MPpwYQdhJJ0UmU5JOJkopiwkiAMO1qkABh2kU+6xuUAGHWq7gkBygBQkmqTboYZlJtEiDMpPRnZ9sSIMxOvZb6qCRAKHUNSgvCtGtQAoRpF/msb1AChFmv4pIcoAQIJak2aUGYSbVNBSAAhsqgMsBDdZ+JfyA5CDOpvCJtWwKEIlXMVd4tCRBKfQJIC8K0a7BwgCATJU27ckq0QQkQSlRxs7zbEiCUuoIlQJh2DUqAMO0in/UNSoAw61VckgOUAKEk1SZdDDOpNgkQZlL6s7NtCRBmp15LfVQSIJS6BqUFYdo1OFWA4HIQZC2GaVdVyTQoAULJqOqq6qgECKWubgkQpl2DhQMEmShp2pVTog1KgFCiipvl3ZYAodQVLAHCtGtQAoRpF/msb1AChFmv4pIcoAQIJak2yUGYSbVJgDCT0p+dbUuAMDv1WuqjkgCh1DUoLQjTrkEJEKZd5LO+QQkQZr2KS3KAEiCUpNoKsyDkbmTuJ8bK0jPWfaUuFur/VMblysX9N/fFoGflZjgqHCDQpyhREv3LEyW5j5oN4pVjuIwSGD3fnEczBTYD4irDL1qT+NHuPrRZYWiKgWpjCN/fUIdNzWFUKAoYzXcGqIoCMDHnQN/LS0rgS0tgOgACtUFfKu9l7uo6Mnvde3IHQr9z7nA/VHTzfSp70HibQ/47PPqJk73h41oQGOysuEceQkrIfeRYgv/Ss6kIP1jI+IQ8xJIqvnd/I2arMxEVMYHzpzDJmH5D/+mIGiY2792Be9auRy3T+HMyKqAyBg9/jJNNsQglJbtUZBKg/Z6+FAvDiornLqTxoz3daLMDPDNnjZHA92+pwKamCMoFGnBmsfsv/Way5aPIxiy7U2QSmAaAwKwsQGCKmgUII6uxu4aLtTa7/mZ3SgLHzrpdlAChEJBAoD7nXc2eU0cOle4YxwZQ4yfoHRcguFuXWDrEY8WCMYK6qE+FdL/IZu0UulPI6Ej0I5PMxaVimRVXrv1AAoQpiF/e+uUlMClASOL7t5RLgPDlJSw/OakEphEgcHAwGiBQ+7bz+1HWXWEwy7OSFSccnnwPKgTIiz1c7E4uWHD3ponUOAFAyDHB5D3WWXlI9IrG7QxX8zV68yfh56qUvteyBrAcBMuFJi0IV/PcuaJjlwDhiopXPrwQCUwDQOAAQLgYxMY3sv0pENYFGzqsUdaw3IOcu1FOvhUXMubpvyd/Dxq7fQGd3N069xNZe3f2MJv7hAlIiiR4Ibo8Xw4bcT0wRc9DI9MvmivdYuFTZgQWCOG76hBTV4AEceU+UwKEK63Bq/b5EiBctaovnoFfeYAg3LO5h1lxRBN7ltirGDTna0QyI5+gRHR0nwJyURTfVcgelOvaHtlj8rf+sXRBu9LIfuUCpckBAjkvbYObX0hoNhTYQoZgjEHj/9pQFG2WE5ny7SMkFoVkQhMq669S+c+aCigkExIS14xAtMIBkevjmSpAIMMZ4OHylxyE4nuBi7RHWYBgY1hR8FxrGn+7pwetlt/hICTx53kuBjEOd4lUnLlepKOT3SoJCVx5gOAeY0cOX8KULmwJzhHXZmBMrMVM0WDxvUvlaznf3ThAIDf+yDGueMQ7OUDIcijcAyhtVJx0zDjpmEMoVexH/P/5PuVCJMc14+xnoyHSmBYEvvlbBqBqMKAiwxSkTIaUwWARQFCF153EyfsyKy8SK5moclCn7QicWN6qEKWiavB5VPh1BR7YHI0qtLpmYYFD7MwCisIBgsykOCsn1vQMyvUEqjZiAJ5rNfDjPT24YPnGBwg8ekEROHTUe02LqbykBKYmgekACHxrz7EYuFBBcQzqCmzT5PM6aVjI2ApMpsJyukbrtarQmk07muummNoor9zduW6B8VqhceZEHjkAQNc1MMuCqgCarkH3evi+rRFoYBY0GrPYwWCThYUAU54rXLQ3DkBgsG0bBlMQN1UMZhg6B9MYSmWQsRiYotAHuTh5WNQsvUQkxyiAQEiMxk6SBxDw6qiJBFARUFHhU+CDBeF4cUwuXD65lhYJEGbpdCmuYeW4GGKKgl+2Zia3IEiAUFw6LPneXHmAIFpwneHiX9r6BPtA4UAgbQGxpIXeoQT6hpJIWgo0r5+HANMmSg4IOu/ZJepisB1ypmMjAZgNZpnwaCqCgQB8Hg3V5T6U+xX4NQqZt6FxkOAS7FXOJywIINDmR4JLWQoG0wyt0SS64zYuDmXQE0sjYTLEE0l+guYm91kcCnUJQODWEwEQdF2HR9cwJ6yjvjKI6oCG+nIv6iM6ghqDzs07wiVxaWio++ZPzEGQFoSSXyGnbQA0J/MvhdYJQLEQU4HnLggLQqs9gYtBAoRp09fV0dCVBwhCjm5IglhqXYBgMGAoaaNjyEJrNIOBRBo9QykMpiwkMgwm95uPHHTdM3Xx6MZxFUzQIXEUJSu1C5KEFVvXVP4VKguiuiKE5rCNuWXAnIoAKnwavGQ3UOhe8Ulyr3Dr4ehVxKaVxfFZ0GZG4MBkQG+c4VxfEheiaZzpS2HvifM43d6NpMUQiyehaHROJrNEMRI7LpeKc4M9nWcSJ8Oy4PH6EPBqqA8yXL9kAa5d2IB5FR4smhNEfViFD4CuUOIZobsRQ4u0IFwu7czG57izI48YnGvFcqdh3uCJF+N6XJ0/cAsC+R4tDCoqnr+Qxt/t7kar7eNvbLWRwH+5pQqbmipQoTiWMgcg0Fs90r5jiOQJlC7BIDmeXvrb2NbE2WtjnI0z8HKOaToAQg44yLEaGAowlAYu9MRxZoDhdH8GR06ewcnzHRhMCoBAFgNGp2h+0r2ULXY5JfHlnlWY/95yXIJuKCPlzdE1BbpHR8DnR3PTPNy5rAaLKhU01ZajsdKPkM4QUMm5IF5rkgW99cLRMHIpFrPIIyPCQZiKDHQMpCxc6I7heF8Gn5+OYtvxC+jvj6I65EV1yA+PNwBb84tT8mSBjnyMxbZEcNPHJNdIOKeISlA50cNmCkeehmkjnU5jsD/KTVTLF87H2hULcV1TGMvqdMwJCHMO+X1o6VYcl8TUoxhkuefJNDVb/k6vist6IWQvvIu2IPqo7lnHCeWi0w9f2OgNtGGT5Y+bV20HLNiw7DgyioJuW8f7HWn8YvsZ9GgRMCuNOnUI31q3EI82VKDczEBTFJDfUldUAfttFarihUonC1WcLvibzA9doj/c9akKYCJYN7kkLz7rxWfE+it+Gm1Qmy3Kk+MYQwLTARBMWJQxlK/CYloapolBU8WJPgNnBixsOx/F9oOnEOvqQIXXi6ryKnj9QdiaCpvmr2oKv7ydmyHg0uEUtJXxm0bel/GnhXhbv/rFoBCfgKlQKLke42x5JIw00owhGktjMJ5CVUUQG65fjDULG3DNnAAWRoBqL/XUAlMVWI57xXMpQCBYYHEmvqVoGMooON8Tx/HuBHad68dbXxyEoflw3dL5uLGlFnVlHvh9ZbAVH3RmQWVmAWMsJivD5GYbd0Bu6KL4hCC2cH+PqiKTsZBMGzjfE8P+I8fR2XERi5rq8NDN1+O6xjAWVXtRF9Lh4amSR4WKZiUmwxwLmDxX1S18g3e2VjoJcHBKlgAeUeQuKfS+GmDM4lHepp1Bxk7DtDKwmAnLNsGQQZoNwQDDsBbA4QHgk3NDGNQj0G0TVXYUa5vCuKnSD7+V4TPUo+nwah4oFnGMdOhaAF49CI/mh6Z4oSkaNL4QEZFReCxth6xLShp5y/M9w7mER2KPy+tqkcA0AARm8DXZVDSBlxk4T+5sXxwHupLY3z6M1z8/gITBcOPCeVizuBnVZUH4fbQ7EoPPgqKY0IisyPQJFZPNcTOawTvqU1kwPC1qZrBUUwAEW+cggdaENEwkTRvd0QROnOvAwTPnACuDh29ZjVuXNWB5rR/zK3RuRSChiSyUCkZLQCEXg8Is7lowFBWdQyaOtQ9gZ5eN3364HUPJDG5ZdyPWLq1HUzCD+pAOn9cPg2mCtW/nM/0vlcmkR/VpEeM4eHByK4IDDshHwHkXToAIgYXBeBqnh2y0RdN4/7Md6Ovvx9qVi3H/uuVYWqNjcU0QAdWCl4fTyFTLM6ToEmqWoAEBbkucBPicEXPOVmxYsGDSfywFA3EYVgrpdBwWS8O0U9kvy87AVgwYyjAyRgpxw8IgwhjUqhCz/fDYNipYHOXmADwsDl0DvB4PPLoPuuaDVw9AU8l6EOBLhkcNwqeWwaN6END88KlBeFT6m4ccafzEJHJ9jDaJujHqpAI3Wp3OKMW6JpTQVCmJrk4DQLAJApOrgMIXwd8e4hgc6RjCsaiB1z7Zi8NnO3H7+vXYsLwZCyIq54r5OG+csxT5IZcsdoB3Umv3ZNmDhYHMTf88kZLIJPjVwTI/NOgWfxa3IPBQTsBSGJKmha7+BLoGkth7IYrff7YNC+dU4vF7b+YAYWVDCHUBlVtOuA9cGCTzLhHFwBjnHQybCs72JHC8cxi/PdSHz/YewvVL5+O+tctx7RwPllYwVHmJoOeFperQuKVxEjNJQXaZGZjtk6DAsYEOuRd4RRv+56Gkida0huM9KRxti+HV9z5CRSSIJ+5Zh+vn+nHDvDJU+xi83Gzrml8L5yBQK7IWwwzMjRlrkhYsI5tbXoADWvRsmEgjbceRthJIIYa4FYVppmAzA6l0HInkADLpONIGfSW5NSFtp6DYBryajgy8yGhhZJifb+k+I4EyJcXv4RBfISY3uRM80DQBFnz+EPy+APzeCPzeMPyeAPxqAF4EEPSWw4MyeBQBFnR4uGE1NxW7Q3/ifl461QgTsFcChBmbX9Pd8DQABMt08sNofA9L2UDrQAb726PYdqYHr3+2Fy1NLXhwwyq0VCtYMdeHKo+JMi9tqDTtFV7rJjdd/oRSKgjbOqaMiR7EkUZBD5tYaQpgcnRD4xDQm35KWybSTOV7VEdfAgd6FXy07ziOHz+K29ZdhzuvX4jr5gSwuMoPv+v+ow+OSgWhMHJegsGAgv4Uw7H2GI51xfHLrafR2dOLp++7GTcvqsCKKobmMINPJbOmDoubHAsACNxReRkEcVnndgEKvKQ9sfi5TFeSpWEx9GeA00MW9ndY2LLrOA4cOYpN927ALS2VWNMYRHNY4f7dEclPFSC4HAQnSVKxifKy6mWWPUy8t+NebuRBNscAYXVbzDB+CmA2bNVE0oohaQ0iZQ/BsBMYNvoQM/oRiw0imYwjnU7ByKT554ic5PF64PX64aVNXVfgJQIWbfzeMhi2WAE8zILOTL6Q2LTI2AYymTTSZhrpTAqpdBKGRa4KBk33wusNIFwWRnlZNUK+CAJ6GAG9HAGtHH5PCF6E4GVl3FLGuQh87GK54vCAcxUod0oh/tlZNg+u2uGMDxDILUBmfX44VTXEoWDn4aOYU1ODRXNqEaBNu5AQejIbOIc9euawBRzpjONIbwq/+XAnTnYP4bFbb8Ydi+di8RwdCyqAANI894HgCuhZ664ITR9Zn8eiCBa8/IrUBPzKG0bOQ0cvD+6fctuYZAlxojYcCwKNh15mxYbJTJiKgpSloW/Ywu5OBTsvRLHlk08RCfvwrUdux7U1Gq6vK0OIkxydVi8FCBwhgFJJ9KeBQ20xHO0Yxj++v588O/gfHrkNN9X7cG2dB+UeghE2bMULSyHB5vodx3sLChbpNL5GY6l+8ubFp/LHY1oMpwds7L5o4+OjnXjnw0/xxP234/ZFlVjX5ENzROUxtshm6SocIMgwx8l1Usp3XAoQeAizeOnJRcCSGDajGM70Ydjsh8li6B/sxFCyHwPxXpB3T1N1+HTavMsRCpbD5w3Ao3nh1el0X86tV8SDIZBKfkYiI9nOxk1rocZPMgymZcAkVwVLIW3GYZL7whxGIjmMoWQMsVQczKYwX41bEmor56I8WI2AFkHAE0JQr0JIq4dX90NjHu4PdV8Vbgbl+FrEPRXjilDK86h4+z4ZQKCNjU7AAiDsOHwMc6qrsZgAAjnWCgAIPKktPcQmsp2GIVPBwc4EDnSl8N/f/BBJxYdv3LUOtzYGsaIxhBqfAbKnkS3d4k5y4XUXjjzaBXMAAv82d71Wsnl/8neQ/HsYmfsdWz2945eOg87kNlhOsiLekoMoxLDFWyI+72rY/Sa/dXFsJVDuAnNaRCxYioIM0zCYUrCnE9jTHsermz9AxjLxJ888iJtqFdxQF0CYeHKc3Hjphq7YNhlmSDQq+jLAodZhHOqI4WfvbEd5wIt/9dituKFWx7X1QfjIzsBNGlT8QnjVr8aXPXfMmmXi7ICNnRcZPjzajbc/+Awb778dty6qxPomH+ZHFAEQ1Km7GCRAKN6lbyo9E168sUGp6pD83IXEsoksbCBuRJGyo4gZPRjO9CIa60Z0sBcp2qgZQ7AshMryKgT9dJoPwUeAgEz9RB5WfPBoAWisjAMIXdV4Yi/hn2SgsCgRP63AQzu3bcKwDXDuAiPCYxw2UvyLgELSTiGeGUYqE8dALIrh4SHYlomAN4DysgpUVdSizFeDsGceyjxhBNQQvGqE+0T50psFCNngh6mIT95bshK48gCBOAfkIlCJmKuoGDI1HOhOY39HAj995R1oZeX4w/vW4JZ5PiytL0eVxxL3qhpMxZNlC4iEw6Pd5Ze+szys30kLIN5pl7A7oiSRldDd4B33vmMKGNk7hNtt5GcR7TYCDZzP83vcuyYCCMJyJ4wpBD4s/kmCQ7EMsKfDwN62BF7e/Ckylo3vPPsgbqi2ceMcD8pUOvQTUCJrd/5kUyxm8izVJjT0pYGDbTEc7BjGz97ZhbBXw3c23oYb53hxzdwA/GSWUUT8KDV+NQIE4WgYQZaUkpoAwo4OWwCEDz/HxvvvwK2Lq7C2yY8FEQU6F9TUSYoSIJTsypjX8ckAggseOEVRSWOIg4IepDGA7qFzuNhzAYNDg/D7ggiVVWJO1TxUBGvhoTBE5kHQF4ZfK4NO/AIHIKhOjDcnESpEvgJUHsZFjGVqiawJ4uREEUy2k4+eQqbI4WgraQ4YMkYCGQ4aUjBZEglzEAljAL39nRiK9SGZSCAULENtdSNqKxcg7ClHSKtCxFsL3Q5y4hdnSDu8nZH3Z3boVo5iIglceYCQdk7/HiIrMgVDpgf7uzM42JnC3//mDQTCETx7301YOy+A5Q2VqPEIzgF3FysU3kerrJN3cRLSIF/3XaCf5z7I31V5pmHn2O8Cf7LTi7tEKnN6Di9EnTUPODV+uEsiB0aIAkDZzwpp57pBhOuOdmPuvHOsHsRaon3agIbhDMOhLhO7zg/hxfe2ImOp+NdP3YfVdQw3zNHh121+6CcXDeXvyR2NYjFKqOwAhIyCQ21DONAex0/e2YuIT8d3HrsNN9bpuLbBBy9P/OMyk0URoXyD4dgIZ2QKTfT3QmwRhbgGvspzRn82t71RbfM5ZnOzqwsQPjjaibc+/BybHrgTty6pwprGAOZHVHg4fWD02OkB4plCojqipokte3bgnrXrUUunL4WBEn4QNvQ4CLQQCchFa3olwN/3MZq8ROO8SMrIGSH3QzxckZmIsx70JdsQN7rRPXgOXdE2zg+IRGpRXd6AitAcBNQKhJRqBL1BeJgXKrRjRzMAACAASURBVHRBEuSAQef2fAqBVLxJ2NyM6uMsZ8rDzgvTOIsOLWQW5xRR7x2HoXMCsSwDiko56gHbtmDaaRhqAgkrioTVLzgR6SH09Xejv7+PR/iEw1WYWzkPNcF6VPjmokyvggchDlB4pTwnPDL3LRstNydryPQqULZ2hSQwPkCg3YNyD7guhkSOi4FzEMZxMYyeOwQQKHpGtzN8DDHTiwNdBvZfTOKnL7yOYEUFvn7/KqxpCmLZ3ArU6Ar0bNVjAssWoKSdbEF+J6xY7JLue53XJnGEeLES5yvXDeEOl0z2vKifYxHI+V4s+M5izhtxLQ0MqVQKgUAgqwvDIJc+oHl0p0aK+0z388JtRyBHZCFxAAId4il1AQggqIilGfZ3xLG7NY6XNu+AaWn47tP3Y1WthWvrNXh0Gwa3IGgQEsjZsW1LBIdYKrkYVBxui2N/axw/eW8Pwl4F3338du5iWFnvh5+7KdyNLbco0WhbAt3jEj5EkqG8ZgUvMidpitMlV8C5K+4l+/1kW2ShACG3MVcguecbF/FN3B6l86Q0nnvbM9hyrBevfrwVj33tVty7JIK19WE0RgSZM9e35aLA3Nx3ZMEZsEx8vmsH7li3HmGFEKFrchrJcDUqX94VerHlY6ciAW66pyntJBscCVAUPkTyBdJpQTjynLwYlgrVFG4nSjZkKCkMmf2Imm0YyrShrfMkBmIX4fEEMLemBZWhRkT8tfBrfpR5yuFXyqFxgpUOVaH4Z4cMzMlGwkoAlUiGwnjKWc65JyAXqBDg59NMzH2bgIVCeRboVCX8mvwvGiVSM2AiBYMlkDCGOHkyYcTQN9iLrmgrYuku+L0BNM1dgLpIEyKeuSjX6+FHOWBpHLjYVJaUZ62jS8umxaWfhNyoz+6aMRUtyHuLQwLjrVC566g7H0WyINoGk9Cw+/BR1NXUYOGc2ryAQ5c8SHPGPZS6K2LGiaTTKeOHzRAzdRzqzmB/Rwo/ffEd+MJVeOaBNVjd6MUKcjHoohaBmP7C5UZz3bYYOjujSCQTaGhs5LtXtL8PlVVVGOjrR3dnD09IFKkIw+vzoSwcQTgcQiwWRzQ6gMZ5Ddwa0NnZiUh5Gd/oLctGX18/yiPl8Pv9SMQTiMWGUFlRgc6uLsytr4fX6+Puv4sXu/D8r1/Av/t3/xa6rsI0LXz86ccIh8uwatUqaJTUyabCUuL95u+k4zYUTghhQWBETHK2MW7pZwpiGQsHO+LY3prGP2/ZAdry/+2Td2JVHbC8IQQvGRmztZXyWYqKTSw7Agiain4OEBLYfyGOv39vF0I+Agi34YZaD1bMDSBAh1oHIHClZasWjqYrugCBxEwL1ChqZF52zJGJk2uWcTSYzwC9bG+A2z93WXIXyPwGJoMa9JQ0Ay72p7C/PYN3j/fh5Y+3YePX1uOBJUGsnxtGY7hMAIRLwirzgQchvQHTwvbtO3HHhnUIUC5tXpnL6VsWzxSSBfKyCUo+qBAJ8JADJ6zZ8SRxM6ajO8Ly3BKk0OZrc+ys2jo0W2Q9I0LioN2NvkwHBjPtOHl2H5KpQdTUVqG2ohmRwHxUeOchqJXDp3mFawEin0A2X0JupJBj5XOWkewIxuJ88eXGwfz8HyaSLPFNnOlgRDikPB4U08y5FBaYYsJCBkk7jrgRQ9wYRizTjdb+IxgY7AO5N5rrF2FuRQsqPPNQqc+FxwoCNF7dKWTGZeOWmnW7SFCGfMlunfpChC/vKSoJTHZ+c4GpgMYcIHAyHVTsPngUtTU1aK4XAMF1ymYPpVkzvbBGcW4iv4kYcSbP5ROzvDjYlcaBiyn89KX3oJdV4hsPrMG6eRqWNzgAwc1OSrkTnBcgnTbwT//0PF565RX86L/9GF6fB7/5zUv45je/gdd/+wZ6urqweFELmprrcaGjDTW19bj/gXvxxlvv4YXnX8CP/uaHqKmqxP/zgx9i05OPomXRQqRTBn7+8+dw1113Y8Xy5Th27ATee+8dbNq0EX/3dz/B9773PTQ1NfKke60X2vDXf/1D/OhHP4SmC97aa7/9HcrCYdx7zz1ZSx7V/+FdJrBAeXlsS4Qn82AOClWmLydfDwcIwHDG5ABha2sGL/x+J5hl43tP3IZVdSqWNETgc0ATl/OokteXASC44GD0duqmkhwj1sGZRNy07phhRIVEQe4gf6jru3FBQwGEVuc9mWxbH5mYIy9WruWgkM+LT9IwMoyhnQMEA+8ej+KVj7/ApvvX46ElPqyfE8S88opxQE5+DnFDU9BvWti5bSfu3LAeAZ1Kc5IXwzG15FlcimpJkJ3hk8E5tXNEx1NuilO9KhahDMFkbkkigCB8hnQaIHBARMSodQG9iQto6ziJeDyK6uoa1Nc1IeSbh5A2D2VqHXxKGcjYSJ8T5WnFHMolQOYXB8vPeuJYIi/RVz5AyMAmgEBPt2kx8vJysXkWMIXyPRJIoEiLNJLmMIbNPgxaF9HZ04rOrlZ+ymqes5iDhEoPjaEGOgs4hkSnJn2O5YJHQztWR5HPrfD3UE7AIpNAQSDBXa4FmS6jqNh18AhqamvRPLeWu7O1rBHatVq7iyDPOy7WYF5tiDIJUhoxDUPMg4NdBg50ZPCzl96FFqrANx9YhfUN6sQAIWPg+edfxeGjx7DyhuuwZu1qvPzyq/jWt76J9955F3Nra3H7bbcgFCnDvgMH8f6HH+Nf/cl38Morr+HE8ZN46snH0dTQgF/98lf4sz/714hEQhgeTuAXz/0aN9xwE1asWIojR49hx64dePbZZ7B92w7cduttSCaT2L5tD7dgfPLpZ/iL/+v/wJGjh9BxsR3Hjh/HmjUbsG7tOhw8dAg93V1Y1NKCldcsw8EDhzAwMIDe3h7csmE1r7dA4IH4RJzuwzlIMw4Q3JP3CNYbmaquUnM3X7Gt5hO6nVSy5J91alKPNlJlSRsFJTcaqybV6Bco14IgxpCd0zmTe7K0sFmAEE1hT7uJ945H8dpH2/DUfWvx8BIv1s0NYG5FhUiTK1J1jXuloaLHNLFz1w7cuX49yhwXAy9Fyk+HzoLJT4fyKiYJCO3QQufW/2SiZoGi89NwCkASQIgxbt4U94vcAGkWQ2/yPPoyp9HVfwL9vd0IBSrQ3LgYteEF8Kt1KFMa4EEQuk3pVMXhiYA+hUlxgqHzr5jJrrHRdeuNbLRjAwR6hvsOMFh2Gp2drchkkmictxCq4oeq6Zxjy1MsZ2MXbZ7WGSqdAE2kaByZNiSNKNq6TuFCx2nUVNViQf0yVAXmo9LTDK9KYJkeRH0kSpRTa8LxN9JPbiCkDIYsphk+1b5MDu5E3L1g25OLIQ0dOw8fFgChrg5+0Lvitutaq915KgobixQINs/nQdZWCzqGLB0HukwcuJjBz15+G3qZCxAmtiCk0gZ+89Lr0L0+dHR1YsU1K7B7z148+8zX8fabb2LrZ1uxZNEi/OG3v4nyynL84Id/i2/8wbexc9du1NXWITZIroQIn8GPPHQ336xp8//h3/wYZ89dQLi8HD39vWhZ1IJvf/tb+Pl//zmeefpZvP/7D7CoZRl3bbz5xjv4T//5f8Hbb7+FTZsexfMv/AbXX78GoVCIuy7uuvNmvPfu+/ja1+7Bc7/4NbdKBMuCuNh2En/0R3/IE6Jpmjhgk1WhSADCCL/A9SxyxqZz5HenCvmHRMEilzVNJlcRt0kDEn9xiCFOZTryzdAv6V83HpQzNjnpw508zjc51eayG3uWDOKe913UOmJTFScx0bh4kviGfn9pqeb8F4XuNxiVxE5h90UTm49F8dqH2/D1+9bjwcUerG4oQ01lRJR9zgtpufSFS0JFr2Vi585tuHvDzQhw77Io5CnsKkKSEh5MdbG68ve7ddhF9LG4eBAwoxzxCoYsG9GMgRo/5R4EvBzlW7BYBoNWP6JGOzoHj6L14iHoih8tjdeiKtyEcn8j/KwaPiUMzRLgwE0KQ6CTb87ke1VspDJJJBLDiIQqeBZE7qPlSVNccOmmUxVvKX/XHAa3yIRCM40hNhzFG2++inQqgU1PfB3hUI1Iu0zWPZ51ziFaEFDhyY8ELLLVDJIYwECmG32JNpzvPIzBWC8a6xeivmI5qvwtCOsEdMg6IEIfhWmY5jhJjSAWhU9T2mbBnJBXqUpgMoAg5iRpnLZ1qgSSgo5dRw6jtrYWjbVEUoTDqHcPmmLOmpxgq4HyjWYME6ZtocyjIcAntYaYqeFwVwYHOpL4h5ffgRoqxzceWIv1DV4sb4jkcBDI4qeJ/ByMIZ0x8ZtX3kQgUIZweRgff/YZ9/n/8b/8I7z1xttYec1y3HbLzdB1gLzy//CPzyFjMsxrbMLq1TfizdffQmdHO/7g2a/jupUt0FRgOJHCz3/xK9xy661Yce013Dqx+f0t2PTE4/j5//dzbHxkE17/3Rv4j//hP6I/GsVf/eV/xTPPPIOLne146qlH8fob7yBYVoHu7m6cPHECjY31nO/wxKaN+OyTT/HQQ/dDVXW8+MIv8G+++ycoj4RhGgYvuib4FVfYglDmBf7HJ+7AddUaVtYHeXXCfA5CLvmQwSJClkWoUEUymeIoxufzI5M2kE4nEQwGeOIVInBodCpRNAwODHEUtfGxR+D1evjnT5w8CcsysXz5cugab5Qrix8+nOQRBBg0Xl1RAAZa7KgdqodQFgwiEAxC5yWpycpLvhobtmXz51CmOWJmuwulG4tOG7lFCTec5ZI+P5Gpk+6zbIbzAyns7szgvaNR/PbDbXjmgVtxd0sA182PwB/2IgzK3jXxRafMKHEQduzC3bes51nuPTy2Qbxsk71ypbqUzIZ+k27oTaBtzslzxPdxKrhIqbLbB5PY8sUe3LzuOiyoCiPCLPhZBradQH+mB1GzE6fa9mAo1obG+uWoq1iKyrImlGlz4AOFLxLjmyRFJykLjKIUiOCnUGWGJK9Gd+zUEezbuw/r1mzAooVLRW52p9CTOFEoPCcCD2e0nboIKvWRAAbdqXGCYn+0C2+/+zqqqypx/30PwesJC74Dj4KgzZv8nTmz0fmWykqnrRjiGEB/ph3dw6dwtv0wPJoHLQ03YE54Jaq9CxCwvLCYjrRGfmcRFeVzSIvCkyxyjsr5PhvejInHIJxkIosvJUrae+QE6mqq0VBXxddLSso94iQTc9bgeUIIIDCcbbuIU129WHXtCjT4dHgZg2GpONYRx8GLcfzjq++BBSJ45oENWNcUxPL6MKo9gE4vJifyuknDxN7x4itvIBwpx01rbsJf/OVf8Wq9/+t/+c946413UF9Xiw3r18Ln9yIciWD/gSP46x/8Db79L/4Fbr/9Zvzt3/wEyfgw/uf/6c9QVxPm+0s8kcRzv3weN996K665diUOHTmCLe9vwRNPbsLP/+k5fP3JZ/Haa7/Fffd+Db29vdyl8e///fewbdtW3Hf/3Xjp5ZexZu1avmedP38OG9avg9/nQ+O8eXjh+efx8MMP8YPyyy+9gH/zne8gHAryfY7GRla/Kw4QQg5AuHY8gEDqy5IDBECgWgXJVBov/POLuOHGVbjpxhtw+vR5vPjii3jm2Sfxs3/4e/zxv/xjLF26jGeN6+zsxV//5Q/wgx/8BU8TS+PbvHkLZ3w+8cRGMYEMCx6PR9SaJWCg0WJGmz19r3LrgpEx8eprr2LLli247rrr8N0//S66u7sQKY9w1ii58pOJJPx+H2eI0mfOnjuLhQsWQNfJhEoLKJlnHJKHbcFD5I8JyA8uQLgwkMTuzhTeO9qP332wE08+cAduXV6FykodyYDOzWV+rriRa7QlwFQoTSjDiROnccOKJVBsEx7NsRtkfbXZA+TsXz1KaIR8M2O02AjzP23mnD9C7GwGdCVTeOH132NZy1xsuvVGLAvqqGIpIBNFNN2J7kQbjpzejWAZsGDeTagMLERFsBEBpRKebBUPAgd0bqJ3QIdl0bk7jaQ9hK6BNuzYtQ39ff1Y0NSCZYtXYl59I+KpYXR1dsHIGAgEAzBNE/X19Zzt3dbehjlz6tDR1QHDtNA4rwmhcAjtnefx2acfwB/04ZoVNwK2B8sWLOfZEj2ql0ci8MpxuVVd+IGQwbYzSClJRK0O9GfO4HTHXvT0XMSy+avQELkONcElUFkZOhMM/fBgkNsOCATbvGAMlewlwpqwtkkLQgm9AqO6Wii8E3o2VSAFDSfPtqOiIoKa8hB8lP3TqS3ALXSOeZnsX2RxoPXy5LkOfLxnH+5YfR0evKYZdQqgmwynO2I4fDGOn7z0LhCuxjP3r58UINC78dnnO6B7vLhp1U04cvwEPvroQzz7zDPYs2s33nv3XeiqijWrb8Qz33gW3d39eOmV13Dvffdh+bLF+PD9jzk36P777oCu0UHZ5ByE33/wEa67/gY0NTWhta0NR44fwZo1q/H+lvdx9133YXAwhp/+9GdYsWIlPLqOp59+Cu+8+w6279iKxUuWYN2GdVi4cCFefeUV7N61E3V1tfjT7/wp9u7ZjdWrV8Gje/Dxxx/j4QcfQsDng64rMC2LH8CLCiDwyEubQAIQT6Xxz//8Mh/0qtWrcfzEebz11uv45re+jq1bP8Mdd94Br8ePvXv3wzIVvPXmW/ir//v/RFvrebS1tePEyVOY1zAP99x7D06fOsWJGM3zm9Hc3ITz588jHh/+/9l7DyA7ritL8KT7vrwvoFBAwXtPWMKTEmUoyrQoqnvaaluj2djpmd7YiImNne3t2N6N3Y3YnY6eaCe11N2KnpajHCl6SiRBkIQjHOFdoYByKIcy36fbuPdlVv2y/wMo86sqkyqhTP7Ml/e9fO+8e889F93d3diwYT1KS0p5curt7cdf/MX/gW9+849RXFLMu6XvfOc7qKysxDPPfAp+vx/Xrl3nBX/NmrU4f+ETvPKrX+Fzn/ssD4jW1ha0NDdjYd1CNCxZzN6JgEIT4fiDXQAEQACEKN660o1f/OYUnv3UYaxZXIKrbXdxIwXoqsoJXaOOjDmQpn5D1pBMxFAUCcHUU0JgyUlqYZcyF+TwQEK+TZyiG4lwKDxsXMSM1EUsGQlJRlJV0Nb7AGWyjd0LSvC1DbVYFwKCVge6Yk1o6WvEzeZLqK4qxpLK9SjxL0VEqxahBV57yUtG7H6WVgEsBbZhwpRTXJfh5bd/hs6edp4s0gkLSxevxLrV63D+0jk0t9yDaZgIhcPo7X2AZ599Fp2dnXjv6FGUlpQglowjGA5jUd1iPPHEdly6fB7nL5yCrqfh84WhyiE01CzD/p0HEQ6SN4E8CArvUByfhpPxIAi1upRCr9WFrvQttPR8gtaW26gqXoSGqm0oCi5Hu12Mf/ngAj4ZkNHrL+b0ah+VkjIpDUTjGi/kdhapbd4x+yyQHRy4FXHZXySbQtBH8iGaSMPv83EITiF/nBOSZqVEJuOKYnm2orE8M1UrHIglUKma+NyqSnxuRSUqJAXNrVFcaovir3/8OlBUheePbMeuhf4JPQi0g6T0P55nuQ6K+1bTe2xBIX4ca4iQ74JwMm0e6T2QQEOX2kgbTJHQLEqu8xaBShKQ8rBJHnBRJ8El5FOowjAsqAptfgXHhz18lIngRPLoeWktoo0xpzhyBUpXYEmQ/MkuzD1y5h8+bVo4CLl4EBxFCVGX3kLKMJFMGfj2d76H27fvoqyiFr39MZhmCv/hP34L3//+P+NLX/oSLl+5htbmDhRESvDhhx/if/1f/hNe+uUvsWbNSrz33lFs3rINy5c14PiJk7xg37vXjENH9uHFF1/kEEXAH2Bjfv2F50WOaTyFl156CWfPnuVJkDwU3/ve91BVVYWDhw7iTuMd3n01N7eiuroGgUAQr77yCj73+c9y6OPUqVNYuXI5bt66gcOHD6G+rg4h6vBsAMEE7vYlcKa9H29d7cQvfvMxPvOpp9GwuAzv3biJK2YQ/XLYyUUfet3F2j/0MhGW5voWNDDNNGSafymljH/v5OxSaRGeN7O/hLNvYpnNLXaIglxrwIJqSczA1k3A8mlIaypMRYE/mcSiVC8OFaXxBzsXYUlRDN3RG2jsuorW7ttYUFuBJaXrUBlYgaBUDsWOCPETCisQQGCYqUI2bUimCVtNYcDqwrWmCzhx5jhCwSDWrdyAiuJanD97AQ/iPVjcUM/kqcuXr6CzswNHjjyFmzdv4l7LPRRECrBy7Rqc/vgs13A4cvAQjn74a0RjDzj/uqFhJa5eboSa9OGZA59BRXkVFNZcoKqPQqWDZZRdUEReDclCVOpHW/w6ehLXcOfORUS0IqxdvBdB31LclCrx/75xGheShegMVCLJRaN1+Kw0FIs4CH5eMDz/wWx+H7K1XRREpkCBQmXMCSBQSq1E/jJHp4Ckvzk7nmSUXW+CBElWkWQsqYnKugpQaPZjRboNX1tTjYNLF2LgQRIXm6P4m5++DbOwEl9/aiv21ioTAwQKjbuVeiV6dwUvhtLTCRwI7g0R6am2KguD8OaQHMPk0bZNkcLMhflkE7qh8yaVNEooQ4GmdeIGWJYhQIVFWRfEpaOFncCGzACCwAiBC02j6xNoIZl0AifkobNYI4G5Q8Tp49RpSfAyOOVZeGQmFyCYVIuBdiMKCyVdJqGkuwP4uzfOIOyT8O+e24f1FTLW1IQQdIWSGMG4lEJRf1qkLALxVJpj/T/44U+wYsUabNq6FZev38brr72Gr73wZXzvH/8Jzz77Bbzx+lv4wz/8Bgw9jf/n//5L/O7vfh2XLl3G81/9Et599yji8SS7/i9evIitW9fj8pUb2LN7O86d+5gX8HA4wq6ZP/3T/4BwmDTnJSQSKeYv/OM/fR9/+Id/gIsXL2PZsgZs3bIRV681orWlBTdu3kFFRQl273oCv/zly/it3/oKLl26iGMfHMO2bdtw69ZNFqbYu2s7AowIxz94LScPQl8UZ+/34TeXu/Dzd87j8NOfwsIVZXj32m3cNiLoJV0wmVgFQ8dIZgFRtWjiJXILDSJ6cSgnnbm+DpFSaOB44CDb9DP5f8+2XDlEKmYRmgziyD0qy5ogYFEdDp8PspFGVfQ+dsjd+P2tldhcbyOWvInG+5fR2tmExYvqsKRkAyr8KxCQSyHbIRbLkmTatdDERJwajZO/CUgmjRigJdB0/yZ+/e4bWNywGE/uOICWlnYc+/BDKH7g6aeOQFIsHH3/XUQH+nHwwCGcPn0a9+934ZlPfxa+YBCvvvYaVFXD/n378Pobv0Ig6MOhAwfhU4J49fU3EJAi+OyRZ1FYUAyVIsPEieDaIkPvPj26YikgVkRM7sf9+A10x6/j1p0LCPuLsaJuO4oja3DTrMb/9erHOJ8uQVewCoaiQLFT8Jtp5jgYCDCxM5vFJ7+PvSvmZoFsPeOSYie6mvAPaTTPcTaPykp+vCs3LfhpobMMJDUa55Yox8z/UkRbRcpWYKs+Dk9JPgnBdA8a4nextzCN39u/Fal+HVdbovjbF9+GGanAbz+1HbsXaFjpcBAUEgPj7SKRZUWhZ45Bu4R5WUJa1+HTfGJH72ia0E6es5WIa8fhbWKJEVlS56wF4vlYJukSiKqstLALD4E6mJYpKRITCUkdkfKeKExOfyfvBa2bHO52TGga5HXI+Cy9F6zkKIj7tHkl7yAo5G6azNcjQMNtzkhzjGXoIPzr26cY1fz75/Zic5Wjg6AQ303YebQOgpm26UaGJGoxXGqO4kJzP/7u9XMMEL713D6sq1CxpjbATFHRWRSnd9eqoQEhEI+FVCqNH/7ghxx72bB5E240NuGXv3wJX/3qb+G7//DPePYLz+GN19/EF77wJS788t3v/hO+9a1v4vhHJ/DC17+Cn774SyaClJWV4tSp0zh0cB80TcXi+hr88Ec/xKc/9TSCoTC+/Xd/j//4p3/C7lPiLFB4YtHievzrD3+EpQ3LcO/ePTQsacCaNWvwgx/8jEmPV69cRWFxGIcO7sXPf/5zvPC151nA4v1j7+PQoUPwaRrqF9ejvLRIKEeOtx47WQ+EIBv7ojjT0Yejl7vwy7fO4+Cnn8aCVWU4ce0m2uIKBihmTCv/hIfML4pt6PCrMiwjLUIM5FJziuuIHZsHEHKbyCbrrOElYMe6qpA+oMEiSIQ0mXGVRGhIyT4kFA1pRYFmJbFcSeOFVaX4zJIwiqVmRFO30NR5HffamrCodiEWl21AqX8pQmo5NCkkCshIROcjkECLsp9j9YJrSHrrcVy6dhbHPnoPm7ZsxJZNW3H+8kV8cukyCgvD+PTTT6OjqwWvv/EyFi9ehLWr1+Gdd44iEi7G4UNPo7O7C8eOH0NxUTHWrF6Do++9y163Zw58Cs0dLXj/2DEURypw5MBn4PcF4JcC/OKrJM3q8BBIFYEzJmxwiCGGbnTEb6Bz4AZu3L6E0pIaLFm4BYWR5WhJ1eC/vn4KF+MRdKlFgKZCNeO8WFDdCIM9CEPM9cnqRe86j2sBt0+yAYSRqrqj7+t6iPy0qNHOWNEQhwqdFmDLQtg2oFgGUuR653eJFnSisDL8hilrMGUfdEuGocoI6z3YXpjG1zcvxIaKQnS09eFmewJ//aM3gUgFXnjqCexeqDnFmugtErlGIkdM1GYQhPXhc+sgT8x5ZF7p2NvvkHzZey4hlU5DUUlUTHg8eCc/hsyy8ACoDAro1uRF4JRffo9EmID/cxQSHUp+1o4T2qzuQf48ESrheisAYikhlPTRvTQIIBDIIKGkzY5QEiUfMEBguDNSSXESAQI9NyEaQlQvv/QyVq9eg9Xr1uLWnTt444038cXnvoB//W8/xuc+/yw67nfiBz/4MRYsWMAG+9a3/ju8/PLLOHniJKprarFv316sWbMaP/rxT3Dt6jUUFhbim9/8Axz/6CPs3LGD8z9/9KMf4Xd+53dQXFyE/r4BvPjTn+L8hfNYt349vv71F/Dxx+fws5/+HJ/69DO429SM8+cuoKy8DDt3bsP+g3vwD//wD+jr7cXvWgYJRAAAIABJREFU/d7v4/XXX0fjnTsc7/nGN/4IDYvr4Vcn8CAILRx2Md3sS+HM/X4cu9yNV9/6GJ955jCWrSpHNNWLhElol2JMw1+skdX9DFlG0pbQ3taCRbXVXCudgZgrJOUMHnZheSGGrC/N5J3gCCBNdEGOHSqcdkgggScIAvaaH1FT4uyUs9evIyIbeG7bWjy1KII6GFD1VvQad3GPOAgtV1FSVIQVNRtQ6qtH2FeJoFwC2aIJhCYSNz+C9TWdXUwKuhnFsRPv4HbTdWzeshENy5ayF+3ajZsIhApY3OXo++9goL8Hy5YuRUVZBd586x1s27IT2zY/gfPEOfjkPJOo/JrGoHr5suXYsH49X+fcmTNYtGAp9u99CqqsQSVlRfIguBOJW9yOJm/TgCEnMGC2oTN1Gy0dV3Cv9Q4WVq/Awqr1KAwtgW5V4r1r7bhnRfBACoB2VD47xQuCTWwESeNACu0cvSOfLCAAQjYH5qDy6wRNN8iVLknQiExHu3EKGygqWnp6EfBpqIoEoeppLiAk8nUEQBA8H/I2KEhbMjp6+3Hl+h0sqyrCv3lyJdYWyAjRhq0lisvtSfzNj9+GXVCOrx/Zgj11SlaAMFRQb6jxmUJ+9FveGAscwAcRfNmX7mbUURtNgzd2HHqgbYKmMjGePAp6Og1VE9l6lF1HB9c7IVtQeiKn9ZOngv+Sk5Kw68sXLRIAwdUUYYBAHoSWGQEIwxcrRka8aFK8RBAoKN5COwzx4Aq7XNi+tgRdNxhRkbuEvohJyoPAsjkGQ+eS8ci4tMD66VwWpxOZC4TIqBPo4nQuXYPK5dId6PfkoqHPUgcxwcUgNwxNsHSuGPB0LyLGpPS0iEFReo1PY5fRyNKXw8a8AxAoxHCjz8CZjgSOXerEa2+cxBef3oetawuxYlEIhSEZflIFG/nCjADiCQnoMS2cOfMJdm/bgKDEFb6HUr4chWWHQ5NPM8e8bwt1JZFzXYkAt5IATWskxd3cH8cPXnkbezevxe7lS1BlSyimcqx2PzqNZrTE7+BW60UYZgwrF65DRXgxCv01iMg1UGyq5eG4QXnMuInGxPlJIWVEceLUUdxovIpAUENldRVqa2tx9tx5xJMWj20qqETvzb4nn+QUyQ+OncChA0+jYckynDx7HJ9cvMCgu7+/H9euXMXuXbuwetUaFu26fu06tm/ZiXWrN7PXQGJ1RafwkhPxckOMhpVAWhpAd+IO+oy7uH3vEmLROJbVb0Jl0SoU+RcijAL0mxqSPpUFpGgGoTdS7A6pPC3tZsZ4X+b9KJs7BqBFi2Z67mcbSEmUxQCcut6EitJi1JcXgeqA0tgQe2tnXXHeM3qnDAm42tiKM+dv4MiubVhTEUaY529Kc0yy1PLfvPg2pEgZXnhqE/bUyY8EEMRaJe4vtHiGJm7eENNaxyGHIcGxy5euoLy8nGstcDV32kDwWiVjYGAAly5dwY6dTzA3gWXM6XVy/s5zB3sQHH9GZrbQOENgOEAQqaNOsqPwIMwIQHCIc5kQh4zEkrOOw0QALaGC5coq0+TipGIzUhoyvHh6+h0Zkw4CDMIlQ64ZRQT8B68tymOSO4YMTaCBv+fStRQDEu2gfzneQ1QL4rRwnIb4fwYkRWaPBwEIHobUyU4xHZaXnZCAIEAkNfXGgI7T9xN472I3Xn/jJL781B48uSaIDYsCqC4IckzNdWuN95onJQWdhonTp4SSoh82/LLIfxcwzKG1ehGGGZgps7hVCawyQBA7LI6w8qQgcv270gaut9zD2vpaFCkaAoYClU7UTHQabWhP3UZH/3U0NV/GgorFWFC+EiXhhShUaxFACVdqdMeBK+hFAjFEhrKRQmd3Ky5eOY/+WC/q6xdh2dJluNXYiHv3OjizoaAojEQshvVrN3K2z92mFmze9AQi4QhuNd1A4x3i3WxDV2cn2tvasHnzJpQUleHqtcvo6uzClo3bUFxQAom4DxRaYEQgBiZp4bOSI0wkrT4kzG4GCN0DTbhz7wYKw+VYvmgzigNLUKBWI2SRM5N2gVQCmlIcyXVMmfCUJurj+vUa/y6bK3sGhsG8v2UufZI9PORqaDK/xibRbhkxScHJSySUVI5FlaWI0OvhIG637g8t0Gkni4Ek7jt6epFK2airLEeEEaaFhKXi8n0dZ6ma44tvQikowdeObMauuuwhhpEehMxqjKLrxabX1eRzAQJ52t58820OdW/Zug3/9E//wmmGL7zwAioqyvDqa68zYfErX34O7x/7ED/+8U/w1JHDOPLU07h88RKuXbuKDevWYN+Tu1kJkbMR3IJmMw0QbIvqERIiy4GDIAvEx8xS52UZOWTcxd19l0R9eeEJcJc64WlwtlwjVmFhfEct0VFfHHS3DGPwO7iJ0z6En0Zw+AQYcUt9OJVt2YPgLLPifCZyOCCDGKRuSU4eAAJsTMxQdFQNLRs3ozF82J7Ae1eieO2NU/jK4b3Yv9qPTQs11BWFQYlbnCKTeQwaTnyTkjR0GRZOnzyBA7t2ICQ5xZrIVu5zMztF2N87ZtACw7XCnf5wq6i5EyQNZIoBykjJEuK2hbBksOgReQXITW/KNqJ2N7r1RjxI3MCduxcQjxlYungjSgqqURCoQZFaDT+KoNjkepc4lZAzBwZfH/JEpGGYSZY+JiBN7k6eTHVRyEVUgiPvmY89CJYpQVX9vMZTLQhiTStMOhSpXqpCQGDIE+hT6N5CGVJ4DwQ4oHfNlEwuU01VHtMkkhRvRk/8Hm43Xeb3bVH1StQWrUBJYBHCWhlkoqZzgXmhJilRmV6WbKYQTZBdyCKs5oUYZnCE537rke8CT7PZ+o5qBkhMSKR52KaURVXBiYuXeUFdXFWGIKUNurKkNN85vBTegxIpTxLxdZnfJ5NJ3ZYtY8DUcLE9iQvtMXz7J69CCxfhq0e2Y0ddSHgQfAKUDq1iFC5z39lsPDFRRpk3kxxWBBLJJP7if/8/ebFfWFfHQks/+MFPsKBuIXbt2onz5y6hrLwUN25cZ5CwZu0q/Oxnv8Dv//7vorXlPk4eP4EDB/fiww8+wHOf/ywWLazhbAgBEjhfMWtfTKkH4VEAwqD7Y4ymO86YjEVMSCsLPocTkhhjfcu25DFIcIQzBm875m46M04mThBIcOhkbsU4wTS3SNSgbON43cMNJqaYjlvRGD5oT+KdqzG8+sYZfPnwk9i/OsAAob5QFNhxSStjYgQGCBK6dQIIp3Fg1xOcYsmitASSBtccCaYHELK+MNN9AldW5iqETp2EwfoZYhJLc7EmUoYjzXhaZDWnPDTlJkTRr99Df7IR97sbca+9FYoWxKK6JSiOVKFQq0JYJW36QvgkH5O42AtHo0MMZLGzGSyvPrjXEaG9jJfFyZYW4NkRchK7/+ETuvumuN5UdoM6fiy39CNNlIZEhZ1MpO0konov4uQ96L+H9s5GdPeQzPJSLCxfhbJgHYp8lfBJYbYAHZzbDlFkhxX1mHWtiX/FSzvd3ejdb9IskK3vxGgicSzWH1AkxGUJxy9dQ2VFORZXliJEaYFi2RBzuDMYXcK2u2eiYcKpxTwSSdZcxcX2BD5pi+IffvyKAAiHn8ATi8JYUVM8CBCEYoFDUhzccE3snhVbTwEQ+K5EyjVMvP3rd3D79h2Ul1dg75NP4s23f4OGhgZs3LgBp059zNo9VEuBNp7PP/8VvPTSr/CNb3yDuUDnz53B8mVL0NbSjKcPH8T6das5k41EA2kNylYPSACdzNVtkkMMjwcQHIMO2tVdydwB4sCFEYvxaG2B0R0zksQ33tgdeS0nsJBx+ujBKsDBCGQ2OCE5+vXZXPmuF8IycStGACGOd8iD8OYZfIkBQhCbFviwqCgybm26zJalAK7mePLkx9i/czsDBIrRcUudE+l71kTwjhm1wMgRxZMdhRlYE8CJqxOYJfxIHBrKqyaVN6YOOSDZrX5gJ5EyHyBudqEndh93O26is68NqmKhvr4BpeFahJRKBKVShNVC+Ii4RYRILogrBgN55JjYlOGNE3twNyRHZ7kcafG9e4ig2ogJxi2r64S3hHiLg0fYQ0cplzpSdgxJK45YegDRNAGEHrS230ZndztKiqvQsHA9yoKLUaxWIqwWQDIlpJl45hZ6dqxFkrdOpJm9gDPau97Nc7XAeP2UbYpyxxtlMNA7ossSYhJw4rIACEsqylhqWXVuMHifMS5MXAYXINBoGjBVfNKWxMXWGL7DHoQSfPXwNuxYFJgUgCBgiDuCifNms+5PT08vvv2d7+Kpp5/G1atXsXhJPVde/O53v4fnn38eJ0+eZI7PZz/3WQ4x/Ps/+ROW1b965RK+9MXnoMkSIuEAApoKjQX6xIsgMcdu4mMWAQR3J5IJFGghFg854aZgROePHAvjDcbRxYsyk1VEO0bnIgj3b+bBngP6Bat3jYJlo3vILbNLWQyxBD5si+LolX68TiGGI3uwf1UIGxf6BwHCyCyG4TcnD4KMbsPAyZMnsH/nTgRdD4JzYma5pmwDxvv7ZFtg+GgccyySy9EBCDzi3cQDWqgppUmUFBk8RIYKeVjpRAMJO4VevQ+9qUY0d5xHT18LFM1GRfEClBU0oFCrQVgtQcQXhCJpUOUA5ywLlz9d1vneASA88gfxu/hmGI533KqksTEcMgy9qPwXDmU4MILAga3DsNNIWVGk7CgS5gD6Eg/QM3Afnb13MRDvQ0lJKRZUrUBpqAEl6gKEpWIqGs3eAsp1d1PBOMRHsMnRPeDCZI63cbJ70LveZFggh/cghxwrzv5yJLYpZEYZXHEoOHH5MioryrCkopyUY5xKDIKimDmHux5sag2xV8gXQGED+kS/QQAhhfNtKXz7J29ADZfihcObsHMRZTE8vgdBhBjE+0agdmAghn/+/r+gvz+GhQsX4plnnkFz81288uqr2LNnN5MSScunpLiEM4WefHIvp/wn9TQOPnUEp06cRFPjbYQCfnztq7+F6opy9hJSNh1z7BzF0ol6b4oBgmDvUQGMLkcH4XxzP/72jfOI+GT82y/swYZKDWtqhA4Cvd7CcUr+n5FlVVxg4K6wztTjLMYPszMYBRbHQI+uOFOm8Xg4ZQEbLhdiOEAYoXkw3OrD+0f4QAXgMSXcjOr4qD2Bo1e68cZbH+FLh/fiwKpCbK71o64oxPExToEb76AaFpKKHtIDp2qOO3YgQrFjp5gJD0fOs3f3Vw9jycmYGOb7NbLsibg7WLHAEV5h/uBQGF2E751c6yHv2lDoSEYaNpJ2Gv3pRkT1RrR130JnL8kkW4gEy1FVugQl4Spokg8hfyECSgFU1QfFVhkwkGCxZNPu3HknHdLk4MvAr0WGK8rxLgg2kajk6B6CqDv0GyriZHH1yRTSVgxpK4pougcpawD9yR50PWhHb38PdMPg0rcVpbUoK6xDoVKHkFQOn+0X7mRO16S7iKwmUdWRytIK+4romchY8o58tEA234Db5szzRvel8G4JXVDiIJCCbAIqTly+yMWallaWc/0aWm3c7Z57RfGv0OKhg6p/MvNf0tnlHzV9uNCq40Kbjr//6VtAuAgvHNmIXXWi3HOJQlJjbqE+wTMbkvXOViaM65aKFjAHQcgcU60gCge4Xjxqj8nKiuItcsPWxA1iEj99UcadU2BVJNSRoBJlztGzuemNJJKWiwchU1iMk6AZXFC4ToeMaNrEpdYYTtxN4F/fPMkMwv/+S/uxpULCqpowF2HkJ+f3bvjGWbKJ3m+bXAegkwBCaz/Ot0Tx929cREFAxh9/fic2VvmwssyPiEJuUrqQDkjkFCc3Z/YHmDSfYa7jc6rfLTfthWNoEu4M2DjeauCda+145Tfv49nD+3BwVQ2212pYFCHClw1JsDvHPDhlU1LwQDfw1tmTOLR9BypIzpbi16TLbROjVxAxJyROTvVze9efEgu4wiv0UqetfkT1DvSn7qMrcQ/tDxrRF+viiaKwsBS11fUIKCUISKXQlBD8sh8BNQTF8EO1A/BJQSZD8Y6LMx2cJrvuu2HvEI0nRxGRsn9cMhiHESiN0uBMIuIpJPQY4kYvLH8MUb0TMb0HfQPt6B/oQSw6gKBajAXla1BRVIsifwUK/ZUIyEWQiZA5gv/jjeEpGUZ5eNGxNowOR5wLoovKolRXgao5nrp0FVXlZVhWVQH/YL2BiR9LZKYTQEhz4Cuq+3ClzcSF1hS+/fM3kQ4F8LWnt2B3XQira4pQIlnw8d5f8HdsAq2cdElTqz8H/4fIJuMFeLCS8HD4kmuQbNQelBn6AkAw6T4nUTzBpXDl3IRuBHF70gwQkraKPkPC1ZYYztzpx4/eOglDDeEPv3AY2yotbKpU4adsKFlj4ufI1H7JtgybHpZ2sF1pAggDIA/Ct187h8KAhH/73B6sr9CwsiyEiCr2J2RUYVhR2z3bMVnr+nTvK0aHL8QwGhwARJAxddzqt3C8zcB71zrw0q/fwxeO7MOhVTV4otaPxQ5AGAxdjGEsQSuRGSC8OQogCEKXBxCyjbLZ/XdRdEVMWLoVR9zqQV+6nb/Ik9D1oA2GaXD6VGGkBMWRcoRDRdDkIDQE4FcLmASoSUEOP6iSBs3WOItBzoxjjngZifktAggGLFtnboFhJTmMYJpp6GYaaSuOtDHAfAMq6dwX60HvQDeSqQTXZigpKkVlcR1K/HUI+QpR4CsV4AB+yLbLpHF2fjlNerO7L73WuxYY8pYN91CJPLjJAAhCBZmy5HQOMkQNAggGzrck8fc/ewNmOIyvP70du2qpWFMhSlWTVQMZP3PJdDEuxczuChRN3IMOJmGPBe/ZJmuBc1viXHd4YCV7mwTgEPqJkq1zjYuUrTFAuNSawOnbvXjx7ZNI2wr++CufwtYKE5srVQRU8mgQQBDre+YhmbbBSUfELu5K27jY0o8L9/rwjyS17JfwR5/fhY2VPqyrLkTIyc/kWOsY7oixHoFsN1n2y5Y8M10vZqYzVmKAYOLkfRPvXuvAr379Hp49uAcHV1XhiZogFkdcRqpgb491eABhunou/+9DisOSbEGXEogZ3QwUBvQOxHValDtwv7MVJqUGSiSCFEQoWIKCcCkiwWJocggKgQM5AEXyw2dFWP2QAIJwPo1m4xDplQosUalm3YzDtCldMgXTTMACpU+mEEv1IJbsQSweRSxOhdcATfGjrKSGZZjDgRJEtGIUqFUIqGH45SAUkCQzESpFbMWVT6ZlYfJmhPzvz/ndwmkACOzuF14AWh8oxHC5NYlPWpP425+9CTNUiH/z1E7sqiUdhAgqArTfJtlyl7kgsmYedVQ+zqZ15GfdQJ/rWchl3aRziCDNoRgH7LDqpGUwbSABBb1pGefbTJy7F8VP33wfqbSBf/f8M9hSYXF0IKRYQuZ/bICg8+WpbEaPLuFKaz8utQzg+29fga4n8Nuf3oatCyPYWF2AEpXlTJj8ZA7qRU/8CmT3L+T+CmU6rHL/1OSfOTjsWbjDwrUeA2fuG3j3Sive/eAEnj20G/tXlGN7TRCLwiKvfGQRjMxWeQBh8vtotl6RJAFY2kOl2GwKKXsAcfMBBvQuJIwe2HIand3N6BnoQDQeo6RwWLaEYCCMwOBXCD41CNUKQSMNA0VhvXeXjuiCdpG0RV4LqiCnCy0FM0WJi4jHB5BIDiAWH4BuJHiGoHhrQAuhrKQaZQU1CKhF8EmFCPuKmRMRVp1iTlx4zBFUcvQSKExBB6l7TFwCbbb2nNfu0RaYJoDAAnc6u9TjloZLLVFcbE/h+69+gAeGjK8ceAJ76wuxojaAGpqPQeFx8iDQGGV1Ef7ZTaWcuCdHL9uPChLGAgDstXbCybkChEFZctZMoM8TQDBhUejGVtCZAE612TjfEsNrv34fqgT80bP7salKxoYqP4IyFcwSLOpRHgTD1m1iUhPa6DcU3OyM4XLLAP712F00tbXi6Z2rsXdVNTbVRFAXUhCSSdhClCCmUpM5MBBm7ZszMsTA6ozOc9NDpU0LHUkZ17t0nG9P4bXjF9HS0ornjuzG7oYSbK72oTYkQWEZvPGh0kQAQZcFTYdVxejIZdTMWot7DRdqoY6zkF5cyUCKXPuIIWX1I5Huhy7FEdf7kEzFEI1HEaXFPB1D2kiTOoGIyQIIakEWTVIzUiBZ2pzF30XVN1ZBIKKYaXCJWovkyUlllHckNiuZBgKFCAaLUBAsQNAXQUgtgCaFEdFK4JcK4FfCHOogDUTWKhlBqKWJVwAE2r0N5yR4PT6XLTAdAIEJATzmaYQlLQXXO2K40BbD6yev4ePrLTj0xDYcWF2PlQtULCoGAkhznR1iDsu2ItLIM7xcE/WImI1HTsKTCxHc++cGpClV1NERcbwInC1Ea7qs4UHSRuuAibOdEo5fb8OxDz7EsroafPnAJmys9mF1uR9+WtMlpowyeMg8JINDDFyPDXFLwb0HKVxrG8DrV2J444MTqKsuxucObMfKEh+WFvtQFaLCQ0RqcBmXWYwz2Qvao/bFw76HY8ghOKUaWPqZQNVA0kBrKojb3To+uNiId0+cxdK6Wnx27xZsrA1ibZWGCFW49zsU9nHaMB5AoEFv8EclwUHwAMLD9uIsO58mO1rg6VV1sgsk5iRzGWXDTpH6AHQ7iQSlGabjoPoHuiWyC5LpftYkSOtx9v6lk/3QTZ3LyNKEQVkGAX8AiUSC+Q5+v4+1woX8uAJV8kFVg+yNCAYiCPhD8PuJ01ACVSlCQA0wKZK+fHJQECKlgJhkJZponZd98B0VE/cQQPA8CLNsQD5mc6ceILhZBeQfowzZtCShuT+BS20xnG7swUu/Po1wqBifP7QHy6sDqC9TURK0ESKdMYu0Fmz+opFrKBOXGWdoMGKjJ2oCZSxKXIp5NJeB9BKyiX/lIoo0ZodQG1iq3Cn+RDOGZUG3ZXREddzrTeJyt43Xjp5Cb+d9PHt4D7YtKcG66iAWl/iFsiRlE2Vk+Q+CFNMmmpLJrEyqyd2TsHG9PYozrTbePPUJrty5g7VrVmHX2mWoj6goJXzAIQZApSJLWVKSJnM9n2yskXX0j2g8C8awL0o4BBIpE/eiMm63P8DJs5eQiEXx1K4t2LGyBqsq/Kgv88FnWdA0WuXHt4QHELL2xDw5QQT7RC02R9aYZV1F+iSNILEPp5TDNHQribQRZw+DJRGxMMmAgYiGxCPQTQoPpEU6FoUTLPqkKHJGngH6OUDpWbzrV6Aqfvi0EFQlwMIN9DOnUkrFUKVCkORyQPGz7DJJ3Iq6DCKGK1jhYpgP8b4GC4k4REgCCLkRweZJh8/xx5wOgCCUDWk80sthSDZ6dB03uwgkxPH+mTv46PxNrFy1ArvWL8WCYg0FfpkFidxS0lQnh0YxZZJNXK3SqYeT4UEYDAlk9ORY2Qe5CP8JaeWHHxL0fotizQ5AsKm6BaDbErpiBtr7kzh+4SauXr+BjSsW46kdG7C6OohVlUGUBlztEXdDMsKDwACBdi2WSHWImwra+9O40ZnGhdZ+/OyDs2jpT6KsoADbli9FbUmEwYSliFKcrq7QeI81WbyBkYkkD2/Gx//EoGSzk96STKdxrakZd+41Q0/GsXfLOuzb0IDVFX4sKfWhwAeuxCdsNH7PewDh8ftmrlyBOQGDpClXX5CeTkwA/D7x+BOF0aj+gtAoSMOwCAwQwDBhWDrSdoKzEEyeQGzYVJOBJ0KRh04TasiSuD4EARJN1qBpflGUiQIGGqUx0+GHKvvZS6AwmHAmShJzcerOiYlVpI8NEb6G3LEuwXgySctzpc/n7nNMPUAwHWVDARCETkEcJppjOm52GrjWksZLH5zjUtJlIR82rlyKyrIKqsXuSB5RHQcKqVGZ9lwC5qNDxSO3fmNzC7L38iNgAyccKSIAtIkgfQi3XHratNEVTePc1dvo6+pAXXkhjuzahI2Ly7C83IcFEQUBSaR4ihD46NoPkgAIpiNQQlhKRUy30dGXxpXuFM51mfj1J3dwo7EFVjwOn5P/mWLt1dyiJCKV5PEPV3L48a/0iFdwKlXydE0lpy0TmqKjoqQAT2xYhe0rF2JtlR/1BRJKfGRJKrpBspkEpsbiIIihJQCC0EHITHP0QgyP2E+z9GM0Glx9JYHnaWdD76aADDRGeJdgu5nPTp0Rx6XpCisTgKBqj/QfZQ8QZ8iQqLKkhJ54Al0PelBSWozCQBCFloQAV1gVSz3xE3iRdwqYidFpOCVoHalIp9wz1al1323BnBiSXXIJka4omRchm6WD8rGaPR0AgRZ34dESvBoDcSqDrobQGpfR2GHhSnca7529hKabN5GIUqaOhrTkQ5rj7lQR2IDCFXezCSVlyJO6dhnlGHZdaJmLnkM8zOYeeOR1kkiXIpOBa5zYBgKaAoNCLrIfij+MdQtLcWTrSiyrLMDaOj9KJAMlfgkKp025sF0WRdMyDsnmbbETH2E3pgTDshHTgc6YhVvdCTT1ptHY9gBNLfcxEE9C0TToJu11ctNByGaXnMfgZMYrcrnpyLCAAxDIPWuYBA4kLCj1ob6mBEuqS1FfGkJdiQ/FPqqjQHkhtNMjh+x4QMpR5eLOVcfRQfCEknLpqrlyTuYQH4yIuiVJBdQXHoQRFRQYaA76+gnv25AMYienkdIsdEkB3NNlvHulExcuX8Py+jIc2bwMq3waiihtkXYeTnxAlHAWFhXZD0PVW0XK+HBX6Fiv5dBc98iz3lzp0nn8HFMPEMhbJqbpId8UqXmQk51kmDt7k2jq1XGnJ4Hmti7cvNuO/qQFQ/bDcGL2rsyQPUJ+f1THcS33EeN54sE/dIkpXLssmRZ58oA4IN8JONCE4PcHsGjRAqyriqChxI8FZQWoiCgISib8rPXuhi8FT25kANABCMNNQaQLEqNMWkBPwkJrn4HOWBo90STXa2dMIUsskiLKKM/VY3SAhJ6dSF2kMKfIEgr9NgqDKsoiGse3iggc2JSb6hT4sHxpAAAgAElEQVTmceJKQ1bKHCm5AARPKGmujq7Jfq7MOCc7BQ0iuaYR8wE3DRUvXenCa590ImEp0Ow+7F5Zhj/Y1IBq20KxrCBAhC1Zgq1QGEKgDRfe5uYrnOwn8q43uy0w9QBhULZ7kB9LVRaFzDDdPaWb6DcktPXp6OiLoTdhIQUVuk01QFzOjAO4s65l+RkgI94FZwixuQnME1ggNUXSSvEhFPChKmBjYXEAJWEVmmTDT4DCkY0m3wnZyw0PjuFBGD4MiQHJSSMktGABMVNCfwqIJg0YtDOhoDrV4J4sgkE+vgVDTKvB1rnkE/oTEbxo0iQmeEFQRsQHBIm4yTGgjO2cSzwZRAgeQMjH7p51bRoj8JkJECyqkmcCKcXAfSuFl6+14yeXenHbrkZcDsIvJVEud+H5euCL65ehxh9CoWU7GvhOefbBIjm0u5hMRZNZZ22vwY9kgekBCALKiglWLPWiRgLN0XSkLYm9CZR11hs3oEuClugezO6hsJ2TLjnho2YFEY9kqMf6kClzAQSHICyYSrz42yZ8qoaAX0XYDwRUsNdA+P3dYCad+dAAgbcfHNth+oascnY1FZcgIj8BCNL+4YjNFLpOHstqj/1hiiWNnoUzWauMjyQFPoVK+xLZJYOKyAMpI1fSAwiP3SPeBSawAHsLh8YrvasJE0jAwPtXLuKXNzpxMlWB5uByxKQga9eXWR3YoZ/D00vK8KkNW1HrCyDERWYECZLroPIwzjGU6HWQZ4FhFph6gDCyXDkBBbGRFu5z2tQxddGisIPEgV9exzKnZorbM0hwQ3cTvWf55UVg30EGeHeXLDfcQHZQnMWash0o7K2yEhulNopneXiAwMY1BHGJ3OlUb57KThI6sEyR2kg7aEIuc3ZnMZF7xA32CloWV8EitEr25nixKHHtss65Gx4ZIHgcBG/Wzc0CrgeBJkXKu05Bgm5b6DTT+Diu4B/PdeNYTwhxOQQNKawuMvE/bAlgc9BCjeZHGSSoqRRkQrqKw0Ng0Etqc7kwvHNrp3fWfLHA1AME2gdnUG8cvwDNxwRyiVRL87JIDoaswszcuDkzNAkLiSOXcHl+AQTRbJYrdZ5B8AlJ94Sz5xx1RQIHJJrG8Imf112nKPuB8x5yDzHQnVxk5g7lofiEKNEpbqBm0pfm2KjPxTXClE5niIphKiQ3BOPcTVITJbLdI/cQg5fFMMeG1CQ+zsi8aqF8OHQDwqk6zY2yhZgEXExJ+OuTbXi7XUJUIk9BHFsrFPxPu6qwISih0AICdD692zShKlzJ3Em5FEwE7/As8HAWmHqA4CTpDY5OUTLcLRLtogfXG+wu7ryTy/ii9cyl4uYyznM55+Es9Thni/yFTFuPXmuEZ2HEppd3rW76tAjSjHyyMUmKdCl32XNxlQsQxAUEQOBqWI/zZHPgsxSEEfZwLeXmhguSDB0eQJgDHT0LH4GrzVGNBUVmgPBXx+/i7TYLA3IQBUYU28pV/M97FmF9WIGfPI48fxAB2SadJBFioB/dUMMstIHX5Jm0wNQDhLE9CMJxzofD0h+59A0thGLRFFH7iZUUZ9KSE997pLd7+DIvoE8GaBp2MQELRE+NpiJPABCGdrpDuGv4jecyRzHXwTA4EAcBggsUhq4wnN7leRByta133uNZgJU/SUlRVfBJWsF/+egu3uwEonIIET2GJ8pU/NmuWqyPKFApZMiTqdBNEOCA8qoz0qQfrznep+edBaYeIGRuUDNXp6Glnnzhw6W73G4Y6SOerZtdsQZlMpBGE4rHoxiP9oWMABdCB2H0QaKsQ3WyaXfhqiwNmV58l4srfu6+GRkZ4sNxWaZphvluPIAwd0dD/jwZjTKDMo2ojLOs4kJaxf93ogWvdSoYUMKI6AnsLJXx5zvLsCEscclY8nSxsJITJtMobCu8r6PLvOXPo3otyVsLTD1AGH/1cYuekXFGKtEMsRYyPz98s5e3Rh1ztR7OxBgVKGCOwViH2ApkWmH4eeN6EMZf+DNvPr/BgTD4OPGokabxSIqz6Y2b9W0VGVuUD64jIcm4llTwl8db8KtOoNdfgLAex5OFCv5sTyXWh0hu2WaxJPYgOIJpLMDsAoT8CrvO+v6ZHw8w9QBhfDuOOwFPYPq5u56NF2AQK9hwmJRpoAkAwvwYwtP/lLl7EGhOTpP6JU/eDlvVm6inv8tm4x0dPgGprMUB3Ewq+KuPmvGLTgt9wQJE0nHsL1Dwn/fUYG1Ygs8GhxkozkCCcm5ZW4pKekNuNg6AfGjzTAKEfHj+2d8GDyBMex96AGHaTT4fb+gBhPnY63n2zB5AyLMOeejmeADhoU32uB/wAMLjWtD7fA4W8ABCDkbyTplaC3gAYWrtO/VX9wDC1Nt4xB0eFiB4QknT3kVz4YYeQJgLvTjLn8EDCLO8A6kA1NhZDLP9wfK3/bkDBNJX0JmDIApAsWKWFxDO367Np5Z5ACGfemOetsUDCLO94z2AMO096AGEaTf5fLyhBxDmY6/n2TN7ACHPOuShm+MBhIc22eN+wAMIj2tB7/M5WMADCDkYyTtlai3gAYSpte/UX90DCFNv40fmIHghhmnvnLlzQw8gzJ2+nLVP4gGEWdt1TsM9gDAjPZj54giRTCpD2mMYeOfMSTy1fQdKbKrRTQVzbCg2oFCNLNkpvzsjbfZuOqss4AGEWdVdc7exw+c6ek4emiTCRVLgtg1DUhCTJJy6dBWV5WVYVlWBAJVgHiqBO3fNk+dP5gGEPOgg4ommJQldpoEPPj6Fp7ftQJEkczU9OggckE6+oQjFW4+nmAedlu9N8ABCvvfQvG2fgAy2qByaARBOXrqKKg8g5NW48ABCHnTHSIDwqW07UCjLXA2DDtWRFfcAQh501mxpggcQZktPzbt2egBh9nS5BxDyoK88gJAHnTDXmuABhLnWo3PmeTyAMHu60gMIedBXHkDIg06Ya03wAMJc69E58zweQJg9XekBhDzoq0yAcOzUSTyzYycitgTTqbypOZW3DVXyOAh50F+zogkeQJgV3TTfGsm6fA6JapCDICuIQcLJS1dQWV7OJMWgR1LMi6HhAYQ86IbRAGEXIjY8gJAHfTNrm+ABhFnbdXO54TTXsQdBsiFT9VAiXxNAkAggDGUxeAAhP0aBBxDyoB88gJAHnTDXmuABhLnWo3PieVyAYMOC4gIERfUAQp72rgcQ8qBjPICQB50w15rgAYS51qNz4nk8D8Ls6kYPIORBf7kAodMw8OHpk3h6xy6ESSVJJjkRGyrnO0owFQlES/B0EPKg0/K9CR5AyPcempftGwYQSAcBkhBKAnDy4lVUVpRhKXEQYEPxZroZHyMeQJjxLiCtEEcoSU/i9LlPsG3LVhQoMvy2BR9MSAQWoAglxTxor9eEWWABDyDMgk6af00UAIGIijSv2bAlBWkoSNjAxwQQysrQUFsBzTbhl0gWzjtm0gIeQJhJ6zv3FgAB6DV0nLrwCdav34giVUVQsuCzPYCQB100+5rgAYTZ12fzoMWcxUAQgQACQwUHIAA4c0F4EBpqyqHalgcQ8mA8eAAhDzqBXhpDktBnGThz8TIaGpahLBJCEAIgyJ4HIQ96aZY1wQMIs6zD5kdzhwCCleFBkBG1gfMXr2NBdQUWVZRAgwEN6vwwSh4/pQcQ8qBz6KXRJQkx28K1xiaYkoxVi+sRIg8CTCgEEGwFkL0AQx501+xoggcQZkc/zbNWCoAA2JKow2BLMtKQ0adbuHj1BpbVL0RFJICATL4FDyDM9PDwAMJM9wC9LBRisG0kAdzr7MS1m43Yt2sHwrINvwsQSCLJq26WB701S5rgAYRZ0lHzq5mZaY40nZm2hBRkdMWTuH6rERtWLkOhJiPIBG0PIMz06PAAwkz3gAMQqHIjAYT2B304fuYsDu97kl8UAgiqE2LwAEIedNZsaYIHEGZLT82rdroeBNOyYEs2F6QzJBXNvQO4c/cudqxfwxsjzTIhyQQQPK/pTA4QDyDMpPWde9NLQy9KCkB/Ko1TFy5izcrlqCqKIOAABBZZ9jwIedBbs6QJHkCYJR01v5rJHgQbsCyba9enbQspScHFm43w+XxYWb8QIduEZhuQZJ8HEGZ4eHgAYYY7gONxNumKAWkAA4aF6013EQ75sbS2ehAgyB5AyIOemkVN8ADCLOqs+dNUARAknvPIg5CGhSRkvPruUezYvgNVBUEELEMABMXvAYQZHhoeQJjhDnABgi1JSFn0skho7elFR0c7NqxYiogqQ7NJM0kGJPoSJJ+hw3PB5UEX5l8TPICQf30y71tE4EAABPKGGraJNGy0dj/AreY2rF2zGsU+DWHiXVkGoHgehJkeMh5AmOkecDwIFGpLGQZ0WUHCFIzehvo6lIVDCEqAYlJMjtQVXVBNWcSUUUwAgQSUHBElFz94uCEPenYGm+ABhBk0/ny+tc0FmEZRBxz9A44vQIZhAboiIWaZuHbzFkqKSlBbUYGABGiSBYmKOXkkxRkfSB5AmPEuECEG8gwYlkh31CUZt+62wLIs1NfUoNCnQjXSkCUbkiw76Y4ShyXEm+gBhDzoxvxqggcQ8qs/5k1rRno4nQd30hs5tdEG0pYNQ1XQGYvhbvM9rG5YhoiqQaPNEHtJaevj1LufN7bLvwf1AEIe9IkrP2raFgxISEPCQCqNq9duoGFRHSqLC6GYBnyKBIWIipLwHhAwEB4EFyLwe+URf/OgT2e8CR5AmPEumI8NcIo5j849cHGDU+45LUmIGjpuNDUhEAiiYcECBJ3ERpri6DqesPzMjyAPIMx8H7AHwbRMXth1epEUFQnLRltnF1pbmrFp/VoEVRUqSH50yGswhARckJAHD+M1IT8s4AGE/OiHedYKS1RaGF1UbhAgAAaApG2jM9qPKzeuY9O69SgJBOGzOLGBDxJSkohz5R0zagEPIMyo+Z2Xgd1u9GJZsCSZxUN0SIgbOm41NqK4uBA1lZVQJSBAhEUn3dENLriQIQ8exWtCvljAAwj50hPzqh0mA4QhZpRMux4HHIjAATiluy+dxoUrl1BbtxA1pWUIQGaA4FKnbBJK8tK6Z3zseABhxrvAbYB4sYiaQ9wCQtnkTXjQ34/W++2oqa1FcTgMxTCgKgojdJleREkWaN17mfKmJ/OiIR5AyItumCuNoA0Mu/zHIz8zN9GGOcgfkLjWAmVfkeQBCSNZFBqVJKQtC3fbWpHU06ivr0NY0RgcsCCc2PXAIqrVXDHeLH4ODyDkTecJLwKnMhLKppeK1BVNG+2dHWjv7MTatWug6AaCPg2WIcql+jVVvFMOQHCUzgdR+8jH4xddkjxAkTf9PkUN8QDCFBl2fl7WVUAc+fSD845DQrSoxoLLiSJkQP9jryi4Ym3SNNHfN4C29jY0LF2CgN+PgCTBT94D5k8RiBAAwSv2PPNjzQMIM98HTgtc1xyJiNAXYFgWexE4V7ijA7FEAg0LF0CVZfhkGbZhIuDToLjI3iH3uC69sR7NAwh50+FT2xAPIEytfefZ1d15Y6wNB/1uEEDQKk/Z2LzKC80DllOWJSRtC93RATTebsKqJQ0oLCzgjAVK4faDgxG8QTJkwKJ0R49vPeOjzAMIM94FGSEGZ3fPbwcTF0mnXKQE6ZKN5tY2GOkk6uvq4JMVBBSFwQEXeXS+GGYQuhiRbSRTeqR3zB8LeABh/vT1NDyp8G6OyCtwwgqZAIH0C0SKIs1htNGRYdg2UpKN+719uNvZjkW1C1EZLgBPSaYF1TLhY6+mzN4GQwGHWQkgeLPWNHTuBLfwAMLM2j/j7oL96wol2lwNVUgw05dNCDxt4E5LK2LxBJYtbYBf0+BXuUoDVJZSsADLhK2IFy0DejghhaEA4jjZyqOs4ektTe8AcbFetru6aeXjncf9Ri5eSUdSlnAlqeAvT7Tg5XYL/f4CRPQ4dpco+N92VWNjWIJmAbKTSUOIk+uD0TQvvsmaOputPYNj0RtQ2bo27/7OcwU7BtykatFEdyMiopuiY8UGhUIEpOciMZeKPKEdnT3o7OxAbU0NqktLoBI/gfMZiadgOeEEGncyhxfo8EIMMz8UPIAw830wrAWD9dIzZ1znRdItGzEL6Ozpxf2ubtTUVKOoMIKAIkOzLKi2BckyIGvaqMJOgmQkYnziTc5hpp6Ak5RnZptTzRmlpv2oT8djSEdalnAxreK/nGjGa20WYloBgmYc20sV/DkBhBDJeVtQLIdGLknsxGL5LXuEQudEbcmGOmk9kMelxwxemUdmtms9qk28z422wFCiwei/uc5IXtAFSBCHo+RKYQSiVjsbkrRhwpJlGJKMpAREU2l09/QiFY9hcXU1CgMBBFSqLEMXHt3JLqfBI13nx0D1AEJ+9MNgKzIBQubLwloJto2EJCNtWHgQjeKTK1dQU1uD2soKFAQCkCyduQmsYE5pk5YgJGamRQ5uBYUaSfbD8/Flt9EknsEO2qzYTezSJjrYE0GAkQCCRADBj788eRevtZqIa4UIGTFsK1Pwn3fXYn1QccqKmzztE9uc4sakZEeR4ZwEa9xtZhZbOJHmSbSYd6kptcCgAiK5mJy9hQsQbFJzFXMMbT9ojkoTdwpi/HQ/6MPN23dQXlqC+roFCGsKe0g1iQTf2AUh9ipuaDWDbO0BhCnt1Zwv7gGEnE01PSdOBBAsiuVRupAsI2GYSJg67ra1IRqLoqS4BNUV5Qj7/QjTC+i8fPRC8iQvuEODHgSqpJat1LpYZKbnub27CAtQ5gpNrhMdYs82Mb6juZzCTjLSSEoSLqV8+MtTTXi91UJCiyBoCA/Cn+1egA1BApXCg0AxZEpFEwBB/EcwQ3DTxz9cBb1soEVzxqLX37PBAplAlMYFgVcOhDIgoHFB/9LGxaG8IGGa6O4fQHdnF2zdxMLqGpQXF/LZpmlAVRVoCnkQyJXkeRDyfRR4ACHPemgYQMjIO2YhJcvid4pe1LRtw1Bk/rcvEUdXTw8e9PaiIFKABRWVDBQ0TRsEB26dJ9chQAg+m3Mg2yKUZ6abE80RXJJsi3H2R+XggkzxXYMBwidpGX91qgVvsAehAEE9iifKVPz5rlpsCkpcMVSlXDQCCMoQIOAQQ3YsmZMzigFQDiGG7E/nnTEdFsgchsNBqRgf9Hf2GJgWUmkRSujo7YakyKgpK0dtUTHCigrJJOBpkQwcJHYdAKqkDj4CeyDcDY0rAufpukxHF2e9hwcQsppo+k4YL9d4sAXkiqNJnEmLInWIAAIRe4gQFE+nca+lBY13mxEqKEJRUQFCwRAKCwoQCPhYidEtBkkEoGwkILpTtp3j9Fln9t8pF2eMjxbqXB41y8WIQ0AZMBRmSEkyLuoS/u7Mfbx1H0hqESixB9hVFcB/2laGtUEJAdvm0BTN+uzFcMIcsi3GSdaoRw5tpianKPttxLmTce0cbu+d8hAWGKtPnEQGGDaQTOuIx5Poj0YxEEvgQU8vguEwlq9YgsKCINdVCFE4gcYPkac5dEXpi8RzIQ/nYFnacVvlhRkeosOm6FQPIEyRYR/lstkAAu8snV2eyCKSWLmM1BdN+p7SIi0LA7DRF09gIBpFMplEOpWGrhswTIO9EJxOJIsXdqKDFwcPITxKV479Gcc9O/RHxx2UcTaleNEuO9uRDWxQvwUMwAcDcVho1Mrwi7tpnNGLEZeDCOsxrPQn8MWFNhZrafhMEz52T1kwZVLEE4xCyme3eKxkuyO1eOIBRZfwmTRahx8jPc253Cmbfby/P5wFRvbcMEKzAxwFbUCot2qaD36/D6qmIhwKobioED6fBk0WAJfAJqUpUrYC8aE4v8GlPVFKY3aijSfm9nBdOCVnewBhSsw6RRcd9Pk7e3sGByLrmLwItkUgwYauivQiOiz62TJB/AUqJ03/0tzPu8IcZuJsIGKKnnROXjYbsZAemnbuvLma4Mih20DgLmDTTs1AzDZx3fTjuxe68GpTAml/IcJ6FNvLNXzziUo0BIQHwc/3tEF6+i4HgfgrJOk9kcpurp1FC4xmDg9tjfUs3pjL1aKTc14uXCNBnh0iNpNYG38priorpSoK2XcCCMI/wDsaHov8WVesxSvkPDkdNw1X8QDCNBh5sm7huvwFTUhQx1xUT/BcKCLQaylobuJ82g0S8heFoBymIu8MRUWHLIuR5//NZqKH+PsYy+GIX+Vq7mwgQTibaNI2OBR1OaXir4434jcdNlJKCIHUAGcx/I97FmN1WIXfcgGCNUiUpBFFAGGyQgzjGmpEvDnbsz2Ewb1TH8ICo8fe8J6gMvR0uPMOLIsrx7hAQAAEDZKk8O7DYqjpaieQpNtQRkyu4/whmu+dOgUW8ADCFBh1qi4p8Lg4XB6x+N5BA0woo59MwRCmb1mujDwHBBUcJD8MzY/fWv74VD3MHL/uMIKX8wNNpjZ5c2jqtE2kDcPx6NAuTBFpqbY1mJY6nolcMZqJTUhjgQSzLM5Hv2P68M8fXsbJtjgMXwh2qh8bqkP4kx0rsTSoQLWI0EhbPZN3e5lCSfx91hnd4cY4jWIQy14tCik4QIOUPxWxt6S2kayuSMFlsoQQ2ZHcKn5ZbzjHR9A0Pp4zPjMtPpa3y5RFWqPwWTocJhovlglZFmRW9h8QAVEShZ+HIpQu3MxhKE3jo3u3yjKL2NkC354FZ5UFxuvOUVrqg6hiVj1e3jY2UyvAibhyW93Ct/S9bCRhw0AsPYD+xAAGkjEBFNIUEKJFVHF0rB6f+EEkMM3wwVRkDMgSEloI3WkFA6aMuKVDUi34lBRWyzoKTH1Y0uTIMZRDuHhIR8/xQvO+kvGGjbAWZO5MOBhBYSSMSKgQsqQBJj2vA0FlAgcETuiTolapd0yTBXhhf3RA5o4XT859mvprGm/jeRCm0djTcauxAMLIFCKeDh59PpiOx5jV93ABwhBQkGBRiqqRQDTRh46eNnRHuxBL9iGpJ2CY+qCgFXmISCH5cQ/yMCkGpcJKnDlgaiHEDQ2KvwiGZcCWdChIoFBPwkcSy1mO7E0SmfFcRoQ5MY5D2ZKgSSoiwSACWgClBVWoKqtFyF8AvxSELKmQZOGSZkYNAwTPd5WtPyb/72MEGEa4EcaaWzJTFD2AMPm9MtNX9ADCTPfAJN/fAwiTbNCcLyeYIcJrIDTpOVpLKV4SoBsp9Ma68KCvAy337+H2vRtoab+DaPwB4ol+BgiKQgJFJHM8Gbtnig8bMCULOrvufZDkMCxDYRU7GToUKc1oJJtSYnZwwEEs56kdGziFfSzyHARCDBBqqmqxumETqssXoryoGgX+EmiSHz414NjNBQjZU+By7hbvxBwtkB0gjHchz4OQo4ln4WkeQJiFnTZRk70Qw0x0qEvEEvF0ARDEYcGAZZkYiPXhXs8ttHe34MKlC2i6dwu2rUPVZITCfl60dV0XHBMieT32YUKSDL6UpMpIJnQocgi2IcFPvBQrCZ9qI2UrsDJEa7jduaRbZLRPPCtJ8dJ3wxd3Sqs1DB2xgQHW669b0ICtG3egtmwR6muWIaIVQ1P8kGx65gzLeS6uxx4BOV8gxxDDSF2CkXVjPA9CzhafNSd6AGHWdFXuDR0rpDAaOOQgj5f7Lef5me7C5gIEsRsTxFATaT2B9o5m3Om7hvNXzuLypSsoLirBmpWrUFFehYA/AE3VBKhgUZmJD5dLPtFZBFOIdGhaaeaMQSYSpArbohLh5MZPA5IB0/YBcoY0U0YJ32ztGP53QTAUwt4yE9bEumOhb+AB+vse4OqNK+h40IHVK9Zi+4ZdqC6uw4LyxfCrEcG/YLLDGIy5h2uId/bDWuARAQLfJmO8eMJGD2v4/D/fAwj530eT0kIPIEyKGce5CM2wtLALEQMhBUTQgNK8DMTIe9ByG9d7zuHdj96BZGrYuW0vGhYuQ9hfjEioCLBV1qygKneiEsL4R2Z53fHOYs64IRMzErZkiKRYRgokX0PgUAAE2rmL3fsERy6gweUQ0PVcLwIBJMlALNGHaKIf3X0dePv4q2ynJ584hKW1q7C4ZjnbgNPjnII/7IPxODJTOWBHYrucSIoeAJi+LsmXO3kAIV96YtrbkekIn/abz7EbZgAEZ4mnB+Q8cFtHf6wLd5tv40LbKRz96D3UlC7EgV1HUFu2GBUlCxAOEEBQuMgGl8HNInCdi/edF2mLUglNBgIiW50AguIU3SEQYghxmxFpCgRUHvpwCzZwPWdXUMeCLZtIpKO4392Mjt52HDv3Ohobm/DkjkNY07ARSxeuRiRYMgQQBlN4H6END91o7wNDFpgM3otnz7lmAQ8gzLUezfl5vAk4Z1NlPZG8B7Tg0k6cPAii+Ayl7Fl2Gn0DnWhuu4PTjR/ixOkTaFi4HAd3HMHimmUoK6yCAp8QlxmkC+bQN1l22JxTQAu1RLRHKsBLizaBEPqiB6JSj4bwdgy71hiUxRw29BReICsw2LBFUWfbNmFKOgyk0NV3H/fuN+LUxXdx7uw5HNn3DFYt3oAGAgjhUshQncqRrgWzGt07YVIt4LlsJtWcc+RiHkCYIx358I+RwyL08Bedp5+gpZGXx0GAQEQ/WjRNBggdaG6/g9M3j+PYiWPYuHIj9m45gMU1S1FWUCU0AcSSyvbLXXeAzh6a2IfyKERrBCyg/zdFyxgcqM4NKLuCRJtoYc9cHFzpXNGV7l+yeS2E30NoGMgMEAgoka6BibSdwINYJ241XcXZKx/i5IlT+MxTn8eK+g1YWrcGkWApZEko7bnKe95yNd2vkmfx6bb4bLifBxBmQy95bcx7CwxVxXCAgiW0AAwY6I12oKnlBs41nsCxj97FhlUbsWfbftRXrUJ54QIoxAugGhmyS1DMVoxhKKTBoQOnXC55LUS4wBIlmrm07hCBcjS5URSLYsU7+peUDzNBAf1ESoikkkf1wic4hu4i9BAYLLEHA9BtHV19bbjTcg0nrhzFuXMf4+CeQ1i/YvqUGrsAAA2VSURBVAsWV69BYagSRJ0UiMTVQfAWrLwf9F4D57wFPIAw57vYe8CptsCQL0bUx+BV0SKZYwmGbaI31smL43kXIKzegD1bCSCsRlnhQqhQhTK2TOGAXESCaGF3kgudcL9hmlBkWYQ2WCNfgiILt717jElUpRod1GLKcpAB07RZ1IkUkekanJchyTkBBHGfDBuwnDLZwEBnbyvutF7D8Svv4fz5M9i/+wA2rtyC+qo1KApVQXXYFxJxJkakSk51/3nX9yzgWWBsC3gAwRsZngUe0wLTDxDcdEhRspsWYMMweBEnXXxVViHLCiSLSIlDAIFY6Jn7ct712ybrNLAQg2RDN4WuvkKggKQN6DPk/s8i3jSmDTyA8Jgjy/u4Z4GZtYAHEGbW/t7d54AFZgQgWEKhkUIYCT2O8xfOIhQOYsXyZdAUClnIkGVSKJzYVS+0EijTgcolUEpiP4ONksJSdvuTuBHlVkgZYkpjdZkHEObAQPYewbPACAt4AMEbEp4FHtMCWQFCtBNNrddwlkIMH76DTWs3YveW4SEGDv7nGmLgCIOQJTagI5rswy9e/hkqq8uxb+9eph2oRHyUZNZWcEt8JxJxDhpoPg0+zefoLvjpNAYHfQPdOPXxCXR1duFrX34BiuR3wh9UhZGIlOMf4wEEYiQYLgeh9TqHGM6eO41Dew9i/XLBQfBCDI85AL2PexaYIgt4AGGKDOtddv5YYOLF0SEptt3E2dvHGSBsXLMRu7fux5Lq1SgtEBwEcZA8cg4cBEe4iESYKI0wmurFL371IopLClFeWY6rl68glUzBNHXs3LkLRUVFePe9d2EaJgYGBrBu3VqsXbsWH310Als37UFBpAC/ee8tNCyvx1tvvo4HXb3Yu2sfjux/hjUKFJnSMCcmTmYFCL1taGoXAOHMmZM4vO8I1i7bjIaatSgMVnochPnzunhPOoss4AGEWdRZXlPz0wIzBRDIf2BKKUTTPfjZr36CktIilJaV4OPTH2P/vidxu/E6Uqk0VqxcgTfffBP7ntzHjoqzZ85g3/59eP/oB9i/99MIB8P45csvYu/+Xbjb1IgHnf14+tBnUV1WD79awEqLijKx2qIHEPJzbHqt8izwOBbwAMLjWM/7rGeBjMJMIxn8wr0+dR4EC2kBEPRuvPjyj1BWUYJIJITr167jM5/5LM6dP4O+/j6sWLkSx48fx+HDh6HKCl559RU8sWMnzp45i53bnkRNVQ1+8fJPsHvvdrTca0ZvTwxf+fxvwycVQrXDUBXV8Ww8RojB8yB474pngVlnAQ8gzLou8xqcbxYYvnt2lARYX8DRQRjowN3WmzjT6IYYNmH31n0jQgz0OQoxCLGlCQ8nxGBChyUlGSCQB6G4rAAFBWHcunWLAcKZc+fQ1dWFdWvX4pVXXsXBAweYu3Dy9Ck8deQI3j/6PlYuWwtNVfHRiaP49DNH0NPdjbuNbfj04S+iNFILn1QAv89P2YrZmuT83U1zJB0Eoaug22l097XjTtt1nOAQwykc3ncY65ZtxuKaNSgKemmO+TamvfZ4FiALeADBGweeBR7TAkKSQAADWkjFj6RQSP/p6It2cy2GM3c+wvsfvouNa7Zg9+b9WFJDHIRqwUHgmglpgPkIExMC6fJ8bacY0kD8AX797lsoKg4jXBhE090m7Nv3JC5evYhEPI4FCxbiV7/6FXsCEskE9u3bhxUrlrOn4cQHJxAJhlBWUYZdu3YhndTx8kuvoLy0Cl/50vOIhIuhyWHSR8wCEITUMheJ4olF2IHaaUAAhKbWWzh++R2cPfcxkxQ3rPB0EB5z6Hkf9ywwpRbwAMKUmte7+LywwGC1wyGAQOqERCK0KTsg2oOm5kYHIBBJcesgQCiLVAuZ4UGAQOAgo/zyGAbka3MWg7iLbiSRSMUZjJiWzg6IQMCPlJ7kFMaW1hYcPXoUhw4eQmlpCQL+IAKBABMWjWQKAc0PVdVYLMk0LKRSOjTVh8LCYkdsSRNZERMcrMYIEmhyyj0zRiKdBhOmneRKjncYILyHc+dJSdEDCPPi3fAeclZbwAMIs7r7vMbnhQUeGiBs4TTHJdVr2YNAFRUl1kbWWXOACyplWYy5ZgEJNpIXwfEmEGCgdEXbtjh1kfbwlmWgvaMDN65fx9q1a1BaWsa7fMqWYIEkyxa6CRTgIGkFkltmgSSVAQOdx0oIWbMYhL9EJs0Elk2mglWiIoSJJLr6OtDUdgsfXnrfAwh5MWi9RngWyG4BDyBkt5F3hmeBiS3wEADhKOkgUIhhyz4sZoBQI0ous6YxSS07NQyy2NyyRUok79KdegskkcyBDgpzUF0GWVRIMC2L5ZM5hdK2oWokpETnCWIBAQCSahb1EwBZER4Mwg+yTG1zrzV+o8SdRLEmynpg8QUCCBJJOaXQ3Xcfd1pv48PLRz2A4L1PngVmiQU8gDBLOsprZh5bYAKAYNkG+inEcK8RH9/5CMdOvIf1Kzdgz7YDWFy1CqUFtVCgZgAECRJJFGfxIZi2yTLIYqcuQAGDAK7H4OonkgeBuA2CGCE8C6IUszhEMSWbCzI5nyPQYdHp4ncMGAi9kIdjgsMtVkUFmgTIETwMEnPSkUQPhxhu46Mr7+LMuVM4/OQR5iDUVaxESZi8KIoDbrxaDHk80r2mzTMLeABhnnW497hTYIFxAALR8yxbR//AAzQ138bpxo9w4vQHWLVsFZ7cfgD11atQXrCQqzmKzTyVZqa1eETKwIgf3d26WOJdMMGBg6GFn5mTYlF3AYT7r2uB8Zf8kSkLw2s4jGVBvptkc9sZSzj1pCyYSFsJ9Mce4E7rTRy/9i5Of3wcT+17CmuWbkRdxQouWKXYCodFiLfhhiimoKe8S3oW8CzwEBbwAMJDGMs71bPAmBYYAyBYvBqbDBB6+7vR3NaE03dO4P3j72LtilXYtXkP6qtXoLKoDpocFO546KIw0hj1E8QOfegY+tk9ewRAGHE+A4UxGj9+9mLmXzgvYWIPgpO1IQCCAC3CY2EjZcXR1XsfTa03cfr6B7h48RwO7j2M1UvWo6F2LSJ+Ue6ZHBaU6ulVc/TeM88C+WEBDyDkRz94rZjNFhgXIFiw7TQe9HehufUuPmk/j3eOvYkFVTXYv2M/akoXobJ4IUK+AseFr8Mek6Q4EhzQbl0s+a7n3wk2CCvy6RQWoHLLGaBiDIQgylOPhRwyTrbJ/Z8t7GHCllwOgigUTQCBAwxGDG2d99Dd34njn3yApjuNOLDnAJbXrUHDgnUo8ADCbB79Xtv///bO7ieNIIriZ0FAkGhAMUXbaGvjg9bUNPpQ//U2TZP2pYkPNk1MWprWj8SPKoqKCCzsNndmF5YPBcWAq2dfNLAzO/sbkjlzZ+6ZR0yAAuERdy5frU8E2i0xyCmJMNWMOF/IYXdvG79zGXz++hHlwiXWVt7j1fQ8RkIJRIJRBFTiQgW2If80ZzE0zt71+K8/03ZMtspGUILBEyeoqil5Y9kGwyNnn4C3TF1h1AWC1NrJvEmWEhA0YVQlAiIbFaVWC5Zhomxf4ap8gcPjA3z48gnhUAhrq2tYnFvG5OgMEvGp2hIDIwh9+s3yMSTQBQEKhC4g8RYS6ERAsgbcrABn5V+n+Rk2SuUijrKH2D7NYGNzHRvf1zExkcDrV3MYT6YwFKhbGcs433G2Xhvl9dCtowauQKh9AKttaqJXMDiCou1mhNaoxY0MnCwMSdHUUQ3tCSF6p1wp4uT0GJlMBue5PJYW3+Ld0irSyRk8G3+JcCCGgLvvwtB2S52WNDr1B78nARLonQAFQu8MWQMJtCEgGQRaNEh2QaGQx/7ZFg6yu1j/8Q2//m7CMkoIhgLK4VDGd0v0hJNZ4Dek2k2ycRlCsh9EOMl3plmGXbWxMLuA5TcrSE/OIJ2axUhkDENG2BPn0I6UvEiABAZPgAJh8H3AFjxSAjXvAVloqFaQN0+x928bucss/uz8xM7+Fk7OsiibJqyKhVAo4qQt3pxS+BBxuQse3rYpXwbbRjgcVkdOT089x/yLeUwm00glpzAcGlUbNINqY6Z7MYLwEPuXbXqaBCgQnma/8637REAGSbnE8bBilVA08zjKHeLk/Ail6hXMagmG+AyIXYHjH9Cc5dinpvb0GDXAN53opFwYjYCKoEjWRTwWRyKeQmJ0AiPRMQQRUe8sLo1aIAgrEUedsyZ6aiwLkwAJdEWAAqErTLyJBO5OQEcSdNqfbOYrlC9RKF6ov7KVUcZFWY5Q5xgoU6K7P2uQJVvjHnrzpAgFMWiKRWOIRsYQDg7DwJAWB8qp0U3VpEAYZP/x2STQTIACgb8JEugXAUu7F8gBRkoq2BUlGEQgyMY+mUdL9KDZ86Bfzev5OW3OhPZ+JIdSBcQUqhYh0MJA6yHHXUnMlhhB6LkrWAEJ3AcBCoT7oMg6SKAbAo7lgIgAyzmJUYqpJELXu+A6X4Ju6h/gPfJOzYGPVqEj6kd7JLRebvzBzQbxaRhlgH3AR5PAfROgQLhvoqyPBK4j4I6BIhA8zoYiDlzDI7Er9udVOwCi1vx2Gxd9u37iz05hq0mgJwIUCD3hY2ESuD2B+lzZk/Hv1QW+nTx3I27cl2u+17cvffsfAEuQgE8IUCD4pKPYTBIgARIgARLoJ4H/mn2gj/Qx9dgAAAAASUVORK5CYII=;" vertex="1" parent="1">
                    <mxGeometry x="60" y="205" width="241.35" height="110" as="geometry"/>
                </mxCell>
            </root>
        </mxGraphModel>
    </diagram>
</mxfile>